SplineFontDB: 3.0
FontName: OxygenSans-Regular
FullName: OxygenSans Regular
FamilyName: OxygenSans
Weight: Regular
Copyright: Copyright (c) 2011-12 by vernon adams. All rights reserved.
Version: 0.002;PS (version unavailable);hotconv 1.0.70;makeotf.lib2.5.58329 DEVELOPMENT
ItalicAngle: 0
UnderlinePosition: -22
UnderlineWidth: 0
Ascent: 1638
Descent: 410
sfntRevision: 0x00000083
LayerCount: 2
Layer: 0 0 "Back"  1
Layer: 1 0 "Fore"  0
XUID: [1021 332 1330122705 9131910]
FSType: 512
OS2Version: 3
OS2_WeightWidthSlopeOnly: 0
OS2_UseTypoMetrics: 1
CreationTime: 1352760499
ModificationTime: 1352789519
PfmFamily: 17
TTFWeight: 400
TTFWidth: 5
LineGap: 0
VLineGap: 0
Panose: 2 0 5 3 0 0 0 0 0 0
OS2TypoAscent: 2035
OS2TypoAOffset: 0
OS2TypoDescent: -672
OS2TypoDOffset: 0
OS2TypoLinegap: 0
OS2WinAscent: 2035
OS2WinAOffset: 0
OS2WinDescent: 672
OS2WinDOffset: 0
HheadAscent: 2035
HheadAOffset: 0
HheadDescent: -672
HheadDOffset: 0
OS2SubXSize: 1331
OS2SubYSize: 1228
OS2SubXOff: 0
OS2SubYOff: 153
OS2SupXSize: 1331
OS2SupYSize: 1228
OS2SupXOff: 0
OS2SupYOff: 716
OS2StrikeYSize: 0
OS2StrikeYPos: 598
OS2Vendor: 'newt'
OS2CodePages: 0000009f.00000000
OS2UnicodeRanges: 000004ff.0000404f.00000002.00000000
Lookup: 258 0 0 "'kern' Horizontal Kerning lookup 0"  {"'kern' Horizontal Kerning lookup 0 per glyph data 0"  "'kern' Horizontal Kerning lookup 0 kerning class 1"  } ['kern' ('DFLT' <'dflt' > ) ]
DEI: 91125
KernClass2: 26+ 28 "'kern' Horizontal Kerning lookup 0 kerning class 1" 
 1 B
 1 C
 1 F
 1 K
 1 L
 1 P
 1 R
 1 V
 1 W
 1 c
 1 e
 1 f
 1 h
 1 v
 1 w
 1 x
 81 A Adieresis Aring Agrave Atilde Acircumflex Aacute Amacron Abreve Aogonek uni0202
 75 Eth D O Q Odieresis Oslash Otilde Oacute Ocircumflex Ograve uni020C uni020E
 9 T uni021A
 45 U Udieresis Uacute Ucircumflex Ugrave uni0216
 18 Yacute Y Ydieresis
 69 thorn b o p oacute ograve ocircumflex odieresis otilde oslash uni020F
 27 k kcommaaccent kgreenlandic
 29 r rcommaaccent rcaron uni0213
 9 t uni021B
 18 yacute y ydieresis

StartChar: .notdef
Encoding: 65536 -1 0
Width: 931
Flags: W
LayerCount: 2
Fore
SplineSet
186 93 m 1
 746 93 l 1
 746 901 l 1
 186 901 l 1
 186 93 l 1
93 0 m 1
 93 994 l 1
 839 994 l 1
 839 0 l 1
 93 0 l 1
EndSplineSet
EndChar

StartChar: Eth
Encoding: 208 208 1
Width: 1490
Flags: W
LayerCount: 2
Fore
SplineSet
223 757 m 1
 223 1361 l 1
 561 1361 l 2
 1031 1361 1374 1197 1374 672 c 0
 1374 219 1084 0 654 0 c 2
 223 0 l 1
 223 634 l 1
 116 634 l 1
 116 757 l 1
 223 757 l 1
384 634 m 1
 384 141 l 1
 671 141 l 2
 1004 141 1202 316 1202 668 c 0
 1202 1097 953 1220 581 1220 c 2
 384 1220 l 1
 384 757 l 1
 604 757 l 1
 604 634 l 1
 384 634 l 1
EndSplineSet
EndChar

StartChar: eth
Encoding: 240 240 2
Width: 1164
Flags: W
LayerCount: 2
Fore
SplineSet
589 104 m 0
 786 104 895 247 895 430 c 0
 895 595 785 758 583 758 c 0
 390 758 279 614 279 441 c 0
 279 267 382 104 589 104 c 0
583 -23 m 0
 281 -23 114 193 114 442 c 0
 114 707 288 885 552 885 c 0
 671 885 751 836 803 798 c 1
 761 877 672 997 527 1144 c 1
 279 1042 l 1
 240 1162 l 1
 440 1241 l 1
 226 1445 l 1
 429 1445 l 1
 561 1300 l 1
 824 1403 l 1
 866 1286 l 1
 646 1201 l 1
 788 1046 891 921 958 804 c 1
 1021 686 1051 575 1051 448 c 0
 1051 181 892 -23 583 -23 c 0
EndSplineSet
EndChar

StartChar: Lslash
Encoding: 321 321 3
Width: 1096
Flags: W
LayerCount: 2
Fore
SplineSet
246 688 m 1
 246 1361 l 1
 407 1361 l 1
 407 776 l 1
 725 951 l 1
 725 809 l 1
 407 638 l 1
 407 141 l 1
 1005 141 l 1
 994 0 l 1
 246 0 l 1
 246 551 l 1
 111 480 l 1
 111 614 l 1
 246 688 l 1
EndSplineSet
EndChar

StartChar: lslash
Encoding: 322 322 4
Width: 740
Flags: W
LayerCount: 2
Fore
SplineSet
480 -19 m 0
 237 -19 216 97 216 426 c 2
 216 521 l 1
 114 442 l 1
 114 574 l 1
 216 653 l 1
 216 1356 l 1
 369 1374 l 1
 369 772 l 1
 529 896 l 1
 529 763 l 1
 369 640 l 1
 369 392 l 2
 369 175 372 107 502 107 c 0
 527 107 583 112 628 116 c 1
 642 -7 l 1
 596 -12 497 -19 480 -19 c 0
EndSplineSet
EndChar

StartChar: Thorn
Encoding: 222 222 9
Width: 1213
Flags: W
LayerCount: 2
Fore
SplineSet
298 972 m 1
 298 449 l 1
 647 449 l 2
 873 449 949 560 949 712 c 0
 949 891 859 972 609 972 c 2
 298 972 l 1
298 1361 m 1
 298 1107 l 1
 592 1107 l 2
 920 1107 1103 1008 1103 720 c 0
 1103 478 973 311 657 311 c 0
 650 311 298 318 298 318 c 1
 298 0 l 1
 136 0 l 1
 136 1361 l 1
 298 1361 l 1
EndSplineSet
EndChar

StartChar: thorn
Encoding: 254 254 10
Width: 1136
Flags: W
LayerCount: 2
Fore
SplineSet
592 103 m 0
 805 103 866 327 866 501 c 0
 866 676 806 897 598 897 c 0
 392 897 288 710 288 501 c 0
 288 291 375 103 592 103 c 0
136 1374 m 1
 289 1374 l 1
 289 849 l 1
 367 965 473 1023 609 1023 c 1
 860 1021 1024 800 1024 510 c 0
 1024 244 889 -23 609 -23 c 0
 471 -23 357 31 289 147 c 1
 289 -418 l 1
 136 -418 l 1
 136 1374 l 1
EndSplineSet
EndChar

StartChar: onehalf
Encoding: 189 189 13
Width: 1494
Flags: W
LayerCount: 2
Fore
SplineSet
233 0 m 1
 1070 1408 l 1
 1193 1408 l 1
 355 0 l 1
 233 0 l 1
1363 -27 m 1
 860 -27 l 1
 860 57 l 1
 1084 282 1257 447 1257 561 c 0
 1257 643 1197 692 1132 692 c 0
 1067 692 992 657 938 577 c 1
 868 636 l 1
 911 735 1027 790 1136 790 c 0
 1259 790 1374 721 1374 572 c 0
 1374 395 1203 244 1005 63 c 1
 1363 63 l 1
 1363 -27 l 1
133 679 m 1
 240 679 l 1
 240 1282 l 1
 205 1259 161 1235 121 1214 c 1
 121 1307 l 1
 177 1335 221 1364 257 1400 c 1
 345 1400 l 1
 345 679 l 1
 458 679 l 1
 458 592 l 1
 133 592 l 1
 133 679 l 1
EndSplineSet
EndChar

StartChar: onequarter
Encoding: 188 188 14
Width: 1506
Flags: W
LayerCount: 2
Fore
SplineSet
1254 652 m 1
 1030 326 l 1
 1254 326 l 1
 1254 652 l 1
313 0 m 1
 1150 1408 l 1
 1273 1408 l 1
 435 0 l 1
 313 0 l 1
1245 818 m 1
 1354 818 l 1
 1354 326 l 1
 1440 326 l 1
 1449 218 l 1
 1352 218 l 1
 1352 36 l 1
 1254 36 l 1
 1254 218 l 1
 900 218 l 1
 900 308 l 1
 1245 818 l 1
133 679 m 1
 240 679 l 1
 240 1282 l 1
 205 1259 161 1235 121 1214 c 1
 121 1307 l 1
 177 1335 221 1364 257 1400 c 1
 345 1400 l 1
 345 679 l 1
 458 679 l 1
 458 592 l 1
 133 592 l 1
 133 679 l 1
EndSplineSet
EndChar

StartChar: threequarters
Encoding: 190 190 15
Width: 1530
Flags: W
LayerCount: 2
Fore
SplineSet
1000 329 m 1
 1224 329 l 1
 1225 464 1226 573 1227 656 c 1
 1000 329 l 1
314 0 m 1
 1149 1408 l 1
 1280 1408 l 1
 436 0 l 1
 314 0 l 1
1227 40 m 1
 1227 223 l 1
 870 223 l 1
 870 312 l 1
 1215 822 l 1
 1325 822 l 1
 1325 329 l 1
 1412 329 l 1
 1420 223 l 1
 1324 223 l 1
 1324 40 l 1
 1227 40 l 1
316 574 m 0
 240 574 170 607 118 669 c 1
 166 763 l 1
 212 712 260 685 311 685 c 0
 387 685 453 738 453 822 c 0
 453 918 385 952 279 952 c 2
 235 952 l 1
 235 1068 l 1
 275 1068 l 2
 367 1068 433 1098 433 1186 c 0
 433 1262 385 1296 319 1296 c 0
 261 1296 210 1264 164 1218 c 1
 118 1312 l 1
 167 1370 243 1413 320 1413 c 0
 433 1413 559 1330 559 1188 c 0
 559 1112 522 1048 456 1012 c 1
 532 976 577 913 577 818 c 0
 577 667 448 574 316 574 c 0
EndSplineSet
EndChar

StartChar: brokenbar
Encoding: 166 166 16
Width: 399
Flags: W
LayerCount: 2
Fore
SplineSet
134 794 m 1
 134 1437 l 1
 267 1437 l 1
 267 794 l 1
 134 794 l 1
134 -363 m 1
 134 282 l 1
 267 282 l 1
 267 -363 l 1
 134 -363 l 1
EndSplineSet
EndChar

StartChar: minus
Encoding: 8722 8722 17
Width: 1124
Flags: W
LayerCount: 2
Fore
SplineSet
104 486 m 1
 104 621 l 1
 1015 621 l 1
 1015 486 l 1
 104 486 l 1
EndSplineSet
EndChar

StartChar: multiply
Encoding: 215 215 18
Width: 920
Flags: W
LayerCount: 2
Fore
SplineSet
373 550 m 1
 114 848 l 1
 210 935 l 1
 460 649 l 1
 709 935 l 1
 805 848 l 1
 546 550 l 1
 805 253 l 1
 707 165 l 1
 460 450 l 1
 212 165 l 1
 114 253 l 1
 373 550 l 1
EndSplineSet
EndChar

StartChar: exclam
Encoding: 33 33 20
Width: 557
Flags: W
LayerCount: 2
Fore
SplineSet
279 -11 m 0
 199 -11 158 49 158 109 c 0
 158 169 199 229 279 229 c 0
 360 229 400 169 400 109 c 0
 400 49 360 -11 279 -11 c 0
368 1232 m 1
 317 396 l 1
 245 396 l 1
 189 1232 l 1
 189 1390 l 1
 368 1390 l 1
 368 1232 l 1
EndSplineSet
EndChar

StartChar: quotedbl
Encoding: 34 34 21
Width: 610
Flags: W
LayerCount: 2
Fore
SplineSet
386 925 m 1
 367 1374 l 1
 504 1374 l 1
 478 925 l 1
 386 925 l 1
126 925 m 1
 106 1374 l 1
 244 1374 l 1
 217 925 l 1
 126 925 l 1
EndSplineSet
EndChar

StartChar: numbersign
Encoding: 35 35 22
Width: 1079
Flags: W
LayerCount: 2
Fore
SplineSet
411 488 m 1
 626 488 l 1
 698 847 l 1
 484 847 l 1
 411 488 l 1
286 488 m 1
 341 846 l 1
 180 846 l 1
 188 960 l 1
 364 960 l 1
 440 1330 l 1
 579 1330 l 1
 507 960 l 1
 720 960 l 1
 784 1330 l 1
 901 1330 l 1
 841 960 l 1
 966 960 l 1
 954 847 l 1
 820 847 l 1
 759 488 l 1
 893 488 l 1
 884 373 l 1
 743 373 l 1
 664 -21 l 1
 527 -21 l 1
 603 373 l 1
 389 373 l 1
 317 -21 l 1
 199 -21 l 1
 266 373 l 1
 110 373 l 1
 119 488 l 1
 286 488 l 1
EndSplineSet
EndChar

StartChar: dollar
Encoding: 36 36 23
Width: 1166
Flags: W
LayerCount: 2
Fore
SplineSet
632 -177 m 1
 546 -177 l 1
 546 -19 l 1
 374 -12 209 43 131 91 c 1
 178 222 l 1
 289 167 392 119 589 119 c 0
 799 119 854 227 854 398 c 0
 854 507 779 575 611 633 c 2
 447 690 l 1
 263 751 133 846 133 1026 c 0
 133 1276 315 1394 546 1408 c 1
 546 1584 l 1
 632 1584 l 1
 632 1408 l 1
 737 1403 878 1375 964 1321 c 1
 918 1198 l 1
 831 1240 744 1266 576 1270 c 1
 408 1270 300 1177 300 1037 c 0
 300 931 378 874 506 833 c 1
 658 782 l 2
 856 716 1021 625 1021 403 c 0
 1021 137 884 -3 632 -18 c 1
 632 -177 l 1
EndSplineSet
EndChar

StartChar: percent
Encoding: 37 37 24
Width: 1657
Flags: W
LayerCount: 2
Fore
SplineSet
1272 -14 m 0
 1062 -14 952 139 952 336 c 0
 952 534 1065 686 1272 686 c 0
 1483 686 1593 537 1593 336 c 0
 1593 139 1480 -14 1272 -14 c 0
1272 89 m 0
 1408 89 1478 208 1478 336 c 0
 1478 469 1407 582 1272 582 c 0
 1136 582 1067 464 1067 336 c 0
 1067 203 1137 89 1272 89 c 0
335 -4 m 1
 1058 1330 l 1
 1206 1330 l 1
 458 -4 l 1
 335 -4 l 1
352 662 m 0
 174 662 64 808 64 1005 c 0
 64 1203 175 1355 352 1355 c 0
 530 1355 643 1206 643 1005 c 0
 643 808 529 662 352 662 c 0
352 768 m 0
 468 768 526 878 526 1005 c 0
 526 1138 465 1254 352 1254 c 0
 236 1254 179 1133 179 1005 c 0
 179 871 238 768 352 768 c 0
EndSplineSet
EndChar

StartChar: ampersand
Encoding: 38 38 25
Width: 1258
Flags: W
LayerCount: 2
Fore
SplineSet
515 838 m 1
 639 899 744 1011 744 1127 c 0
 744 1233 660 1288 564 1288 c 0
 453 1288 369 1226 369 1121 c 0
 369 1031 435 915 515 838 c 1
536 120 m 0
 666 120 772 166 860 236 c 1
 724 381 595 536 459 681 c 1
 321 611 219 504 219 369 c 0
 219 213 337 120 536 120 c 0
528 -21 m 0
 216 -21 58 125 58 359 c 0
 58 556 192 689 374 781 c 1
 280 884 207 996 207 1115 c 0
 207 1297 346 1413 561 1413 c 0
 747 1413 915 1319 915 1131 c 0
 915 971 772 826 600 746 c 1
 966 337 l 1
 1018 392 1068 471 1101 545 c 1
 1211 461 l 1
 1175 381 1121 298 1063 230 c 1
 1251 27 l 1
 1108 -20 l 1
 965 130 l 1
 852 39 710 -21 528 -21 c 0
EndSplineSet
EndChar

StartChar: quotesingle
Encoding: 39 39 26
Width: 364
Flags: W
LayerCount: 2
Fore
SplineSet
142 885 m 1
 95 1390 l 1
 269 1390 l 1
 227 885 l 1
 142 885 l 1
EndSplineSet
EndChar

StartChar: parenleft
Encoding: 40 40 27
Width: 595
Flags: W
LayerCount: 2
Fore
SplineSet
508 -191 m 1
 369 -191 l 1
 215 21 118 302 118 600 c 0
 118 906 210 1180 367 1408 c 1
 508 1408 l 1
 355 1170 273 892 273 604 c 0
 273 330 360 37 508 -191 c 1
EndSplineSet
EndChar

StartChar: parenright
Encoding: 41 41 28
Width: 598
Flags: W
LayerCount: 2
Fore
SplineSet
228 -191 m 1
 89 -191 l 1
 236 36 324 329 324 604 c 0
 324 892 241 1170 88 1408 c 1
 229 1408 l 1
 385 1179 479 904 479 600 c 0
 479 301 381 21 228 -191 c 1
EndSplineSet
EndChar

StartChar: asterisk
Encoding: 42 42 29
Width: 1055
Flags: W
LayerCount: 2
Fore
SplineSet
148 1148 m 1
 473 1011 l 1
 440 1385 l 1
 609 1385 l 1
 576 1011 l 1
 903 1148 l 1
 948 993 l 1
 614 917 l 1
 651 867 769 715 844 614 c 1
 798 584 749 559 703 529 c 1
 521 858 l 1
 349 529 l 1
 207 614 l 1
 433 917 l 1
 103 993 l 1
 148 1148 l 1
EndSplineSet
EndChar

StartChar: plus
Encoding: 43 43 30
Width: 1052
Flags: W
LayerCount: 2
Fore
SplineSet
465 653 m 1
 465 1039 l 1
 590 1039 l 1
 590 653 l 1
 945 653 l 1
 945 530 l 1
 589 530 l 1
 589 139 l 1
 464 139 l 1
 464 530 l 1
 103 530 l 1
 103 653 l 1
 465 653 l 1
EndSplineSet
EndChar

StartChar: comma
Encoding: 44 44 31
Width: 436
Flags: W
LayerCount: 2
Fore
SplineSet
196 -253 m 1
 100 -253 l 1
 115 -117 140 84 147 213 c 1
 327 213 l 1
 327 173 l 1
 295 45 243 -118 196 -253 c 1
EndSplineSet
EndChar

StartChar: hyphen
Encoding: 45 45 32
Width: 812
Flags: W
LayerCount: 2
Fore
SplineSet
127 452 m 1
 127 586 l 1
 685 586 l 1
 685 452 l 1
 127 452 l 1
EndSplineSet
EndChar

StartChar: period
Encoding: 46 46 33
Width: 478
Flags: W
LayerCount: 2
Fore
SplineSet
239 -11 m 0
 159 -11 118 49 118 109 c 0
 118 169 158 229 239 229 c 0
 320 229 360 169 360 109 c 0
 360 49 320 -11 239 -11 c 0
EndSplineSet
EndChar

StartChar: slash
Encoding: 47 47 34
Width: 898
Flags: W
LayerCount: 2
Fore
SplineSet
68 -198 m 1
 683 1334 l 1
 816 1334 l 1
 199 -198 l 1
 68 -198 l 1
EndSplineSet
EndChar

StartChar: zero
Encoding: 48 48 35
Width: 1145
Flags: W
LayerCount: 2
Fore
SplineSet
576 -18 m 0
 245 -18 107 275 107 674 c 0
 107 1092 258 1366 576 1366 c 0
 894 1366 1038 1092 1038 674 c 0
 1038 275 907 -18 576 -18 c 0
576 120 m 0
 765 120 863 309 863 680 c 0
 863 1056 765 1228 576 1228 c 0
 387 1228 282 1033 282 680 c 0
 282 309 387 120 576 120 c 0
EndSplineSet
EndChar

StartChar: one
Encoding: 49 49 36
Width: 975
Flags: W
LayerCount: 2
Fore
SplineSet
870 0 m 1
 144 0 l 1
 144 140 l 1
 449 140 l 1
 449 1193 l 1
 377 1146 268 1106 173 1100 c 1
 173 1242 l 1
 253 1248 393 1310 465 1361 c 1
 610 1361 l 1
 610 140 l 1
 870 140 l 1
 870 0 l 1
EndSplineSet
EndChar

StartChar: two
Encoding: 50 50 37
Width: 1036
Flags: W
LayerCount: 2
Fore
SplineSet
108 0 m 1
 88 149 l 1
 560 648 l 2
 669 764 735 841 735 985 c 0
 735 1135 648 1223 493 1223 c 0
 379 1223 280 1198 159 1111 c 1
 107 1247 l 1
 210 1321 321 1366 498 1366 c 0
 746 1366 910 1220 910 996 c 0
 910 809 815 696 664 539 c 2
 280 140 l 1
 915 140 l 1
 905 0 l 1
 108 0 l 1
EndSplineSet
EndChar

StartChar: three
Encoding: 51 51 38
Width: 1105
Flags: W
LayerCount: 2
Fore
SplineSet
800 371 m 0
 800 602 618 643 388 648 c 1
 344 648 l 1
 344 784 l 1
 389 784 l 1
 580 789 751 821 751 1020 c 0
 751 1170 662 1228 501 1228 c 0
 376 1228 268 1187 196 1130 c 1
 145 1263 l 1
 228 1326 348 1366 536 1366 c 0
 737 1366 926 1258 926 1041 c 0
 926 866 834 762 687 716 c 1
 854 680 959 560 959 369 c 0
 959 126 765 -18 501 -18 c 0
 324 -18 196 37 145 85 c 1
 196 218 l 1
 264 164 365 120 502 120 c 0
 680 120 800 205 800 371 c 0
EndSplineSet
EndChar

StartChar: four
Encoding: 52 52 39
Width: 1138
Flags: W
LayerCount: 2
Fore
SplineSet
732 470 m 1
 732 1155 l 1
 277 470 l 1
 732 470 l 1
715 1361 m 1
 885 1361 l 1
 885 470 l 1
 1052 470 l 1
 1040 338 l 1
 885 338 l 1
 885 0 l 1
 732 0 l 1
 732 338 l 1
 117 338 l 1
 117 477 l 1
 715 1361 l 1
EndSplineSet
EndChar

StartChar: five
Encoding: 53 53 40
Width: 1043
Flags: W
LayerCount: 2
Fore
SplineSet
474 -21 m 0
 315 -21 190 30 109 104 c 1
 168 232 l 1
 226 186 329 126 480 126 c 0
 682 126 792 254 792 432 c 0
 792 589 697 706 512 706 c 0
 426 706 352 679 295 616 c 1
 169 633 l 1
 204 1361 l 1
 902 1361 l 1
 889 1212 l 1
 333 1212 l 1
 328 1080 324 916 320 784 c 1
 393 830 467 849 543 849 c 0
 819 849 957 665 957 434 c 0
 957 162 781 -21 474 -21 c 0
EndSplineSet
EndChar

StartChar: six
Encoding: 54 54 41
Width: 1172
Flags: W
LayerCount: 2
Fore
SplineSet
580 120 m 0
 767 120 868 252 868 409 c 0
 868 576 778 705 594 705 c 0
 392 705 290 572 290 415 c 0
 290 258 393 120 580 120 c 0
585 -18 m 0
 294 -18 132 187 132 433 c 0
 132 638 201 765 383 994 c 0
 460 1092 678 1346 678 1346 c 1
 886 1346 l 1
 404 776 l 1
 462 807 558 841 631 841 c 0
 860 841 1040 663 1040 412 c 0
 1040 169 863 -18 585 -18 c 0
EndSplineSet
EndChar

StartChar: seven
Encoding: 55 55 42
Width: 984
Flags: W
LayerCount: 2
Fore
SplineSet
888 1361 m 1
 888 1238 l 1
 401 0 l 1
 236 0 l 1
 703 1220 l 1
 119 1220 l 1
 109 1361 l 1
 888 1361 l 1
EndSplineSet
EndChar

StartChar: eight
Encoding: 56 56 43
Width: 1157
Flags: W
LayerCount: 2
Fore
SplineSet
578 760 m 1
 745 797 831 891 831 1034 c 0
 831 1163 713 1228 578 1228 c 0
 444 1228 322 1163 322 1034 c 0
 322 891 412 797 578 760 c 1
578 120 m 0
 741 120 860 208 860 358 c 0
 860 506 741 602 578 638 c 1
 416 602 293 506 293 358 c 0
 293 208 416 120 578 120 c 0
578 -18 m 0
 336 -18 134 108 134 347 c 0
 134 520 240 650 416 707 c 1
 260 762 162 867 162 1031 c 0
 162 1247 338 1366 578 1366 c 0
 818 1366 991 1247 991 1031 c 0
 991 867 900 762 758 707 c 1
 920 650 1020 520 1020 347 c 0
 1020 108 821 -18 578 -18 c 0
EndSplineSet
EndChar

StartChar: nine
Encoding: 57 57 44
Width: 1156
Flags: W
LayerCount: 2
Fore
SplineSet
581 672 m 0
 779 672 856 798 856 952 c 0
 856 1107 770 1229 587 1229 c 0
 404 1229 299 1102 299 947 c 0
 299 783 401 672 581 672 c 0
472 0 m 1
 276 0 l 1
 749 591 l 1
 693 561 620 537 549 537 c 0
 324 537 131 698 131 944 c 0
 131 1183 309 1367 581 1367 c 0
 866 1367 1024 1176 1024 934 c 0
 1024 757 968 639 831 453 c 1
 744 338 472 0 472 0 c 1
EndSplineSet
EndChar

StartChar: colon
Encoding: 58 58 45
Width: 435
Flags: W
LayerCount: 2
Fore
SplineSet
125 813 m 1
 125 1023 l 1
 312 1023 l 1
 312 813 l 1
 125 813 l 1
125 -23 m 1
 125 189 l 1
 312 189 l 1
 312 -23 l 1
 125 -23 l 1
EndSplineSet
EndChar

StartChar: semicolon
Encoding: 59 59 46
Width: 451
Flags: W
LayerCount: 2
Fore
SplineSet
142 813 m 1
 142 1023 l 1
 329 1023 l 1
 329 813 l 1
 142 813 l 1
109 -282 m 1
 160 179 l 1
 326 179 l 1
 212 -282 l 1
 109 -282 l 1
EndSplineSet
EndChar

StartChar: less
Encoding: 60 60 47
Width: 1094
Flags: W
LayerCount: 2
Fore
SplineSet
976 944 m 1
 270 599 l 1
 974 277 l 1
 974 133 l 1
 102 551 l 1
 102 639 l 1
 976 1087 l 1
 976 944 l 1
EndSplineSet
EndChar

StartChar: equal
Encoding: 61 61 48
Width: 1114
Flags: W
LayerCount: 2
Fore
SplineSet
116 727 m 1
 116 858 l 1
 996 858 l 1
 996 727 l 1
 116 727 l 1
117 343 m 1
 117 472 l 1
 996 472 l 1
 996 343 l 1
 117 343 l 1
EndSplineSet
EndChar

StartChar: greater
Encoding: 62 62 49
Width: 1102
Flags: W
LayerCount: 2
Fore
SplineSet
123 1092 m 1
 995 638 l 1
 995 550 l 1
 121 138 l 1
 121 283 l 1
 825 599 l 1
 123 950 l 1
 123 1092 l 1
EndSplineSet
EndChar

StartChar: question
Encoding: 63 63 50
Width: 819
Flags: W
LayerCount: 2
Fore
SplineSet
359 -11 m 0
 279 -11 238 49 238 109 c 0
 238 169 279 229 359 229 c 0
 440 229 480 169 480 109 c 0
 480 49 440 -11 359 -11 c 0
386 396 m 1
 307 396 l 1
 307 608 566 900 566 1079 c 1
 564 1199 482 1249 361 1249 c 0
 252 1249 170 1203 126 1176 c 1
 85 1299 l 1
 167 1364 285 1387 386 1387 c 0
 577 1387 714 1281 714 1092 c 0
 714 844 522 701 386 396 c 1
EndSplineSet
EndChar

StartChar: at
Encoding: 64 64 51
Width: 1634
Flags: W
LayerCount: 2
Fore
SplineSet
757 360 m 0
 893 360 950 487 972 664 c 0
 981 732 989 803 996 872 c 1
 962 884 907 890 863 890 c 0
 690 890 611 737 611 554 c 0
 611 438 656 360 757 360 c 0
797 -119 m 0
 376 -119 93 148 93 587 c 0
 93 1025 408 1358 857 1358 c 0
 1246 1358 1542 1106 1542 713 c 0
 1542 418 1353 236 1166 236 c 0
 1069 236 998 292 984 391 c 1
 943 333 858 244 740 244 c 0
 583 244 481 365 481 561 c 0
 481 802 616 1000 862 1000 c 0
 948 1000 1061 976 1138 950 c 1
 1113 770 1079 586 1079 476 c 0
 1079 388 1114 347 1180 347 c 0
 1297 347 1422 508 1422 720 c 0
 1422 1048 1181 1245 849 1245 c 0
 477 1245 215 969 215 591 c 0
 215 215 449 -5 798 -5 c 0
 945 -5 1085 30 1204 98 c 1
 1236 -3 l 1
 1121 -80 968 -119 797 -119 c 0
EndSplineSet
EndChar

StartChar: A
Encoding: 65 65 52
Width: 1379
Flags: W
LayerCount: 2
Fore
SplineSet
85 0 m 1
 589 1390 l 1
 791 1390 l 1
 1294 0 l 1
 1126 0 l 1
 967 430 l 1
 423 430 l 1
 263 0 l 1
 85 0 l 1
474 561 m 1
 918 561 l 1
 689 1223 l 1
 474 561 l 1
EndSplineSet
EndChar

StartChar: B
Encoding: 66 66 53
Width: 1295
Flags: W
LayerCount: 2
Fore
SplineSet
375 797 m 1
 668 797 l 2
 845 797 959 854 959 1031 c 0
 959 1208 831 1257 599 1257 c 2
 375 1257 l 1
 375 797 l 1
375 129 m 1
 661 129 l 2
 892 129 1010 239 1010 419 c 0
 1010 611 878 671 623 671 c 2
 375 671 l 1
 375 129 l 1
214 0 m 1
 214 1390 l 1
 607 1390 l 2
 955 1390 1127 1289 1127 1055 c 0
 1127 989 1110 809 897 743 c 1
 1088 708 1178 574 1178 413 c 0
 1178 175 1020 0 693 0 c 2
 214 0 l 1
EndSplineSet
EndChar

StartChar: C
Encoding: 67 67 54
Width: 1306
Flags: W
LayerCount: 2
Fore
SplineSet
777 -18 m 0
 361 -2 137 310 137 725 c 0
 137 1130 383 1413 795 1413 c 0
 957 1413 1084 1377 1185 1313 c 1
 1131 1189 l 1
 1040 1243 919 1275 797 1275 c 0
 480 1275 309 1038 309 719 c 0
 309 401 448 129 813 120 c 0
 930 117 1040 149 1139 196 c 1
 1165 68 l 1
 1100 28 948 -25 777 -18 c 0
EndSplineSet
EndChar

StartChar: D
Encoding: 68 68 55
Width: 1480
Flags: W
LayerCount: 2
Fore
SplineSet
214 0 m 1
 214 1390 l 1
 594 1390 l 2
 1044 1390 1343 1166 1343 698 c 0
 1343 253 1070 0 622 0 c 2
 214 0 l 1
392 1252 m 1
 392 137 l 1
 617 137 l 2
 975 137 1165 340 1165 694 c 0
 1165 1082 955 1252 590 1252 c 2
 392 1252 l 1
EndSplineSet
EndChar

StartChar: E
Encoding: 69 69 56
Width: 1192
Flags: W
LayerCount: 2
Fore
SplineSet
392 1251 m 1
 392 790 l 1
 982 790 l 1
 982 653 l 1
 392 653 l 1
 392 139 l 1
 1058 139 l 1
 1050 0 l 1
 214 0 l 1
 214 1390 l 1
 1037 1390 l 1
 1030 1251 l 1
 392 1251 l 1
EndSplineSet
EndChar

StartChar: F
Encoding: 70 70 57
Width: 1088
Flags: W
LayerCount: 2
Fore
SplineSet
393 1251 m 1
 393 790 l 1
 934 790 l 1
 934 657 l 1
 393 657 l 1
 393 0 l 1
 214 0 l 1
 214 1390 l 1
 990 1390 l 1
 979 1251 l 1
 393 1251 l 1
EndSplineSet
EndChar

StartChar: G
Encoding: 71 71 58
Width: 1476
Flags: W
LayerCount: 2
Fore
SplineSet
802 -18 m 0
 342 -18 137 291 137 692 c 0
 137 1098 353 1413 834 1413 c 0
 995 1413 1163 1380 1276 1307 c 1
 1226 1185 l 1
 1182 1208 1055 1275 834 1275 c 0
 459 1275 315 1011 315 692 c 0
 315 361 462 120 812 120 c 0
 917 120 1071 131 1129 147 c 1
 1129 579 l 1
 800 579 l 1
 808 716 l 1
 1307 716 l 1
 1307 59 l 1
 1164 4 990 -18 802 -18 c 0
EndSplineSet
EndChar

StartChar: H
Encoding: 72 72 59
Width: 1507
Flags: W
LayerCount: 2
Fore
SplineSet
392 766 m 1
 1115 766 l 1
 1115 1390 l 1
 1293 1390 l 1
 1293 0 l 1
 1115 0 l 1
 1115 634 l 1
 392 634 l 1
 392 0 l 1
 214 0 l 1
 214 1390 l 1
 392 1390 l 1
 392 766 l 1
EndSplineSet
EndChar

StartChar: I
Encoding: 73 73 60
Width: 607
Flags: W
LayerCount: 2
Fore
SplineSet
214 0 m 1
 214 1390 l 1
 393 1390 l 1
 393 0 l 1
 214 0 l 1
EndSplineSet
EndChar

StartChar: J
Encoding: 74 74 61
Width: 741
Flags: W
LayerCount: 2
Fore
SplineSet
121 -192 m 1
 107 -45 l 1
 345 -45 349 51 349 186 c 2
 349 1408 l 1
 527 1408 l 1
 527 219 l 2
 527 -61 480 -192 121 -192 c 1
EndSplineSet
EndChar

StartChar: K
Encoding: 75 75 62
Width: 1302
Flags: W
LayerCount: 2
Fore
SplineSet
993 1389 m 1
 1217 1389 l 1
 639 763 l 1
 1264 0 l 1
 1055 0 l 1
 509 689 l 1
 392 585 l 1
 392 0 l 1
 214 0 l 1
 214 1389 l 1
 392 1389 l 1
 392 746 l 1
 993 1389 l 1
EndSplineSet
EndChar

StartChar: L
Encoding: 76 76 63
Width: 1055
Flags: W
LayerCount: 2
Fore
SplineSet
981 140 m 1
 974 0 l 1
 214 0 l 1
 214 1390 l 1
 393 1390 l 1
 393 140 l 1
 981 140 l 1
EndSplineSet
EndChar

StartChar: M
Encoding: 77 77 64
Width: 1735
Flags: W
LayerCount: 2
Fore
SplineSet
1314 1390 m 1
 1521 1390 l 1
 1521 0 l 1
 1366 0 l 1
 1366 843 l 1
 1373 1163 l 1
 947 108 l 1
 789 108 l 1
 358 1167 l 1
 369 839 l 1
 369 0 l 1
 214 0 l 1
 214 1390 l 1
 427 1390 l 1
 868 305 l 1
 1314 1390 l 1
EndSplineSet
EndChar

StartChar: N
Encoding: 78 78 65
Width: 1557
Flags: W
LayerCount: 2
Fore
SplineSet
1192 208 m 1
 1187 555 l 1
 1187 1390 l 1
 1343 1390 l 1
 1343 0 l 1
 1160 0 l 1
 365 1181 l 1
 370 830 l 1
 370 0 l 1
 214 0 l 1
 214 1390 l 1
 393 1390 l 1
 1192 208 l 1
EndSplineSet
EndChar

StartChar: O
Encoding: 79 79 66
Width: 1581
Flags: W
LayerCount: 2
Fore
SplineSet
791 120 m 0
 1115 120 1265 379 1265 697 c 0
 1265 1027 1109 1275 792 1275 c 0
 475 1275 316 1028 316 697 c 0
 316 379 467 120 791 120 c 0
1444 697 m 0
 1444 287 1209 -18 791 -18 c 0
 368 -18 137 281 137 698 c 0
 137 1125 376 1413 792 1413 c 0
 1201 1413 1444 1122 1444 697 c 0
EndSplineSet
EndChar

StartChar: P
Encoding: 80 80 67
Width: 1238
Flags: W
LayerCount: 2
Fore
SplineSet
651 744 m 0
 875 744 943 840 943 1020 c 0
 943 1182 831 1253 660 1253 c 2
 393 1253 l 1
 393 746 l 1
 393 746 588 744 651 744 c 0
214 0 m 1
 214 1390 l 1
 664 1390 l 2
 927 1390 1122 1268 1122 1023 c 0
 1122 770 987 613 643 613 c 0
 570 613 463 612 393 616 c 1
 393 0 l 1
 214 0 l 1
EndSplineSet
EndChar

StartChar: Q
Encoding: 81 81 68
Width: 1581
Flags: W
LayerCount: 2
Fore
SplineSet
1289 -318 m 1
 1186 -421 l 1
 1150 -386 963 -164 885 -7 c 1
 1035 23 l 1
 1056 -11 1179 -211 1289 -318 c 1
791 120 m 0
 1115 120 1265 379 1265 697 c 0
 1265 1027 1109 1275 792 1275 c 0
 475 1275 316 1028 316 697 c 0
 316 379 467 120 791 120 c 0
1444 697 m 0
 1444 287 1209 -18 791 -18 c 0
 368 -18 137 281 137 698 c 0
 137 1125 376 1413 792 1413 c 0
 1201 1413 1444 1122 1444 697 c 0
EndSplineSet
EndChar

StartChar: R
Encoding: 82 82 69
Width: 1416
Flags: W
LayerCount: 2
Fore
SplineSet
214 0 m 1
 214 1390 l 1
 717 1390 l 2
 1047 1390 1234 1323 1234 1040 c 0
 1234 872 1185 755 989 700 c 1
 989 695 1046 585 1078 517 c 1
 1298 0 l 1
 1112 0 l 1
 927 464 l 1
 891 544 858 618 829 664 c 1
 802 662 700 659 668 659 c 0
 651 659 393 661 393 661 c 1
 393 0 l 1
 214 0 l 1
752 799 m 2
 997 799 1057 878 1057 1038 c 0
 1057 1180 987 1252 744 1252 c 2
 393 1252 l 1
 393 799 l 1
 752 799 l 2
EndSplineSet
EndChar

StartChar: S
Encoding: 83 83 70
Width: 1243
Flags: W
LayerCount: 2
Fore
SplineSet
638 -18 m 0
 412 -18 251 59 172 110 c 1
 227 238 l 1
 339 172 472 120 638 120 c 0
 818 120 938 204 938 369 c 0
 938 492 863 565 695 624 c 2
 466 704 l 1
 290 760 174 871 174 1051 c 0
 174 1316 392 1413 649 1413 c 0
 808 1413 950 1356 1038 1298 c 1
 983 1173 l 1
 919 1212 796 1275 655 1275 c 0
 483 1275 333 1215 333 1062 c 0
 333 956 400 886 523 848 c 1
 740 772 l 1
 937 711 1093 612 1093 376 c 0
 1093 105 899 -18 638 -18 c 0
EndSplineSet
EndChar

StartChar: T
Encoding: 84 84 71
Width: 1160
Flags: W
LayerCount: 2
Fore
SplineSet
1085 1390 m 1
 1085 1251 l 1
 669 1251 l 1
 669 0 l 1
 490 0 l 1
 490 1251 l 1
 75 1251 l 1
 75 1390 l 1
 1085 1390 l 1
EndSplineSet
EndChar

StartChar: U
Encoding: 85 85 72
Width: 1401
Flags: W
LayerCount: 2
Fore
SplineSet
700 -18 m 0
 335 -18 169 196 169 495 c 2
 169 1390 l 1
 346 1390 l 1
 346 492 l 2
 346 248 454 120 700 120 c 0
 940 120 1055 248 1055 492 c 2
 1055 1390 l 1
 1232 1390 l 1
 1232 493 l 2
 1232 195 1065 -18 700 -18 c 0
EndSplineSet
EndChar

StartChar: V
Encoding: 86 86 73
Width: 1344
Flags: W
LayerCount: 2
Fore
SplineSet
756 0 m 1
 588 0 l 1
 78 1390 l 1
 264 1390 l 1
 569 492 l 1
 672 197 l 1
 776 495 l 1
 1082 1390 l 1
 1266 1390 l 1
 756 0 l 1
EndSplineSet
EndChar

StartChar: W
Encoding: 87 87 74
Width: 2044
Flags: W
LayerCount: 2
Fore
SplineSet
932 1365 m 1
 1114 1365 l 1
 1444 221 l 1
 1780 1390 l 1
 1957 1390 l 1
 1542 0 l 1
 1357 0 l 1
 1030 1160 l 1
 681 0 l 1
 499 0 l 1
 87 1390 l 1
 265 1390 l 1
 594 222 l 1
 932 1365 l 1
EndSplineSet
EndChar

StartChar: X
Encoding: 88 88 75
Width: 1265
Flags: W
LayerCount: 2
Fore
SplineSet
725 709 m 1
 1190 0 l 1
 1004 0 l 1
 632 572 l 1
 261 0 l 1
 75 0 l 1
 539 709 l 1
 75 1390 l 1
 261 1390 l 1
 632 846 l 1
 1004 1390 l 1
 1190 1390 l 1
 725 709 l 1
EndSplineSet
EndChar

StartChar: Y
Encoding: 89 89 76
Width: 1309
Flags: W
LayerCount: 2
Fore
SplineSet
668 723 m 1
 1055 1390 l 1
 1233 1390 l 1
 758 577 l 1
 758 0 l 1
 580 0 l 1
 580 573 l 1
 76 1390 l 1
 254 1390 l 1
 668 723 l 1
EndSplineSet
EndChar

StartChar: Z
Encoding: 90 90 77
Width: 1234
Flags: W
LayerCount: 2
Fore
SplineSet
182 1390 m 1
 1094 1390 l 1
 1094 1272 l 1
 356 138 l 1
 1101 138 l 1
 1095 0 l 1
 155 0 l 1
 155 124 l 1
 889 1252 l 1
 182 1252 l 1
 182 1390 l 1
EndSplineSet
EndChar

StartChar: bracketleft
Encoding: 91 91 78
Width: 643
Flags: W
LayerCount: 2
Fore
SplineSet
294 1229 m 1
 294 -147 l 1
 549 -147 l 1
 549 -267 l 1
 136 -267 l 1
 136 1350 l 1
 549 1350 l 1
 549 1229 l 1
 294 1229 l 1
EndSplineSet
EndChar

StartChar: backslash
Encoding: 92 92 79
Width: 850
Flags: W
LayerCount: 2
Fore
SplineSet
625 -55 m 1
 80 1332 l 1
 222 1332 l 1
 767 -55 l 1
 625 -55 l 1
EndSplineSet
EndChar

StartChar: bracketright
Encoding: 93 93 80
Width: 645
Flags: W
LayerCount: 2
Fore
SplineSet
96 1229 m 1
 96 1350 l 1
 509 1350 l 1
 509 -267 l 1
 96 -267 l 1
 96 -147 l 1
 351 -147 l 1
 351 1229 l 1
 96 1229 l 1
EndSplineSet
EndChar

StartChar: asciicircum
Encoding: 94 94 81
Width: 1143
Flags: W
LayerCount: 2
Fore
SplineSet
109 536 m 1
 514 1380 l 1
 607 1380 l 1
 1035 536 l 1
 905 536 l 1
 561 1215 l 1
 241 536 l 1
 109 536 l 1
EndSplineSet
EndChar

StartChar: underscore
Encoding: 95 95 82
Width: 1009
Flags: W
LayerCount: 2
Fore
SplineSet
78 -277 m 1
 78 -155 l 1
 933 -155 l 1
 933 -277 l 1
 78 -277 l 1
EndSplineSet
EndChar

StartChar: grave
Encoding: 96 96 83
Width: 585
Flags: W
LayerCount: 2
Fore
SplineSet
371 1138 m 1
 77 1491 l 1
 305 1491 l 1
 473 1138 l 1
 371 1138 l 1
EndSplineSet
EndChar

StartChar: a
Encoding: 97 97 84
Width: 1116
Flags: W
LayerCount: 2
Fore
SplineSet
468 102 m 2
 467 102 l 2
 588 102 742 165 774 251 c 1
 774 490 l 1
 774 490 681 481 658 478 c 0
 397 447 308 402 308 262 c 0
 308 152 385 102 468 102 c 2
444 -21 m 2
 443 -21 l 2
 267 -21 132 79 132 263 c 0
 132 478 312 562 597 583 c 0
 643 587 772 597 772 597 c 1
 772 685 l 2
 772 823 702 886 559 886 c 0
 463 886 326 858 232 812 c 1
 224 831 192 916 185 935 c 1
 271 983 426 1019 555 1019 c 0
 799 1019 947 927 947 661 c 2
 947 0 l 1
 806 0 l 1
 779 112 l 1
 718 22 578 -21 444 -21 c 2
EndSplineSet
EndChar

StartChar: b
Encoding: 98 98 85
Width: 1239
Flags: W
LayerCount: 2
Fore
SplineSet
652 108 m 0
 846 108 942 265 942 499 c 0
 942 738 842 891 651 891 c 0
 436 891 360 741 360 482 c 0
 360 252 446 108 652 108 c 0
678 -21 m 0
 541 -21 415 45 360 163 c 1
 343 0 l 1
 185 0 l 1
 185 1395 l 1
 360 1409 l 1
 360 1053 l 2
 360 991 359 928 355 862 c 1
 421 955 547 1019 679 1019 c 0
 939 1019 1117 802 1117 504 c 0
 1117 198 957 -21 678 -21 c 0
EndSplineSet
EndChar

StartChar: c
Encoding: 99 99 86
Width: 985
Flags: W
LayerCount: 2
Fore
SplineSet
600 -21 m 0
 319 -21 122 195 122 496 c 0
 122 810 326 1019 606 1019 c 0
 711 1019 822 990 877 950 c 1
 835 832 l 1
 764 870 695 886 629 886 c 0
 419 886 296 733 296 495 c 0
 296 265 415 112 629 112 c 0
 715 112 776 138 848 175 c 1
 871 51 l 1
 805 3 700 -21 600 -21 c 0
EndSplineSet
EndChar

StartChar: d
Encoding: 100 100 87
Width: 1239
Flags: W
LayerCount: 2
Fore
SplineSet
587 108 m 0
 793 108 879 252 879 482 c 0
 879 741 803 891 588 891 c 0
 397 891 296 738 296 499 c 0
 296 265 393 108 587 108 c 0
560 -21 m 0
 281 -21 122 198 122 504 c 0
 122 807 299 1019 559 1019 c 0
 691 1019 817 955 883 862 c 1
 879 928 879 991 879 1053 c 2
 879 1395 l 1
 1054 1409 l 1
 1054 0 l 1
 896 0 l 1
 879 163 l 1
 824 45 697 -21 560 -21 c 0
EndSplineSet
EndChar

StartChar: e
Encoding: 101 101 88
Width: 1128
Flags: W
LayerCount: 2
Fore
SplineSet
616 -21 m 0
 327 -21 122 176 122 496 c 0
 122 805 334 1019 597 1019 c 0
 854 1019 997 832 997 553 c 0
 997 530 991 469 991 469 c 1
 294 469 l 1
 298 240 451 112 641 112 c 0
 766 112 863 151 951 197 c 1
 975 65 l 1
 879 7 765 -21 616 -21 c 0
298 582 m 1
 833 582 l 1
 828 779 763 888 602 888 c 0
 446 888 315 772 298 582 c 1
EndSplineSet
EndChar

StartChar: f
Encoding: 102 102 89
Width: 769
Flags: W
LayerCount: 2
Fore
SplineSet
266 0 m 1
 266 886 l 1
 59 886 l 1
 64 981 l 1
 266 998 l 1
 266 1061 l 2
 266 1318 380 1410 558 1410 c 0
 603 1410 698 1398 716 1394 c 1
 704 1263 l 1
 679 1267 634 1273 598 1273 c 0
 496 1273 441 1230 441 1055 c 2
 441 998 l 1
 674 998 l 1
 674 886 l 1
 441 886 l 1
 441 0 l 1
 266 0 l 1
EndSplineSet
EndChar

StartChar: g
Encoding: 103 103 90
Width: 1233
Flags: W
LayerCount: 2
Fore
SplineSet
543 -425 m 0
 424 -425 326 -400 286 -390 c 1
 297 -262 l 1
 337 -273 429 -291 530 -291 c 0
 774 -291 879 -199 879 73 c 2
 879 191 l 1
 832 73 727 0 569 0 c 0
 273 0 122 249 122 496 c 0
 122 780 267 1019 572 1019 c 0
 705 1019 807 968 883 865 c 1
 895 998 l 1
 1054 998 l 1
 1054 148 l 2
 1054 -187 952 -425 543 -425 c 0
582 130 m 0
 797 130 879 291 879 470 c 2
 879 543 l 2
 879 732 793 891 586 891 c 0
 369 891 296 677 296 504 c 0
 296 333 375 130 582 130 c 0
EndSplineSet
EndChar

StartChar: h
Encoding: 104 104 91
Width: 1166
Flags: W
LayerCount: 2
Fore
SplineSet
185 1395 m 1
 360 1409 l 1
 360 864 l 1
 418 963 529 1019 667 1019 c 0
 897 1019 1001 880 1001 612 c 2
 1001 0 l 1
 826 0 l 1
 826 623 l 2
 826 788 790 889 637 889 c 0
 421 889 360 752 360 546 c 2
 360 0 l 1
 185 0 l 1
 185 1395 l 1
EndSplineSet
EndChar

StartChar: i
Encoding: 105 105 92
Width: 524
Flags: W
LayerCount: 2
Fore
SplineSet
185 1181 m 1
 185 1361 l 1
 359 1361 l 1
 359 1181 l 1
 185 1181 l 1
185 0 m 1
 185 998 l 1
 359 998 l 1
 359 0 l 1
 185 0 l 1
EndSplineSet
EndChar

StartChar: j
Encoding: 106 106 93
Width: 622
Flags: W
LayerCount: 2
Fore
SplineSet
86 -398 m 1
 66 -257 l 1
 114 -257 l 2
 249 -257 263 -215 263 -127 c 2
 262 998 l 1
 437 998 l 1
 437 -68 l 2
 437 -312 382 -398 134 -398 c 2
 86 -398 l 1
262 1181 m 1
 262 1361 l 1
 437 1361 l 1
 437 1181 l 1
 262 1181 l 1
EndSplineSet
EndChar

StartChar: k
Encoding: 107 107 94
Width: 1091
Flags: W
LayerCount: 2
Fore
SplineSet
185 1395 m 1
 360 1409 l 1
 360 515 l 1
 827 998 l 1
 1042 998 l 1
 596 535 l 1
 1049 0 l 1
 853 0 l 1
 471 459 l 1
 360 363 l 1
 360 0 l 1
 185 0 l 1
 185 1395 l 1
EndSplineSet
EndChar

StartChar: l
Encoding: 108 108 95
Width: 642
Flags: W
LayerCount: 2
Fore
SplineSet
419 -18 m 0
 262 -18 189 45 189 305 c 2
 189 1395 l 1
 364 1409 l 1
 364 345 l 2
 364 153 379 116 454 116 c 2
 518 116 l 1
 529 -9 l 1
 481 -16 445 -18 419 -18 c 0
EndSplineSet
EndChar

StartChar: m
Encoding: 109 109 96
Width: 1749
Flags: W
LayerCount: 2
Fore
SplineSet
356 525 m 2
 356 0 l 1
 187 0 l 1
 187 0 185 936 185 998 c 1
 330 998 l 1
 348 855 l 1
 400 939 500 1019 643 1019 c 0
 826 1019 906 918 933 840 c 1
 1002 960 1119 1019 1254 1019 c 0
 1466 1019 1584 886 1584 642 c 2
 1584 0 l 1
 1415 0 l 1
 1415 520 l 2
 1415 734 1396 889 1229 889 c 0
 1042 889 972 751 972 535 c 2
 972 0 l 1
 803 0 l 1
 803 563 l 2
 803 787 758 889 620 889 c 0
 413 889 356 738 356 525 c 2
EndSplineSet
EndChar

StartChar: n
Encoding: 110 110 97
Width: 1189
Flags: W
LayerCount: 2
Fore
SplineSet
185 0 m 1
 185 998 l 1
 334 998 l 1
 353 855 l 1
 425 963 536 1019 679 1019 c 0
 909 1019 1024 880 1024 612 c 2
 1024 0 l 1
 849 0 l 1
 849 623 l 2
 849 788 798 889 645 889 c 0
 429 889 360 752 360 546 c 2
 360 0 l 1
 185 0 l 1
EndSplineSet
EndChar

StartChar: o
Encoding: 111 111 98
Width: 1176
Flags: W
LayerCount: 2
Fore
SplineSet
588 112 m 0
 795 112 879 279 879 497 c 0
 879 719 794 886 588 886 c 0
 382 886 296 719 296 497 c 0
 296 279 381 112 588 112 c 0
588 -21 m 0
 303 -21 122 200 122 499 c 0
 122 804 293 1019 588 1019 c 0
 883 1019 1054 804 1054 499 c 0
 1054 200 873 -21 588 -21 c 0
EndSplineSet
EndChar

StartChar: p
Encoding: 112 112 99
Width: 1239
Flags: W
LayerCount: 2
Fore
SplineSet
655 107 m 0
 846 107 942 261 942 500 c 0
 942 734 850 890 656 890 c 0
 450 890 360 746 360 516 c 0
 360 257 468 107 655 107 c 0
185 998 m 1
 343 998 l 1
 360 835 l 1
 417 956 551 1019 688 1019 c 0
 967 1019 1117 800 1117 494 c 0
 1117 196 949 -21 679 -21 c 0
 547 -21 411 48 355 154 c 1
 359 88 360 7 360 -55 c 2
 360 -423 l 1
 185 -433 l 1
 185 998 l 1
EndSplineSet
EndChar

StartChar: q
Encoding: 113 113 100
Width: 1238
Flags: W
LayerCount: 2
Fore
SplineSet
587 107 m 0
 802 107 879 257 879 516 c 0
 879 746 793 890 587 890 c 0
 393 890 296 734 296 500 c 0
 296 261 396 107 587 107 c 0
1053 998 m 1
 1053 -423 l 1
 879 -433 l 1
 879 -55 l 2
 879 7 879 70 883 136 c 1
 817 43 691 -21 559 -21 c 0
 299 -21 122 196 122 494 c 0
 122 800 281 1019 560 1019 c 0
 697 1019 824 953 879 835 c 1
 896 998 l 1
 1053 998 l 1
EndSplineSet
EndChar

StartChar: r
Encoding: 114 114 101
Width: 786
Flags: W
LayerCount: 2
Fore
SplineSet
185 998 m 1
 334 998 l 1
 348 819 l 1
 414 928 526 1007 650 1007 c 0
 677 1007 702 1006 725 1002 c 1
 719 862 l 1
 693 867 669 869 647 869 c 0
 473 869 360 732 360 561 c 2
 360 0 l 1
 185 0 l 1
 185 998 l 1
EndSplineSet
EndChar

StartChar: s
Encoding: 115 115 102
Width: 909
Flags: W
LayerCount: 2
Fore
SplineSet
455 -21 m 0
 312 -21 203 5 137 48 c 1
 169 168 l 1
 235 133 328 98 447 98 c 0
 586 98 666 154 666 254 c 0
 666 342 626 373 443 439 c 1
 375 465 l 1
 198 530 131 620 130 745 c 1
 130 896 247 1019 473 1019 c 0
 591 1019 681 996 770 954 c 1
 732 845 l 1
 655 877 576 899 480 899 c 0
 354 899 281 836 281 751 c 0
 281 672 322 649 465 593 c 2
 529 568 l 2
 727 491 808 420 808 269 c 1
 805 82 673 -21 455 -21 c 0
EndSplineSet
EndChar

StartChar: t
Encoding: 116 116 103
Width: 858
Flags: W
LayerCount: 2
Fore
SplineSet
557 -18 m 0
 357 -18 260 104 260 313 c 2
 260 885 l 1
 112 885 l 1
 118 986 l 1
 259 998 l 1
 311 1227 l 1
 435 1230 l 1
 435 998 l 1
 726 998 l 1
 726 885 l 1
 435 885 l 1
 435 313 l 2
 435 160 475 114 586 114 c 0
 621 114 677 122 722 139 c 1
 749 13 l 1
 687 -13 596 -18 557 -18 c 0
EndSplineSet
EndChar

StartChar: u
Encoding: 117 117 104
Width: 1189
Flags: W
LayerCount: 2
Fore
SplineSet
1004 998 m 1
 1004 0 l 1
 856 0 l 1
 837 143 l 1
 783 27 652 -21 509 -21 c 0
 279 -21 165 119 165 387 c 2
 165 998 l 1
 339 998 l 1
 339 375 l 2
 339 210 386 109 539 109 c 0
 754 109 829 247 829 452 c 2
 829 998 l 1
 1004 998 l 1
EndSplineSet
EndChar

StartChar: v
Encoding: 118 118 105
Width: 1076
Flags: W
LayerCount: 2
Fore
SplineSet
453 0 m 1
 61 998 l 1
 242 998 l 1
 544 173 l 1
 835 998 l 1
 1015 998 l 1
 631 0 l 1
 453 0 l 1
EndSplineSet
EndChar

StartChar: w
Encoding: 119 119 106
Width: 1536
Flags: W
LayerCount: 2
Fore
SplineSet
70 998 m 1
 233 998 l 1
 441 190 l 1
 679 998 l 1
 862 998 l 1
 1108 193 l 1
 1306 998 l 1
 1466 998 l 1
 1191 0 l 1
 1032 0 l 1
 771 855 l 1
 518 0 l 1
 351 0 l 1
 70 998 l 1
EndSplineSet
EndChar

StartChar: x
Encoding: 120 120 107
Width: 1043
Flags: W
LayerCount: 2
Fore
SplineSet
520 623 m 1
 787 998 l 1
 979 998 l 1
 618 506 l 1
 988 0 l 1
 802 0 l 1
 520 396 l 1
 239 0 l 1
 55 0 l 1
 421 508 l 1
 69 998 l 1
 253 998 l 1
 520 623 l 1
EndSplineSet
EndChar

StartChar: y
Encoding: 121 121 108
Width: 1066
Flags: W
LayerCount: 2
Fore
SplineSet
113 -412 m 1
 107 -281 l 1
 116 -284 227 -294 252 -294 c 0
 346 -294 409 -268 455 -124 c 0
 468 -84 491 33 491 33 c 1
 53 998 l 1
 241 998 l 1
 572 199 l 1
 826 998 l 1
 1014 998 l 1
 1014 998 617 -127 604 -161 c 0
 527 -365 436 -429 273 -429 c 0
 242 -429 133 -417 113 -412 c 1
EndSplineSet
EndChar

StartChar: z
Encoding: 122 122 109
Width: 910
Flags: W
LayerCount: 2
Fore
SplineSet
137 998 m 1
 797 998 l 1
 797 873 l 1
 295 120 l 1
 814 120 l 1
 814 0 l 1
 116 0 l 1
 116 117 l 1
 627 878 l 1
 137 878 l 1
 137 998 l 1
EndSplineSet
EndChar

StartChar: braceleft
Encoding: 123 123 110
Width: 717
Flags: W
LayerCount: 2
Fore
SplineSet
619 -130 m 1
 619 -256 l 1
 390 -255 298 -155 298 56 c 2
 298 245 l 2
 298 401 273 506 104 506 c 1
 104 638 l 1
 296 641 298 729 298 898 c 2
 298 1119 l 2
 298 1308 412 1400 619 1400 c 1
 619 1275 l 1
 484 1273 449 1217 449 1067 c 2
 449 826 l 2
 449 715 396 639 280 570 c 1
 402 531 449 427 449 318 c 2
 449 76 l 2
 449 -78 485 -128 619 -130 c 1
EndSplineSet
EndChar

StartChar: bar
Encoding: 124 124 111
Width: 488
Flags: W
LayerCount: 2
Fore
SplineSet
178 -276 m 1
 178 1525 l 1
 310 1525 l 1
 310 -276 l 1
 178 -276 l 1
EndSplineSet
EndChar

StartChar: braceright
Encoding: 125 125 112
Width: 726
Flags: W
LayerCount: 2
Fore
SplineSet
101 -256 m 1
 101 -130 l 1
 233 -128 271 -78 271 76 c 2
 271 318 l 2
 271 434 313 490 439 575 c 1
 317 613 271 718 271 826 c 2
 271 1067 l 2
 271 1217 235 1273 101 1275 c 1
 101 1400 l 1
 328 1400 421 1297 421 1087 c 2
 421 898 l 2
 421 741 441 640 617 638 c 1
 617 506 l 1
 447 506 421 401 421 245 c 2
 421 25 l 2
 421 -162 314 -255 101 -256 c 1
EndSplineSet
EndChar

StartChar: asciitilde
Encoding: 126 126 113
Width: 1132
Flags: W
LayerCount: 2
Fore
SplineSet
147 458 m 1
 100 553 l 1
 143 654 224 733 347 733 c 0
 422 733 481 712 571 672 c 0
 658 634 730 600 785 600 c 0
 860 600 932 663 975 742 c 1
 1026 654 l 1
 980 543 899 470 781 470 c 0
 712 470 645 496 567 531 c 0
 475 573 408 603 343 603 c 0
 261 603 189 537 147 458 c 1
EndSplineSet
EndChar

StartChar: dagger
Encoding: 8224 8224 146
Width: 866
Flags: W
LayerCount: 2
Fore
SplineSet
368 1046 m 1
 368 1421 l 1
 486 1421 l 1
 486 1046 l 1
 765 1046 l 1
 765 953 l 1
 486 953 l 1
 486 110 l 1
 368 110 l 1
 368 953 l 1
 96 953 l 1
 96 1046 l 1
 368 1046 l 1
EndSplineSet
EndChar

StartChar: degree
Encoding: 176 176 147
Width: 766
Flags: W
LayerCount: 2
Fore
SplineSet
381 809 m 0
 226 809 98 939 98 1097 c 0
 98 1254 226 1382 381 1382 c 0
 537 1382 665 1254 665 1097 c 0
 665 944 541 809 381 809 c 0
382 919 m 0
 476 919 554 999 554 1097 c 0
 554 1196 476 1273 382 1273 c 0
 289 1273 210 1196 210 1097 c 0
 210 998 288 919 382 919 c 0
EndSplineSet
EndChar

StartChar: cent
Encoding: 162 162 148
Width: 977
Flags: W
LayerCount: 2
Fore
SplineSet
543 282 m 1
 543 1068 l 1
 382 1043 265 883 265 671 c 0
 265 464 374 309 543 282 c 1
543 1 m 1
 543 155 l 1
 263 179 109 411 109 675 c 1
 111 936 273 1172 543 1196 c 1
 543 1361 l 1
 630 1361 l 1
 630 1196 l 1
 728 1190 811 1158 861 1111 c 1
 823 1003 l 1
 761 1045 694 1065 630 1070 c 1
 630 279 l 1
 707 286 775 318 824 353 c 1
 862 244 l 1
 805 191 717 161 630 155 c 1
 630 1 l 1
 543 1 l 1
EndSplineSet
EndChar

StartChar: sterling
Encoding: 163 163 149
Width: 1072
Flags: W
LayerCount: 2
Fore
SplineSet
108 0 m 1
 98 126 l 1
 222 172 266 264 266 409 c 2
 266 620 l 1
 96 620 l 1
 96 742 l 1
 266 742 l 1
 266 829 l 2
 266 1108 329 1368 654 1368 c 0
 790 1368 897 1318 979 1249 c 1
 908 1140 l 1
 828 1201 749 1235 655 1235 c 0
 478 1235 422 1104 422 904 c 2
 422 742 l 1
 795 742 l 1
 795 620 l 1
 422 620 l 1
 422 472 l 2
 422 325 407 213 311 139 c 1
 341 141 368 144 397 144 c 2
 993 144 l 1
 993 0 l 1
 108 0 l 1
EndSplineSet
EndChar

StartChar: section
Encoding: 167 167 150
Width: 927
Flags: W
LayerCount: 2
Fore
SplineSet
481 548 m 1
 533 526 l 1
 605 570 663 626 663 699 c 0
 663 806 552 849 399 905 c 1
 327 874 268 817 268 740 c 0
 268 653 331 607 481 548 c 1
147 1189 m 0
 147 1361 300 1443 523 1443 c 0
 611 1443 681 1425 763 1392 c 1
 755 1347 747 1305 739 1260 c 1
 653 1299 576 1316 499 1316 c 0
 371 1316 291 1279 291 1193 c 0
 291 1117 346 1075 521 1006 c 1
 707 930 802 852 802 718 c 0
 802 610 741 522 656 468 c 1
 741 420 792 355 792 253 c 0
 792 74 637 -26 408 -26 c 0
 299 -26 207 -10 134 27 c 1
 134 168 l 1
 219 124 324 99 410 99 c 0
 562 99 647 156 647 242 c 0
 647 328 582 355 424 420 c 1
 223 497 130 575 130 725 c 0
 130 833 192 918 281 964 c 1
 196 1018 147 1081 147 1189 c 0
EndSplineSet
EndChar

StartChar: bullet
Encoding: 8226 8226 151
Width: 756
Flags: W
LayerCount: 2
Fore
SplineSet
374 378 m 0
 223 378 106 516 106 680 c 0
 106 847 234 988 378 988 c 0
 525 988 646 850 646 685 c 0
 646 518 521 378 374 378 c 0
EndSplineSet
EndChar

StartChar: paragraph
Encoding: 182 182 152
Width: 1043
Flags: W
LayerCount: 2
Fore
SplineSet
557 -144 m 1
 443 -144 l 1
 443 771 l 1
 241 775 97 940 97 1103 c 0
 97 1263 211 1421 505 1421 c 2
 929 1421 l 1
 929 1301 l 1
 861 1301 l 1
 861 -144 l 1
 756 -144 l 1
 756 1301 l 1
 557 1301 l 1
 557 -144 l 1
EndSplineSet
EndChar

StartChar: germandbls
Encoding: 223 223 153
Width: 1103
Flags: W
LayerCount: 2
Fore
SplineSet
302 0 m 1
 149 0 l 1
 149 952 l 2
 149 1222 279 1388 559 1388 c 0
 787 1388 895 1273 895 1076 c 0
 895 903 718 792 718 699 c 0
 718 588 1015 548 1048 317 c 0
 1050 300 1052 284 1052 268 c 0
 1052 103 928 -18 748 -18 c 0
 617 -18 493 22 436 56 c 1
 490 187 l 1
 548 156 657 116 734 116 c 0
 832 116 884 181 884 259 c 0
 884 276 881 294 876 312 c 0
 832 465 560 521 560 684 c 0
 560 836 733 952 733 1077 c 0
 733 1187 671 1249 559 1249 c 0
 373 1249 302 1134 302 961 c 2
 302 0 l 1
EndSplineSet
EndChar

StartChar: registered
Encoding: 174 174 154
Width: 1671
Flags: W
LayerCount: 2
Fore
SplineSet
828 -24 m 0
 471 -24 114 221 114 711 c 0
 114 1200 467 1443 824 1443 c 0
 1202 1443 1555 1198 1555 711 c 0
 1555 221 1206 -24 828 -24 c 0
828 61 m 0
 1238 61 1452 352 1452 708 c 0
 1452 1063 1236 1359 824 1359 c 0
 434 1359 217 1064 217 713 c 0
 217 354 434 61 828 61 c 0
672 1046 m 1
 672 767 l 1
 838 767 l 2
 973 767 1046 793 1046 909 c 0
 1046 1029 982 1046 829 1046 c 2
 672 1046 l 1
552 274 m 1
 552 1162 l 1
 838 1162 l 2
 1077 1162 1190 1077 1190 916 c 0
 1190 798 1133 691 954 669 c 1
 1038 603 1082 483 1208 274 c 1
 1073 274 l 1
 1013 381 921 589 839 652 c 1
 672 652 l 1
 672 274 l 1
 552 274 l 1
EndSplineSet
EndChar

StartChar: copyright
Encoding: 169 169 155
Width: 1671
Flags: W
LayerCount: 2
Fore
SplineSet
828 -24 m 0
 471 -24 114 221 114 711 c 0
 114 1200 467 1443 824 1443 c 0
 1202 1443 1555 1198 1555 711 c 0
 1555 221 1206 -24 828 -24 c 0
828 61 m 0
 1238 61 1452 352 1452 708 c 0
 1452 1063 1236 1359 824 1359 c 0
 434 1359 217 1064 217 713 c 0
 217 354 434 61 828 61 c 0
834 246 m 0
 583 246 402 445 402 714 c 0
 402 983 577 1184 844 1184 c 0
 953 1184 1049 1154 1124 1102 c 1
 1069 1014 l 1
 1013 1054 920 1076 835 1076 c 0
 622 1076 526 907 526 718 c 0
 526 513 628 352 853 352 c 0
 937 352 1040 383 1091 418 c 1
 1127 320 l 1
 1063 279 947 246 834 246 c 0
EndSplineSet
EndChar

StartChar: trademark
Encoding: 8482 8482 156
Width: 1672
Flags: W
LayerCount: 2
Fore
SplineSet
311 554 m 1
 311 1269 l 1
 76 1269 l 1
 76 1361 l 1
 655 1361 l 1
 655 1269 l 1
 415 1269 l 1
 415 554 l 1
 311 554 l 1
766 554 m 1
 766 1361 l 1
 909 1361 l 1
 1153 750 l 1
 1409 1361 l 1
 1544 1361 l 1
 1544 554 l 1
 1441 554 l 1
 1441 1228 l 1
 1186 619 l 1
 1107 619 l 1
 867 1228 l 1
 867 554 l 1
 766 554 l 1
EndSplineSet
EndChar

StartChar: acute
Encoding: 180 180 157
Width: 581
Flags: W
LayerCount: 2
Fore
SplineSet
116 1138 m 1
 286 1491 l 1
 516 1491 l 1
 220 1138 l 1
 116 1138 l 1
EndSplineSet
EndChar

StartChar: dieresis
Encoding: 168 168 158
Width: 700
Flags: W
LayerCount: 2
Fore
SplineSet
462 1141 m 1
 462 1334 l 1
 603 1334 l 1
 603 1141 l 1
 462 1141 l 1
107 1141 m 1
 107 1334 l 1
 248 1334 l 1
 248 1141 l 1
 107 1141 l 1
EndSplineSet
EndChar

StartChar: notequal
Encoding: 8800 8800 159
Width: 1116
Flags: W
LayerCount: 2
Fore
SplineSet
116 436 m 1
 419 436 l 1
 557 713 l 1
 123 713 l 1
 115 833 l 1
 611 833 l 1
 739 1098 l 1
 844 1084 l 1
 737 833 l 1
 990 833 l 1
 998 713 l 1
 683 713 l 1
 541 436 l 1
 992 436 l 1
 998 320 l 1
 487 320 l 1
 355 44 l 1
 252 62 l 1
 360 320 l 1
 123 320 l 1
 116 436 l 1
EndSplineSet
EndChar

StartChar: AE
Encoding: 198 198 160
Width: 1918
Flags: W
LayerCount: 2
Fore
SplineSet
1035 536 m 1
 979 1282 l 1
 536 536 l 1
 1035 536 l 1
1136 1282 m 1
 1171 803 l 1
 1745 803 l 1
 1745 659 l 1
 1189 659 l 1
 1228 144 l 1
 1795 144 l 1
 1795 0 l 1
 1083 0 l 1
 1055 389 l 1
 460 389 l 1
 241 0 l 1
 84 0 l 1
 917 1427 l 1
 1777 1427 l 1
 1777 1282 l 1
 1136 1282 l 1
EndSplineSet
EndChar

StartChar: Oslash
Encoding: 216 216 161
Width: 1560
Flags: W
LayerCount: 2
Fore
SplineSet
779 138 m 0
 1110 138 1269 390 1269 714 c 0
 1269 923 1199 1104 1056 1203 c 1
 631 157 l 1
 676 144 724 138 779 138 c 0
520 207 m 1
 944 1258 l 1
 895 1274 840 1282 779 1282 c 0
 450 1282 288 1031 288 714 c 0
 288 491 364 302 520 207 c 1
500 -164 m 1
 386 -125 l 1
 456 48 l 1
 231 162 115 406 115 708 c 0
 115 1156 358 1443 779 1443 c 0
 861 1443 937 1432 1006 1411 c 1
 1077 1588 l 1
 1196 1546 l 1
 1121 1362 l 1
 1329 1246 1443 1017 1443 708 c 0
 1443 283 1216 -23 779 -23 c 0
 702 -23 632 -13 568 5 c 1
 500 -164 l 1
EndSplineSet
EndChar

StartChar: infinity
Encoding: 8734 8734 162
Width: 1622
Flags: W
LayerCount: 2
Fore
SplineSet
1190 347 m 0
 1332 347 1399 461 1399 605 c 0
 1399 718 1310 813 1186 813 c 0
 1060 813 958 701 877 581 c 1
 989 428 1074 347 1190 347 c 0
434 347 m 0
 555 347 660 453 746 579 c 1
 661 713 558 813 427 813 c 0
 292 813 209 706 209 581 c 0
 209 463 299 347 434 347 c 0
432 231 m 0
 225 231 106 401 106 600 c 0
 106 781 249 925 428 925 c 0
 584 925 699 827 811 678 c 1
 916 822 1031 925 1190 925 c 0
 1397 925 1511 782 1511 584 c 0
 1511 376 1369 231 1188 231 c 0
 1050 231 935 313 811 478 c 1
 702 334 584 231 432 231 c 0
EndSplineSet
EndChar

StartChar: plusminus
Encoding: 177 177 163
Width: 1126
Flags: W
LayerCount: 2
Fore
SplineSet
122 0 m 1
 122 130 l 1
 1005 130 l 1
 1005 0 l 1
 122 0 l 1
499 719 m 1
 499 1097 l 1
 622 1097 l 1
 622 719 l 1
 1003 719 l 1
 1003 589 l 1
 624 589 l 1
 624 212 l 1
 500 212 l 1
 500 589 l 1
 122 589 l 1
 122 719 l 1
 499 719 l 1
EndSplineSet
EndChar

StartChar: lessequal
Encoding: 8804 8804 164
Width: 1114
Flags: W
LayerCount: 2
Fore
SplineSet
116 7 m 1
 116 128 l 1
 995 128 l 1
 995 7 l 1
 116 7 l 1
972 1057 m 1
 284 697 l 1
 972 349 l 1
 972 211 l 1
 144 652 l 1
 144 733 l 1
 972 1194 l 1
 972 1057 l 1
EndSplineSet
EndChar

StartChar: greaterequal
Encoding: 8805 8805 165
Width: 1112
Flags: W
LayerCount: 2
Fore
SplineSet
121 7 m 1
 121 128 l 1
 995 128 l 1
 995 7 l 1
 121 7 l 1
148 1196 m 1
 979 733 l 1
 979 654 l 1
 145 213 l 1
 145 350 l 1
 838 693 l 1
 148 1059 l 1
 148 1196 l 1
EndSplineSet
EndChar

StartChar: yen
Encoding: 165 165 166
Width: 1183
Flags: W
LayerCount: 2
Fore
SplineSet
520 385 m 1
 520 551 l 1
 199 551 l 1
 199 663 l 1
 476 663 l 1
 99 1346 l 1
 261 1346 l 1
 592 733 l 1
 928 1346 l 1
 1085 1346 l 1
 700 663 l 1
 978 663 l 1
 978 551 l 1
 663 551 l 1
 663 385 l 1
 979 385 l 1
 979 272 l 1
 663 272 l 1
 663 0 l 1
 520 0 l 1
 520 272 l 1
 198 272 l 1
 198 385 l 1
 520 385 l 1
EndSplineSet
EndChar

StartChar: mu
Encoding: 956 956 167
Width: 451
Flags: W
LayerCount: 2
Fore
SplineSet
223 484 m 0
 143 484 102 544 102 604 c 0
 102 664 143 724 223 724 c 0
 304 724 344 664 344 604 c 0
 344 544 304 484 223 484 c 0
EndSplineSet
EndChar

StartChar: partialdiff
Encoding: 8706 8706 168
Width: 1105
Flags: W
LayerCount: 2
Fore
SplineSet
477 108 m 0
 674 108 805 349 834 642 c 1
 802 752 717 851 586 851 c 0
 397 851 249 648 249 410 c 0
 249 228 338 108 477 108 c 0
476 -25 m 0
 225 -25 115 165 115 411 c 0
 115 733 300 980 563 980 c 0
 688 980 784 923 846 820 c 1
 846 837 847 867 847 892 c 0
 847 1188 741 1371 544 1371 c 0
 451 1371 359 1330 286 1279 c 1
 274 1413 l 1
 350 1465 454 1503 566 1503 c 0
 837 1503 985 1293 985 834 c 0
 985 412 835 -25 476 -25 c 0
EndSplineSet
EndChar

StartChar: summation
Encoding: 8721 8721 169
Width: 1183
Flags: W
LayerCount: 2
Fore
SplineSet
103 1394 m 1
 1067 1394 l 1
 1067 1255 l 1
 297 1255 l 1
 839 550 l 1
 274 -177 l 1
 1103 -177 l 1
 1103 -324 l 1
 83 -324 l 1
 83 -234 l 1
 647 542 l 1
 103 1301 l 1
 103 1394 l 1
EndSplineSet
EndChar

StartChar: product
Encoding: 8719 8719 170
Width: 1335
Flags: W
LayerCount: 2
Fore
SplineSet
1039 0 m 1
 1039 1221 l 1
 298 1221 l 1
 298 0 l 1
 136 0 l 1
 136 1361 l 1
 1200 1361 l 1
 1200 0 l 1
 1039 0 l 1
EndSplineSet
EndChar

StartChar: pi
Encoding: 960 960 171
Width: 1253
Flags: W
LayerCount: 2
Fore
SplineSet
1014 -7 m 0
 887 -7 846 72 846 274 c 2
 846 888 l 1
 477 888 l 1
 462 515 433 131 364 0 c 1
 229 0 l 1
 309 172 333 603 340 888 c 1
 243 885 177 868 118 829 c 1
 104 958 l 1
 158 1009 243 1019 386 1019 c 2
 1138 1019 l 1
 1138 888 l 1
 972 888 l 1
 972 284 l 2
 972 226 974 144 1052 144 c 0
 1069 144 1095 150 1121 157 c 1
 1121 5 l 1
 1080 -2 1046 -7 1014 -7 c 0
EndSplineSet
EndChar

StartChar: integral
Encoding: 8747 8747 172
Width: 672
Flags: W
LayerCount: 2
Fore
SplineSet
148 -390 m 0
 102 -390 75 -383 38 -372 c 1
 37 -246 l 1
 58 -256 90 -258 122 -258 c 0
 231 -258 253 -184 253 -46 c 2
 253 1229 l 2
 253 1440 311 1598 492 1598 c 0
 538 1598 565 1588 602 1577 c 1
 603 1451 l 1
 582 1461 548 1465 516 1465 c 0
 407 1465 384 1393 384 1255 c 2
 384 -23 l 2
 384 -234 329 -390 148 -390 c 0
EndSplineSet
EndChar

StartChar: ordfeminine
Encoding: 170 170 173
Width: 751
Flags: W
LayerCount: 2
Fore
SplineSet
345 853 m 0
 453 853 498 953 503 1063 c 1
 503 1087 l 1
 390 1075 234 1080 234 954 c 0
 234 881 279 853 345 853 c 0
131 578 m 1
 131 674 l 1
 627 674 l 1
 627 578 l 1
 131 578 l 1
328 752 m 0
 212 752 126 831 126 956 c 0
 126 1131 287 1159 503 1173 c 1
 503 1189 l 1
 500 1295 474 1340 385 1340 c 0
 319 1340 255 1335 189 1260 c 1
 134 1331 l 1
 202 1420 289 1447 390 1447 c 0
 508 1447 610 1380 610 1210 c 1
 608 894 l 2
 608 882 608 854 613 771 c 1
 506 771 l 1
 503 843 l 1
 467 788 408 752 328 752 c 0
EndSplineSet
EndChar

StartChar: ordmasculine
Encoding: 186 186 174
Width: 788
Flags: W
LayerCount: 2
Fore
SplineSet
396 752 m 0
 203 752 103 904 103 1101 c 0
 103 1294 209 1447 394 1447 c 0
 580 1447 683 1292 683 1097 c 0
 683 905 580 752 396 752 c 0
396 856 m 0
 510 856 571 967 571 1095 c 0
 571 1230 508 1340 392 1340 c 0
 280 1340 217 1229 217 1098 c 0
 217 962 277 856 396 856 c 0
EndSplineSet
EndChar

StartChar: Omega
Encoding: 937 937 175
Width: 1511
Flags: W
LayerCount: 2
Fore
SplineSet
754 118 m 0
 1072 118 1220 349 1220 667 c 0
 1220 997 1066 1228 755 1228 c 0
 444 1228 288 998 288 667 c 0
 288 349 436 118 754 118 c 0
754 -20 m 0
 339 -20 114 251 114 668 c 0
 114 1095 347 1366 755 1366 c 0
 1156 1366 1395 1092 1395 667 c 0
 1395 257 1164 -20 754 -20 c 0
EndSplineSet
EndChar

StartChar: ae
Encoding: 230 230 176
Width: 1587
Flags: W
LayerCount: 2
Fore
SplineSet
848 560 m 1
 1318 586 l 1
 1318 595 l 1
 1316 802 1256 895 1122 895 c 0
 939 895 858 747 848 560 c 1
419 103 m 0
 520 103 652 154 756 189 c 1
 715 264 692 351 687 454 c 1
 667 453 647 452 629 450 c 0
 337 428 266 373 266 265 c 0
 266 144 332 103 419 103 c 0
408 -24 m 0
 250 -24 113 54 113 273 c 0
 113 513 356 543 632 558 c 2
 690 561 l 1
 690 711 l 2
 690 832 645 888 517 888 c 0
 392 888 269 854 193 814 c 1
 160 939 l 1
 233 981 377 1023 513 1023 c 0
 658 1023 775 966 802 848 c 1
 868 967 993 1023 1125 1023 c 0
 1373 1023 1465 827 1465 622 c 0
 1465 535 1442 493 1295 486 c 2
 843 463 l 1
 858 250 933 108 1127 108 c 0
 1244 108 1357 163 1421 208 c 1
 1468 98 l 1
 1394 34 1277 -23 1117 -23 c 0
 986 -23 892 22 819 102 c 1
 712 36 550 -24 408 -24 c 0
EndSplineSet
EndChar

StartChar: oslash
Encoding: 248 248 177
Width: 1158
Flags: W
LayerCount: 2
Fore
SplineSet
582 103 m 0
 798 103 884 294 884 498 c 0
 884 637 849 766 762 838 c 1
 460 126 l 1
 495 111 536 103 582 103 c 0
396 166 m 1
 697 876 l 1
 663 890 625 897 580 897 c 0
 365 897 267 699 267 495 c 0
 267 365 308 239 396 166 c 1
299 -250 m 1
 235 -216 l 1
 342 37 l 1
 191 124 109 299 109 498 c 0
 109 784 280 1023 582 1023 c 0
 643 1023 699 1013 748 996 c 1
 853 1244 l 1
 923 1216 l 1
 816 965 l 1
 966 878 1042 701 1042 500 c 0
 1042 223 879 -23 580 -23 c 0
 517 -23 460 -13 409 6 c 1
 299 -250 l 1
EndSplineSet
EndChar

StartChar: questiondown
Encoding: 191 191 178
Width: 832
Flags: W
LayerCount: 2
Fore
SplineSet
462 1387 m 0
 542 1387 583 1327 583 1267 c 0
 583 1207 542 1147 462 1147 c 0
 381 1147 341 1207 341 1267 c 0
 341 1327 381 1387 462 1387 c 0
436 980 m 1
 515 980 l 1
 515 768 256 476 256 297 c 1
 258 177 339 126 460 126 c 0
 569 126 652 173 696 200 c 1
 737 77 l 1
 655 12 537 -11 436 -11 c 0
 245 -11 107 95 107 284 c 0
 107 532 300 675 436 980 c 1
EndSplineSet
EndChar

StartChar: exclamdown
Encoding: 161 161 179
Width: 557
Flags: W
LayerCount: 2
Fore
SplineSet
279 878 m 0
 198 878 158 938 158 998 c 0
 158 1058 198 1118 279 1118 c 0
 359 1118 400 1058 400 998 c 0
 400 938 359 878 279 878 c 0
369 -125 m 1
 369 -254 l 1
 190 -254 l 1
 190 -125 l 1
 241 711 l 1
 313 711 l 1
 369 -125 l 1
EndSplineSet
EndChar

StartChar: logicalnot
Encoding: 172 172 180
Width: 1128
Flags: W
LayerCount: 2
Fore
SplineSet
1008 751 m 1
 1008 237 l 1
 885 237 l 1
 885 620 l 1
 106 620 l 1
 106 751 l 1
 1008 751 l 1
EndSplineSet
EndChar

StartChar: radical
Encoding: 8730 8730 181
Width: 1160
Flags: W
LayerCount: 2
Fore
SplineSet
339 809 m 1
 558 209 l 1
 612 40 l 1
 735 548 858 1055 982 1563 c 1
 1085 1563 l 1
 684 -151 l 1
 558 -151 l 1
 255 676 l 1
 116 648 l 1
 102 758 l 1
 339 809 l 1
EndSplineSet
EndChar

StartChar: florin
Encoding: 402 402 182
Width: 949
Flags: W
LayerCount: 2
Fore
SplineSet
136 -326 m 0
 113 -326 86 -318 53 -308 c 1
 63 -175 l 1
 88 -185 109 -191 126 -191 c 0
 203 -191 237 -101 259 5 c 1
 317 255 354 530 402 787 c 1
 258 787 l 1
 268 924 l 1
 426 924 l 1
 446 1072 l 1
 471 1247 541 1408 740 1408 c 0
 775 1408 817 1399 856 1388 c 1
 849 1246 l 1
 816 1261 787 1268 762 1268 c 0
 667 1268 637 1214 622 1117 c 1
 587 924 l 1
 756 924 l 1
 746 787 l 1
 567 787 l 1
 446 118 l 1
 402 -116 343 -326 136 -326 c 0
EndSplineSet
EndChar

StartChar: approxequal
Encoding: 8776 8776 183
Width: 1177
Flags: W
LayerCount: 2
Fore
SplineSet
207 622 m 1
 114 648 l 1
 143 803 235 899 379 899 c 0
 459 899 531 865 617 813 c 0
 701 762 753 737 805 737 c 0
 885 737 935 794 970 899 c 1
 1060 873 l 1
 1031 722 956 622 802 622 c 0
 723 622 649 653 548 716 c 0
 486 755 431 783 376 783 c 0
 284 783 233 720 207 622 c 1
207 255 m 1
 116 284 l 1
 146 441 234 536 379 536 c 0
 464 536 543 496 615 455 c 0
 687 415 751 374 807 374 c 0
 887 374 937 433 973 536 c 1
 1062 508 l 1
 1033 358 961 257 804 257 c 0
 728 257 653 288 550 350 c 1
 488 389 434 418 379 418 c 0
 287 418 236 353 207 255 c 1
EndSplineSet
EndChar

StartChar: Delta
Encoding: 916 916 184
Width: 1347
Flags: W
LayerCount: 2
Fore
SplineSet
1044 141 m 1
 674 1188 l 1
 309 141 l 1
 1044 141 l 1
90 0 m 1
 590 1361 l 1
 758 1361 l 1
 1259 0 l 1
 90 0 l 1
EndSplineSet
EndChar

StartChar: guillemotleft
Encoding: 171 171 185
Width: 941
Flags: W
LayerCount: 2
Fore
SplineSet
592 511 m 1
 824 168 l 1
 709 136 l 1
 434 516 l 1
 711 883 l 1
 827 851 l 1
 592 511 l 1
495 851 m 1
 246 511 l 1
 490 168 l 1
 362 136 l 1
 116 473 l 1
 98 516 l 1
 365 883 l 1
 495 851 l 1
EndSplineSet
EndChar

StartChar: guillemotright
Encoding: 187 187 186
Width: 960
Flags: W
LayerCount: 2
Fore
SplineSet
592 883 m 1
 855 504 l 1
 589 136 l 1
 462 168 l 1
 708 511 l 1
 467 851 l 1
 592 883 l 1
233 883 m 1
 509 504 l 1
 232 136 l 1
 116 168 l 1
 351 511 l 1
 117 851 l 1
 233 883 l 1
EndSplineSet
EndChar

StartChar: ellipsis
Encoding: 8230 8230 187
Width: 1354
Flags: W
LayerCount: 2
Fore
SplineSet
228 -11 m 0
 148 -11 107 49 107 109 c 0
 107 169 147 229 228 229 c 0
 309 229 349 169 349 109 c 0
 349 49 309 -11 228 -11 c 0
678 -11 m 0
 598 -11 557 49 557 109 c 0
 557 169 597 229 678 229 c 0
 759 229 799 169 799 109 c 0
 799 49 759 -11 678 -11 c 0
1127 -11 m 0
 1047 -11 1006 49 1006 109 c 0
 1006 169 1046 229 1127 229 c 0
 1208 229 1249 169 1249 109 c 0
 1249 49 1208 -11 1127 -11 c 0
EndSplineSet
EndChar

StartChar: OE
Encoding: 338 338 191
Width: 1866
Flags: W
LayerCount: 2
Fore
SplineSet
771 117 m 1
 888 117 1022 176 1066 202 c 1
 1066 1146 l 1
 996 1203 890 1249 763 1249 c 0
 468 1249 293 1020 286 703 c 1
 286 380 415 121 771 117 c 1
770 -21 m 0
 338 -21 113 272 113 702 c 1
 122 1099 383 1387 749 1387 c 0
 884 1387 998 1345 1066 1286 c 1
 1066 1360 l 1
 1726 1360 l 1
 1711 1220 l 1
 1227 1220 l 1
 1227 769 l 1
 1678 769 l 1
 1678 630 l 1
 1227 630 l 1
 1227 142 l 1
 1748 142 l 1
 1734 0 l 1
 1066 0 l 1
 1066 75 l 1
 1027 33 876 -21 770 -21 c 0
EndSplineSet
EndChar

StartChar: oe
Encoding: 339 339 192
Width: 1821
Flags: W
LayerCount: 2
Fore
SplineSet
1035 577 m 1
 1556 577 l 1
 1556 589 l 1
 1552 794 1458 899 1312 899 c 0
 1161 899 1052 774 1035 577 c 1
571 103 m 0
 787 103 873 294 873 498 c 0
 873 710 794 897 569 897 c 0
 354 897 267 699 267 495 c 0
 267 294 353 103 571 103 c 0
569 -23 m 0
 267 -23 109 211 109 498 c 0
 109 784 269 1023 571 1023 c 0
 754 1023 879 938 949 809 c 1
 1024 938 1164 1018 1321 1023 c 1
 1569 1023 1704 836 1704 541 c 0
 1704 526 1702 489 1702 472 c 1
 1029 472 l 1
 1029 247 1160 108 1336 108 c 0
 1478 108 1571 160 1642 208 c 1
 1689 97 l 1
 1607 27 1491 -23 1331 -23 c 0
 1154 -23 1021 56 945 192 c 1
 872 64 746 -23 569 -23 c 0
EndSplineSet
EndChar

StartChar: endash
Encoding: 8211 8211 193
Width: 1166
Flags: W
LayerCount: 2
Fore
SplineSet
104 480 m 1
 104 614 l 1
 1057 614 l 1
 1057 480 l 1
 104 480 l 1
EndSplineSet
EndChar

StartChar: emdash
Encoding: 8212 8212 194
Width: 2176
Flags: W
LayerCount: 2
Fore
SplineSet
104 480 m 1
 104 614 l 1
 2067 614 l 1
 2067 480 l 1
 104 480 l 1
EndSplineSet
EndChar

StartChar: quotedblleft
Encoding: 8220 8220 195
Width: 711
Flags: W
LayerCount: 2
Fore
SplineSet
386 1003 m 1
 509 1432 l 1
 615 1432 l 1
 533 1003 l 1
 386 1003 l 1
105 1003 m 1
 227 1432 l 1
 336 1432 l 1
 250 1003 l 1
 105 1003 l 1
EndSplineSet
EndChar

StartChar: quotedblright
Encoding: 8221 8221 196
Width: 689
Flags: W
LayerCount: 2
Fore
SplineSet
369 1003 m 1
 451 1432 l 1
 600 1432 l 1
 475 1003 l 1
 369 1003 l 1
107 1003 m 1
 192 1432 l 1
 337 1432 l 1
 214 1003 l 1
 107 1003 l 1
EndSplineSet
EndChar

StartChar: quoteleft
Encoding: 8216 8216 197
Width: 431
Flags: W
LayerCount: 2
Fore
SplineSet
105 1003 m 1
 228 1432 l 1
 335 1432 l 1
 252 1003 l 1
 105 1003 l 1
EndSplineSet
EndChar

StartChar: quoteright
Encoding: 8217 8217 198
Width: 425
Flags: W
LayerCount: 2
Fore
SplineSet
107 1003 m 1
 192 1432 l 1
 335 1432 l 1
 213 1003 l 1
 107 1003 l 1
EndSplineSet
EndChar

StartChar: divide
Encoding: 247 247 199
Width: 1119
Flags: W
LayerCount: 2
Fore
SplineSet
460 854 m 1
 460 1061 l 1
 664 1061 l 1
 664 854 l 1
 460 854 l 1
101 476 m 1
 101 612 l 1
 1012 612 l 1
 1012 476 l 1
 101 476 l 1
460 20 m 1
 460 227 l 1
 633 227 l 1
 633 20 l 1
 460 20 l 1
EndSplineSet
EndChar

StartChar: lozenge
Encoding: 9674 9674 200
Width: 1088
Flags: W
LayerCount: 2
Fore
SplineSet
536 96 m 1
 644 296 754 497 862 697 c 1
 757 896 650 1095 547 1296 c 1
 438 1098 329 898 221 699 c 1
 327 499 428 293 536 96 c 1
982 699 m 1
 587 -44 l 1
 488 -44 l 1
 101 697 l 1
 494 1441 l 1
 595 1441 l 1
 982 699 l 1
EndSplineSet
EndChar

StartChar: fraction
Encoding: 8260 8260 203
Width: 1075
Flags: W
LayerCount: 2
Fore
SplineSet
88 0 m 1
 885 1408 l 1
 1004 1408 l 1
 207 0 l 1
 88 0 l 1
EndSplineSet
EndChar

StartChar: currency
Encoding: 164 164 204
Width: 1180
Flags: W
LayerCount: 2
Fore
SplineSet
591 385 m 0
 748 385 873 511 873 666 c 0
 873 821 747 948 591 948 c 0
 435 948 309 821 309 666 c 0
 309 510 435 385 591 385 c 0
1062 278 m 1
 999 211 l 1
 829 371 l 1
 763 317 682 287 591 287 c 0
 499 287 417 316 351 371 c 1
 184 212 l 1
 117 278 l 1
 286 439 l 1
 238 505 210 582 210 666 c 0
 210 749 238 827 286 893 c 1
 116 1056 l 1
 184 1121 l 1
 351 962 l 1
 417 1017 501 1046 591 1046 c 0
 682 1046 763 1016 829 961 c 1
 999 1121 l 1
 1063 1054 l 1
 895 893 l 1
 943 825 971 747 971 666 c 0
 971 580 944 504 896 439 c 1
 1062 278 l 1
EndSplineSet
EndChar

StartChar: guilsinglleft
Encoding: 8249 8249 205
Width: 560
Flags: W
LayerCount: 2
Fore
SplineSet
236 531 m 1
 441 166 l 1
 315 166 l 1
 100 531 l 1
 319 894 l 1
 447 894 l 1
 236 531 l 1
EndSplineSet
EndChar

StartChar: guilsinglright
Encoding: 8250 8250 206
Width: 566
Flags: W
LayerCount: 2
Fore
SplineSet
461 532 m 1
 242 166 l 1
 115 166 l 1
 325 532 l 1
 120 894 l 1
 247 894 l 1
 461 532 l 1
EndSplineSet
EndChar

StartChar: daggerdbl
Encoding: 8225 8225 207
Width: 921
Flags: W
LayerCount: 2
Fore
SplineSet
401 550 m 1
 401 964 l 1
 127 964 l 1
 127 1091 l 1
 401 1091 l 1
 401 1421 l 1
 520 1421 l 1
 520 1091 l 1
 799 1091 l 1
 799 964 l 1
 520 964 l 1
 520 550 l 1
 793 550 l 1
 793 425 l 1
 520 425 l 1
 520 110 l 1
 401 110 l 1
 401 425 l 1
 123 425 l 1
 123 550 l 1
 401 550 l 1
EndSplineSet
EndChar

StartChar: periodcentered
Encoding: 183 183 208
Width: 372
Flags: W
LayerCount: 2
Fore
SplineSet
107 511 m 1
 107 691 l 1
 260 691 l 1
 260 511 l 1
 107 511 l 1
EndSplineSet
EndChar

StartChar: quotesinglbase
Encoding: 8218 8218 209
Width: 431
Flags: W
LayerCount: 2
Fore
SplineSet
92 -233 m 1
 176 197 l 1
 322 197 l 1
 200 -233 l 1
 92 -233 l 1
EndSplineSet
EndChar

StartChar: quotedblbase
Encoding: 8222 8222 210
Width: 717
Flags: W
LayerCount: 2
Fore
SplineSet
379 -233 m 1
 461 197 l 1
 609 197 l 1
 486 -233 l 1
 379 -233 l 1
92 -233 m 1
 174 197 l 1
 320 197 l 1
 199 -233 l 1
 92 -233 l 1
EndSplineSet
EndChar

StartChar: perthousand
Encoding: 8240 8240 211
Width: 2129
Flags: W
LayerCount: 2
Fore
SplineSet
1717 -27 m 0
 1519 -27 1421 113 1421 322 c 0
 1421 520 1519 669 1722 669 c 0
 1922 669 2018 535 2018 320 c 0
 2018 123 1918 -27 1717 -27 c 0
1722 85 m 0
 1843 85 1904 195 1904 322 c 0
 1904 452 1840 555 1720 555 c 0
 1596 555 1536 448 1536 322 c 0
 1536 188 1597 85 1722 85 c 0
1015 -27 m 0
 815 -27 717 113 717 322 c 0
 717 520 813 669 1017 669 c 0
 1221 669 1315 531 1315 320 c 0
 1315 123 1216 -27 1015 -27 c 0
1017 85 m 0
 1138 85 1198 197 1198 322 c 0
 1198 455 1141 555 1016 555 c 0
 895 555 836 448 836 322 c 0
 836 188 896 85 1017 85 c 0
246 -20 m 1
 1025 1408 l 1
 1168 1408 l 1
 369 -20 l 1
 246 -20 l 1
378 724 m 0
 205 724 108 865 108 1074 c 0
 108 1273 204 1419 379 1419 c 0
 556 1419 649 1283 649 1070 c 0
 649 873 550 724 378 724 c 0
381 836 m 0
 482 836 532 946 532 1072 c 0
 532 1206 483 1309 378 1309 c 0
 275 1309 226 1200 226 1074 c 0
 226 940 275 836 381 836 c 0
EndSplineSet
EndChar

StartChar: dotlessi
Encoding: 305 305 227
Width: 413
Flags: W
LayerCount: 2
Fore
SplineSet
130 0 m 1
 130 999 l 1
 284 999 l 1
 284 0 l 1
 130 0 l 1
EndSplineSet
EndChar

StartChar: circumflex
Encoding: 710 710 228
Width: 728
Flags: W
LayerCount: 2
Fore
SplineSet
98 1138 m 1
 268 1491 l 1
 462 1491 l 1
 632 1138 l 1
 511 1138 l 1
 364 1386 l 1
 217 1138 l 1
 98 1138 l 1
EndSplineSet
EndChar

StartChar: tilde
Encoding: 732 732 229
Width: 805
Flags: W
LayerCount: 2
Fore
SplineSet
105 1175 m 1
 105 1311 164 1374 261 1374 c 0
 374 1374 530 1289 530 1289 c 1
 566 1292 569 1336 572 1374 c 1
 672 1374 l 1
 672 1249 632 1175 536 1175 c 0
 454 1175 252 1263 252 1263 c 1
 222 1262 205 1225 202 1175 c 1
 105 1175 l 1
EndSplineSet
EndChar

StartChar: macron
Encoding: 175 175 230
Width: 966
Flags: W
LayerCount: 2
Fore
SplineSet
181 1352 m 1
 181 1479 l 1
 789 1479 l 1
 789 1352 l 1
 181 1352 l 1
EndSplineSet
EndChar

StartChar: breve
Encoding: 728 728 231
Width: 686
Flags: W
LayerCount: 2
Fore
SplineSet
573 1404 m 1
 573 1247 456 1182 343 1182 c 0
 231 1182 116 1247 116 1404 c 1
 222 1404 l 1
 222 1317 277 1276 343 1276 c 0
 409 1276 467 1317 467 1404 c 1
 573 1404 l 1
EndSplineSet
EndChar

StartChar: dotaccent
Encoding: 729 729 232
Width: 374
Flags: W
LayerCount: 2
Fore
SplineSet
111 1181 m 1
 111 1361 l 1
 264 1361 l 1
 264 1181 l 1
 111 1181 l 1
EndSplineSet
EndChar

StartChar: ring
Encoding: 730 730 233
Width: 576
Flags: W
LayerCount: 2
Fore
SplineSet
293 1144 m 0
 198 1144 114 1207 114 1312 c 0
 114 1420 199 1491 291 1491 c 0
 386 1491 468 1414 468 1312 c 0
 468 1207 383 1144 293 1144 c 0
291 1210 m 0
 337 1210 379 1256 379 1312 c 0
 379 1368 341 1417 291 1417 c 0
 245 1417 201 1368 201 1312 c 0
 201 1251 235 1210 291 1210 c 0
EndSplineSet
EndChar

StartChar: cedilla
Encoding: 184 184 234
Width: 542
Flags: W
LayerCount: 2
Fore
SplineSet
104 -373 m 1
 206 15 l 1
 284 15 l 1
 244 -373 l 1
 104 -373 l 1
EndSplineSet
EndChar

StartChar: hungarumlaut
Encoding: 733 733 235
Width: 743
Flags: W
LayerCount: 2
Fore
SplineSet
329 1146 m 1
 512 1451 l 1
 649 1451 l 1
 421 1146 l 1
 329 1146 l 1
116 1146 m 1
 297 1451 l 1
 436 1451 l 1
 207 1146 l 1
 116 1146 l 1
EndSplineSet
EndChar

StartChar: ogonek
Encoding: 731 731 236
Width: 536
Flags: W
LayerCount: 2
Fore
SplineSet
283 -381 m 0
 185 -381 107 -325 107 -221 c 0
 107 -122 194 -46 281 5 c 1
 385 5 l 1
 290 -65 221 -133 221 -195 c 0
 221 -243 264 -276 301 -276 c 0
 350 -276 380 -265 426 -246 c 1
 426 -352 l 1
 391 -367 332 -381 283 -381 c 0
EndSplineSet
EndChar

StartChar: caron
Encoding: 711 711 237
Width: 728
Flags: W
LayerCount: 2
Fore
SplineSet
268 1138 m 1
 98 1491 l 1
 217 1491 l 1
 364 1208 l 1
 511 1491 l 1
 632 1491 l 1
 462 1138 l 1
 268 1138 l 1
EndSplineSet
EndChar

StartChar: uni00AD
Encoding: 173 173 239
Width: 860
Flags: W
LayerCount: 2
Fore
SplineSet
98 215 m 1
 98 351 l 1
 767 351 l 1
 767 215 l 1
 98 215 l 1
EndSplineSet
EndChar

StartChar: uni00B2
Encoding: 178 178 240
Width: 683
Flags: W
LayerCount: 2
Fore
SplineSet
558 592 m 1
 120 592 l 1
 120 700 l 1
 315 919 457 1077 457 1186 c 0
 457 1252 416 1296 344 1296 c 0
 275 1296 228 1248 196 1167 c 1
 128 1244 l 1
 164 1350 248 1411 350 1411 c 0
 469 1411 560 1324 560 1188 c 0
 560 1021 431 878 268 708 c 1
 558 708 l 1
 558 592 l 1
EndSplineSet
EndChar

StartChar: uni00B3
Encoding: 179 179 241
Width: 676
Flags: W
LayerCount: 2
Fore
SplineSet
318 574 m 0
 242 574 171 607 119 669 c 1
 169 763 l 1
 215 712 263 685 314 685 c 0
 390 685 452 738 452 822 c 0
 452 918 386 952 279 952 c 2
 236 952 l 1
 236 1068 l 1
 276 1068 l 2
 368 1068 434 1098 434 1186 c 0
 434 1262 385 1296 319 1296 c 0
 261 1296 213 1264 167 1218 c 1
 119 1312 l 1
 168 1370 244 1413 321 1413 c 0
 433 1413 539 1330 539 1188 c 0
 539 1112 508 1048 452 1012 c 1
 518 976 557 913 557 818 c 0
 557 667 448 574 318 574 c 0
EndSplineSet
EndChar

StartChar: uni00B9
Encoding: 185 185 242
Width: 569
Flags: W
LayerCount: 2
Fore
SplineSet
130 679 m 1
 238 679 l 1
 238 1282 l 1
 203 1259 158 1235 118 1214 c 1
 118 1307 l 1
 174 1335 218 1364 254 1400 c 1
 342 1400 l 1
 342 679 l 1
 455 679 l 1
 455 592 l 1
 130 592 l 1
 130 679 l 1
EndSplineSet
EndChar

StartChar: dcroat
Encoding: 273 273 259
Width: 1193
Flags: W
LayerCount: 2
Fore
SplineSet
586 1166 m 1
 586 1268 l 1
 1153 1268 l 1
 1153 1166 l 1
 586 1166 l 1
568 108 m 0
 774 108 860 252 860 482 c 0
 860 741 784 891 569 891 c 0
 378 891 277 738 277 499 c 0
 277 265 374 108 568 108 c 0
541 -21 m 0
 262 -21 103 198 103 504 c 0
 103 807 280 1019 540 1019 c 0
 672 1019 798 955 864 862 c 1
 860 928 860 991 860 1053 c 2
 860 1395 l 1
 1035 1409 l 1
 1035 0 l 1
 877 0 l 1
 860 163 l 1
 805 45 678 -21 541 -21 c 0
568 108 m 0
 774 108 860 252 860 482 c 0
 860 741 784 891 569 891 c 0
 378 891 277 738 277 499 c 0
 277 265 374 108 568 108 c 0
541 -21 m 0
 262 -21 103 198 103 504 c 0
 103 807 280 1019 540 1019 c 0
 672 1019 798 955 864 862 c 1
 860 928 860 991 860 1053 c 2
 860 1395 l 1
 1035 1409 l 1
 1035 0 l 1
 877 0 l 1
 860 163 l 1
 805 45 678 -21 541 -21 c 0
568 108 m 0
 774 108 860 252 860 482 c 0
 860 741 784 891 569 891 c 0
 378 891 277 738 277 499 c 0
 277 265 374 108 568 108 c 0
541 -21 m 0
 262 -21 103 198 103 504 c 0
 103 807 280 1019 540 1019 c 0
 672 1019 798 955 864 862 c 1
 860 928 860 991 860 1053 c 2
 860 1395 l 1
 1035 1409 l 1
 1035 0 l 1
 877 0 l 1
 860 163 l 1
 805 45 678 -21 541 -21 c 0
568 108 m 0
 774 108 860 252 860 482 c 0
 860 741 784 891 569 891 c 0
 378 891 277 738 277 499 c 0
 277 265 374 108 568 108 c 0
541 -21 m 0
 262 -21 103 198 103 504 c 0
 103 807 280 1019 540 1019 c 0
 672 1019 798 955 864 862 c 1
 860 928 860 991 860 1053 c 2
 860 1395 l 1
 1035 1409 l 1
 1035 0 l 1
 877 0 l 1
 860 163 l 1
 805 45 678 -21 541 -21 c 0
568 108 m 0
 774 108 860 252 860 482 c 0
 860 741 784 891 569 891 c 0
 378 891 277 738 277 499 c 0
 277 265 374 108 568 108 c 0
541 -21 m 0
 262 -21 103 198 103 504 c 0
 103 807 280 1019 540 1019 c 0
 672 1019 798 955 864 862 c 1
 860 928 860 991 860 1053 c 2
 860 1395 l 1
 1035 1409 l 1
 1035 0 l 1
 877 0 l 1
 860 163 l 1
 805 45 678 -21 541 -21 c 0
EndSplineSet
EndChar

StartChar: gcommaaccent
Encoding: 291 291 277
Width: 1183
Flags: W
LayerCount: 2
Fore
SplineSet
524 -425 m 0
 405 -425 307 -400 267 -390 c 1
 278 -262 l 1
 318 -273 410 -291 511 -291 c 0
 755 -291 860 -199 860 73 c 2
 860 191 l 1
 813 73 708 0 550 0 c 0
 254 0 103 249 103 496 c 0
 103 780 248 1019 553 1019 c 0
 686 1019 788 968 864 865 c 1
 876 998 l 1
 1035 998 l 1
 1035 148 l 2
 1035 -187 933 -425 524 -425 c 0
563 130 m 0
 778 130 860 291 860 470 c 2
 860 543 l 2
 860 732 774 891 567 891 c 0
 350 891 277 677 277 504 c 0
 277 333 356 130 563 130 c 0
500 1182 m 1
 585 1611 l 1
 728 1611 l 1
 606 1182 l 1
 500 1182 l 1
524 -425 m 0
 405 -425 307 -400 267 -390 c 1
 278 -262 l 1
 318 -273 410 -291 511 -291 c 0
 755 -291 860 -199 860 73 c 2
 860 191 l 1
 813 73 708 0 550 0 c 0
 254 0 103 249 103 496 c 0
 103 780 248 1019 553 1019 c 0
 686 1019 788 968 864 865 c 1
 876 998 l 1
 1035 998 l 1
 1035 148 l 2
 1035 -187 933 -425 524 -425 c 0
563 130 m 0
 778 130 860 291 860 470 c 2
 860 543 l 2
 860 732 774 891 567 891 c 0
 350 891 277 677 277 504 c 0
 277 333 356 130 563 130 c 0
500 1182 m 1
 585 1611 l 1
 728 1611 l 1
 606 1182 l 1
 500 1182 l 1
EndSplineSet
EndChar

StartChar: Hbar
Encoding: 294 294 280
Width: 1458
Flags: W
LayerCount: 2
Fore
SplineSet
357 772 m 1
 1100 772 l 1
 1100 1043 l 1
 357 1043 l 1
 357 772 l 1
196 1138 m 1
 196 1361 l 1
 357 1361 l 1
 357 1138 l 1
 1100 1138 l 1
 1100 1361 l 1
 1261 1361 l 1
 1261 1138 l 1
 1343 1138 l 1
 1343 1043 l 1
 1261 1043 l 1
 1261 0 l 1
 1100 0 l 1
 1100 633 l 1
 357 633 l 1
 357 0 l 1
 196 0 l 1
 196 1043 l 1
 114 1043 l 1
 114 1138 l 1
 196 1138 l 1
EndSplineSet
EndChar

StartChar: hbar
Encoding: 295 295 281
Width: 1130
Flags: W
LayerCount: 2
Fore
SplineSet
509 1271 m 1
 509 1166 l 1
 20 1166 l 1
 20 1271 l 1
 509 1271 l 1
149 1395 m 1
 324 1409 l 1
 324 864 l 1
 382 963 493 1019 631 1019 c 0
 861 1019 965 880 965 612 c 2
 965 0 l 1
 790 0 l 1
 790 623 l 2
 790 788 754 889 601 889 c 0
 385 889 324 752 324 546 c 2
 324 0 l 1
 149 0 l 1
 149 1395 l 1
149 1395 m 1
 324 1409 l 1
 324 864 l 1
 382 963 493 1019 631 1019 c 0
 861 1019 965 880 965 612 c 2
 965 0 l 1
 790 0 l 1
 790 623 l 2
 790 788 754 889 601 889 c 0
 385 889 324 752 324 546 c 2
 324 0 l 1
 149 0 l 1
 149 1395 l 1
149 1395 m 1
 324 1409 l 1
 324 864 l 1
 382 963 493 1019 631 1019 c 0
 861 1019 965 880 965 612 c 2
 965 0 l 1
 790 0 l 1
 790 623 l 2
 790 788 754 889 601 889 c 0
 385 889 324 752 324 546 c 2
 324 0 l 1
 149 0 l 1
 149 1395 l 1
149 1395 m 1
 324 1409 l 1
 324 864 l 1
 382 963 493 1019 631 1019 c 0
 861 1019 965 880 965 612 c 2
 965 0 l 1
 790 0 l 1
 790 623 l 2
 790 788 754 889 601 889 c 0
 385 889 324 752 324 546 c 2
 324 0 l 1
 149 0 l 1
 149 1395 l 1
149 1395 m 1
 324 1409 l 1
 324 864 l 1
 382 963 493 1019 631 1019 c 0
 861 1019 965 880 965 612 c 2
 965 0 l 1
 790 0 l 1
 790 623 l 2
 790 788 754 889 601 889 c 0
 385 889 324 752 324 546 c 2
 324 0 l 1
 149 0 l 1
 149 1395 l 1
149 1395 m 1
 324 1409 l 1
 324 864 l 1
 382 963 493 1019 631 1019 c 0
 861 1019 965 880 965 612 c 2
 965 0 l 1
 790 0 l 1
 790 623 l 2
 790 788 754 889 601 889 c 0
 385 889 324 752 324 546 c 2
 324 0 l 1
 149 0 l 1
 149 1395 l 1
149 1395 m 1
 324 1409 l 1
 324 864 l 1
 382 963 493 1019 631 1019 c 0
 861 1019 965 880 965 612 c 2
 965 0 l 1
 790 0 l 1
 790 623 l 2
 790 788 754 889 601 889 c 0
 385 889 324 752 324 546 c 2
 324 0 l 1
 149 0 l 1
 149 1395 l 1
149 1395 m 1
 324 1409 l 1
 324 864 l 1
 382 963 493 1019 631 1019 c 0
 861 1019 965 880 965 612 c 2
 965 0 l 1
 790 0 l 1
 790 623 l 2
 790 788 754 889 601 889 c 0
 385 889 324 752 324 546 c 2
 324 0 l 1
 149 0 l 1
 149 1395 l 1
149 1395 m 1
 324 1409 l 1
 324 864 l 1
 382 963 493 1019 631 1019 c 0
 861 1019 965 880 965 612 c 2
 965 0 l 1
 790 0 l 1
 790 623 l 2
 790 788 754 889 601 889 c 0
 385 889 324 752 324 546 c 2
 324 0 l 1
 149 0 l 1
 149 1395 l 1
149 1395 m 1
 324 1409 l 1
 324 864 l 1
 382 963 493 1019 631 1019 c 0
 861 1019 965 880 965 612 c 2
 965 0 l 1
 790 0 l 1
 790 623 l 2
 790 788 754 889 601 889 c 0
 385 889 324 752 324 546 c 2
 324 0 l 1
 149 0 l 1
 149 1395 l 1
149 1395 m 1
 324 1409 l 1
 324 864 l 1
 382 963 493 1019 631 1019 c 0
 861 1019 965 880 965 612 c 2
 965 0 l 1
 790 0 l 1
 790 623 l 2
 790 788 754 889 601 889 c 0
 385 889 324 752 324 546 c 2
 324 0 l 1
 149 0 l 1
 149 1395 l 1
149 1395 m 1
 324 1409 l 1
 324 864 l 1
 382 963 493 1019 631 1019 c 0
 861 1019 965 880 965 612 c 2
 965 0 l 1
 790 0 l 1
 790 623 l 2
 790 788 754 889 601 889 c 0
 385 889 324 752 324 546 c 2
 324 0 l 1
 149 0 l 1
 149 1395 l 1
149 1395 m 1
 324 1409 l 1
 324 864 l 1
 382 963 493 1019 631 1019 c 0
 861 1019 965 880 965 612 c 2
 965 0 l 1
 790 0 l 1
 790 623 l 2
 790 788 754 889 601 889 c 0
 385 889 324 752 324 546 c 2
 324 0 l 1
 149 0 l 1
 149 1395 l 1
EndSplineSet
EndChar

StartChar: kgreenlandic
Encoding: 312 312 297
Width: 1047
Flags: W
LayerCount: 2
Fore
SplineSet
130 0 m 1
 130 999 l 1
 281 999 l 1
 281 520 l 1
 292 532 303 544 315 557 c 0
 431 690 589 855 724 998 c 1
 917 998 l 1
 502 555 l 1
 946 0 l 1
 757 0 l 1
 392 469 l 1
 281 373 l 1
 281 0 l 1
 130 0 l 1
EndSplineSet
EndChar

StartChar: uni0237
Encoding: 567 567 392
Width: 417
Flags: W
LayerCount: 2
Fore
SplineSet
-53 -398 m 1
 -73 -257 l 1
 -25 -257 l 2
 112 -257 123 -222 123 -122 c 2
 123 -52 l 1
 123 998 l 1
 298 998 l 1
 298 -68 l 2
 298 -312 243 -398 -5 -398 c 2
 -53 -398 l 1
EndSplineSet
EndChar

StartChar: uni030F
Encoding: 783 783 393
Width: 738
Flags: W
LayerCount: 2
Fore
SplineSet
547 1146 m 1
 322 1451 l 1
 460 1451 l 1
 640 1146 l 1
 547 1146 l 1
303 1146 m 1
 76 1451 l 1
 212 1451 l 1
 396 1146 l 1
 303 1146 l 1
EndSplineSet
EndChar

StartChar: uni0311
Encoding: 785 785 394
Width: 648
Flags: W
LayerCount: 2
Fore
SplineSet
200 1182 m 1
 95 1182 l 1
 95 1339 209 1417 321 1417 c 0
 434 1417 551 1339 551 1182 c 1
 445 1182 l 1
 445 1269 387 1310 321 1310 c 0
 255 1310 200 1269 200 1182 c 1
EndSplineSet
EndChar

StartChar: uni2206
Encoding: 8710 8710 395
Width: 1270
Flags: W
LayerCount: 2
Fore
SplineSet
602 1087 m 1
 282 158 l 1
 990 158 l 1
 664 1087 l 1
 632 1194 l 1
 602 1087 l 1
1173 78 m 1
 1173 0 l 1
 99 0 l 1
 99 78 l 1
 550 1402 l 1
 723 1402 l 1
 1173 78 l 1
EndSplineSet
EndChar

StartChar: uni1E02
Encoding: 7682 7682 396
Width: 1235
Flags: W
LayerCount: 2
Fore
SplineSet
582 1535 m 1
 582 1715 l 1
 735 1715 l 1
 735 1535 l 1
 582 1535 l 1
339 797 m 1
 632 797 l 2
 809 797 923 854 923 1031 c 0
 923 1208 795 1257 563 1257 c 2
 339 1257 l 1
 339 797 l 1
339 129 m 1
 625 129 l 2
 856 129 974 239 974 419 c 0
 974 611 842 671 587 671 c 2
 339 671 l 1
 339 129 l 1
178 0 m 1
 178 1390 l 1
 571 1390 l 2
 919 1390 1091 1289 1091 1055 c 0
 1091 989 1074 809 861 743 c 1
 1052 708 1142 574 1142 413 c 0
 1142 175 984 0 657 0 c 2
 178 0 l 1
581 1535 m 1
 581 1715 l 1
 734 1715 l 1
 734 1535 l 1
 581 1535 l 1
339 797 m 1
 632 797 l 2
 809 797 923 854 923 1031 c 0
 923 1208 795 1257 563 1257 c 2
 339 1257 l 1
 339 797 l 1
339 129 m 1
 625 129 l 2
 856 129 974 239 974 419 c 0
 974 611 842 671 587 671 c 2
 339 671 l 1
 339 129 l 1
178 0 m 1
 178 1390 l 1
 571 1390 l 2
 919 1390 1091 1289 1091 1055 c 0
 1091 989 1074 809 861 743 c 1
 1052 708 1142 574 1142 413 c 0
 1142 175 984 0 657 0 c 2
 178 0 l 1
580 1535 m 1
 580 1715 l 1
 733 1715 l 1
 733 1535 l 1
 580 1535 l 1
339 797 m 1
 632 797 l 2
 809 797 923 854 923 1031 c 0
 923 1208 795 1257 563 1257 c 2
 339 1257 l 1
 339 797 l 1
339 129 m 1
 625 129 l 2
 856 129 974 239 974 419 c 0
 974 611 842 671 587 671 c 2
 339 671 l 1
 339 129 l 1
178 0 m 1
 178 1390 l 1
 571 1390 l 2
 919 1390 1091 1289 1091 1055 c 0
 1091 989 1074 809 861 743 c 1
 1052 708 1142 574 1142 413 c 0
 1142 175 984 0 657 0 c 2
 178 0 l 1
579 1535 m 1
 579 1715 l 1
 732 1715 l 1
 732 1535 l 1
 579 1535 l 1
339 797 m 1
 632 797 l 2
 809 797 923 854 923 1031 c 0
 923 1208 795 1257 563 1257 c 2
 339 1257 l 1
 339 797 l 1
339 129 m 1
 625 129 l 2
 856 129 974 239 974 419 c 0
 974 611 842 671 587 671 c 2
 339 671 l 1
 339 129 l 1
178 0 m 1
 178 1390 l 1
 571 1390 l 2
 919 1390 1091 1289 1091 1055 c 0
 1091 989 1074 809 861 743 c 1
 1052 708 1142 574 1142 413 c 0
 1142 175 984 0 657 0 c 2
 178 0 l 1
578 1535 m 1
 578 1715 l 1
 731 1715 l 1
 731 1535 l 1
 578 1535 l 1
339 797 m 1
 632 797 l 2
 809 797 923 854 923 1031 c 0
 923 1208 795 1257 563 1257 c 2
 339 1257 l 1
 339 797 l 1
339 129 m 1
 625 129 l 2
 856 129 974 239 974 419 c 0
 974 611 842 671 587 671 c 2
 339 671 l 1
 339 129 l 1
178 0 m 1
 178 1390 l 1
 571 1390 l 2
 919 1390 1091 1289 1091 1055 c 0
 1091 989 1074 809 861 743 c 1
 1052 708 1142 574 1142 413 c 0
 1142 175 984 0 657 0 c 2
 178 0 l 1
577 1535 m 1
 577 1715 l 1
 730 1715 l 1
 730 1535 l 1
 577 1535 l 1
339 797 m 1
 632 797 l 2
 809 797 923 854 923 1031 c 0
 923 1208 795 1257 563 1257 c 2
 339 1257 l 1
 339 797 l 1
339 129 m 1
 625 129 l 2
 856 129 974 239 974 419 c 0
 974 611 842 671 587 671 c 2
 339 671 l 1
 339 129 l 1
178 0 m 1
 178 1390 l 1
 571 1390 l 2
 919 1390 1091 1289 1091 1055 c 0
 1091 989 1074 809 861 743 c 1
 1052 708 1142 574 1142 413 c 0
 1142 175 984 0 657 0 c 2
 178 0 l 1
578 1535 m 1
 578 1715 l 1
 731 1715 l 1
 731 1535 l 1
 578 1535 l 1
339 797 m 1
 632 797 l 2
 809 797 923 854 923 1031 c 0
 923 1208 795 1257 563 1257 c 2
 339 1257 l 1
 339 797 l 1
339 129 m 1
 625 129 l 2
 856 129 974 239 974 419 c 0
 974 611 842 671 587 671 c 2
 339 671 l 1
 339 129 l 1
178 0 m 1
 178 1390 l 1
 571 1390 l 2
 919 1390 1091 1289 1091 1055 c 0
 1091 989 1074 809 861 743 c 1
 1052 708 1142 574 1142 413 c 0
 1142 175 984 0 657 0 c 2
 178 0 l 1
579 1535 m 1
 579 1715 l 1
 732 1715 l 1
 732 1535 l 1
 579 1535 l 1
339 797 m 1
 632 797 l 2
 809 797 923 854 923 1031 c 0
 923 1208 795 1257 563 1257 c 2
 339 1257 l 1
 339 797 l 1
339 129 m 1
 625 129 l 2
 856 129 974 239 974 419 c 0
 974 611 842 671 587 671 c 2
 339 671 l 1
 339 129 l 1
178 0 m 1
 178 1390 l 1
 571 1390 l 2
 919 1390 1091 1289 1091 1055 c 0
 1091 989 1074 809 861 743 c 1
 1052 708 1142 574 1142 413 c 0
 1142 175 984 0 657 0 c 2
 178 0 l 1
578 1535 m 1
 578 1715 l 1
 731 1715 l 1
 731 1535 l 1
 578 1535 l 1
339 797 m 1
 632 797 l 2
 809 797 923 854 923 1031 c 0
 923 1208 795 1257 563 1257 c 2
 339 1257 l 1
 339 797 l 1
339 129 m 1
 625 129 l 2
 856 129 974 239 974 419 c 0
 974 611 842 671 587 671 c 2
 339 671 l 1
 339 129 l 1
178 0 m 1
 178 1390 l 1
 571 1390 l 2
 919 1390 1091 1289 1091 1055 c 0
 1091 989 1074 809 861 743 c 1
 1052 708 1142 574 1142 413 c 0
 1142 175 984 0 657 0 c 2
 178 0 l 1
577 1535 m 1
 577 1715 l 1
 730 1715 l 1
 730 1535 l 1
 577 1535 l 1
339 797 m 1
 632 797 l 2
 809 797 923 854 923 1031 c 0
 923 1208 795 1257 563 1257 c 2
 339 1257 l 1
 339 797 l 1
339 129 m 1
 625 129 l 2
 856 129 974 239 974 419 c 0
 974 611 842 671 587 671 c 2
 339 671 l 1
 339 129 l 1
178 0 m 1
 178 1390 l 1
 571 1390 l 2
 919 1390 1091 1289 1091 1055 c 0
 1091 989 1074 809 861 743 c 1
 1052 708 1142 574 1142 413 c 0
 1142 175 984 0 657 0 c 2
 178 0 l 1
567 1535 m 1
 567 1715 l 1
 720 1715 l 1
 720 1535 l 1
 567 1535 l 1
339 797 m 1
 632 797 l 2
 809 797 923 854 923 1031 c 0
 923 1208 795 1257 563 1257 c 2
 339 1257 l 1
 339 797 l 1
339 129 m 1
 625 129 l 2
 856 129 974 239 974 419 c 0
 974 611 842 671 587 671 c 2
 339 671 l 1
 339 129 l 1
178 0 m 1
 178 1390 l 1
 571 1390 l 2
 919 1390 1091 1289 1091 1055 c 0
 1091 989 1074 809 861 743 c 1
 1052 708 1142 574 1142 413 c 0
 1142 175 984 0 657 0 c 2
 178 0 l 1
583 1535 m 1
 583 1715 l 1
 736 1715 l 1
 736 1535 l 1
 583 1535 l 1
339 797 m 1
 632 797 l 2
 809 797 923 854 923 1031 c 0
 923 1208 795 1257 563 1257 c 2
 339 1257 l 1
 339 797 l 1
339 129 m 1
 625 129 l 2
 856 129 974 239 974 419 c 0
 974 611 842 671 587 671 c 2
 339 671 l 1
 339 129 l 1
178 0 m 1
 178 1390 l 1
 571 1390 l 2
 919 1390 1091 1289 1091 1055 c 0
 1091 989 1074 809 861 743 c 1
 1052 708 1142 574 1142 413 c 0
 1142 175 984 0 657 0 c 2
 178 0 l 1
EndSplineSet
EndChar

StartChar: uni1E03
Encoding: 7683 7683 397
Width: 1188
Flags: W
LayerCount: 2
Fore
SplineSet
543 1572 m 1
 543 1752 l 1
 696 1752 l 1
 696 1572 l 1
 543 1572 l 1
621 108 m 0
 815 108 911 265 911 499 c 0
 911 738 811 891 620 891 c 0
 405 891 329 741 329 482 c 0
 329 252 415 108 621 108 c 0
647 -21 m 0
 510 -21 384 45 329 163 c 1
 312 0 l 1
 154 0 l 1
 154 1395 l 1
 329 1409 l 1
 329 1053 l 2
 329 991 328 928 324 862 c 1
 390 955 516 1019 648 1019 c 0
 908 1019 1086 802 1086 504 c 0
 1086 198 926 -21 647 -21 c 0
EndSplineSet
EndChar

StartChar: uni1E0A
Encoding: 7690 7690 398
Width: 1410
Flags: W
LayerCount: 2
Fore
SplineSet
666 1576 m 1
 666 1756 l 1
 819 1756 l 1
 819 1576 l 1
 666 1576 l 1
178 0 m 1
 178 1390 l 1
 558 1390 l 2
 1008 1390 1307 1166 1307 698 c 0
 1307 253 1034 0 586 0 c 2
 178 0 l 1
356 1252 m 1
 356 137 l 1
 581 137 l 2
 939 137 1129 340 1129 694 c 0
 1129 1082 919 1252 554 1252 c 2
 356 1252 l 1
EndSplineSet
EndChar

StartChar: uni1E0B
Encoding: 7691 7691 399
Width: 1182
Flags: W
LayerCount: 2
Fore
SplineSet
493 1572 m 1
 493 1752 l 1
 646 1752 l 1
 646 1572 l 1
 493 1572 l 1
569 108 m 0
 775 108 861 252 861 482 c 0
 861 741 785 891 570 891 c 0
 379 891 278 738 278 499 c 0
 278 265 375 108 569 108 c 0
542 -21 m 0
 263 -21 104 198 104 504 c 0
 104 807 281 1019 541 1019 c 0
 673 1019 799 955 865 862 c 1
 861 928 861 991 861 1053 c 2
 861 1395 l 1
 1036 1409 l 1
 1036 0 l 1
 878 0 l 1
 861 163 l 1
 806 45 679 -21 542 -21 c 0
EndSplineSet
EndChar

StartChar: uni1E1E
Encoding: 7710 7710 400
Width: 1027
Flags: W
LayerCount: 2
Fore
SplineSet
491 1576 m 1
 491 1756 l 1
 644 1756 l 1
 644 1576 l 1
 491 1576 l 1
357 1251 m 1
 357 790 l 1
 891 790 l 1
 891 657 l 1
 357 657 l 1
 357 0 l 1
 178 0 l 1
 178 1390 l 1
 957 1390 l 1
 946 1251 l 1
 357 1251 l 1
EndSplineSet
EndChar

StartChar: uni1E1F
Encoding: 7711 7711 401
Width: 767
Flags: W
LayerCount: 2
Fore
SplineSet
314 1573 m 1
 314 1753 l 1
 467 1753 l 1
 467 1573 l 1
 314 1573 l 1
252 0 m 1
 252 886 l 1
 45 886 l 1
 50 981 l 1
 252 998 l 1
 252 1061 l 2
 252 1318 366 1410 544 1410 c 0
 589 1410 684 1398 702 1394 c 1
 690 1263 l 1
 665 1267 620 1273 584 1273 c 0
 482 1273 427 1230 427 1055 c 2
 427 998 l 1
 660 998 l 1
 660 886 l 1
 427 886 l 1
 427 0 l 1
 252 0 l 1
EndSplineSet
EndChar

StartChar: uni1E40
Encoding: 7744 7744 402
Width: 1663
Flags: W
LayerCount: 2
Fore
SplineSet
755 1576 m 1
 755 1756 l 1
 908 1756 l 1
 908 1576 l 1
 755 1576 l 1
1278 1390 m 1
 1485 1390 l 1
 1485 0 l 1
 1330 0 l 1
 1330 843 l 1
 1337 1163 l 1
 911 108 l 1
 753 108 l 1
 322 1167 l 1
 333 839 l 1
 333 0 l 1
 178 0 l 1
 178 1390 l 1
 391 1390 l 1
 832 305 l 1
 1278 1390 l 1
EndSplineSet
EndChar

StartChar: uni1E41
Encoding: 7745 7745 403
Width: 1675
Flags: W
LayerCount: 2
Fore
SplineSet
770 1182 m 1
 770 1362 l 1
 923 1362 l 1
 923 1182 l 1
 770 1182 l 1
318 525 m 2
 318 0 l 1
 149 0 l 1
 149 0 147 936 147 998 c 1
 292 998 l 1
 310 855 l 1
 362 939 462 1019 605 1019 c 0
 788 1019 868 918 895 840 c 1
 964 960 1081 1019 1216 1019 c 0
 1428 1019 1546 886 1546 642 c 2
 1546 0 l 1
 1377 0 l 1
 1377 520 l 2
 1377 734 1358 889 1191 889 c 0
 1004 889 934 751 934 535 c 2
 934 0 l 1
 765 0 l 1
 765 563 l 2
 765 787 720 889 582 889 c 0
 375 889 318 738 318 525 c 2
EndSplineSet
EndChar

StartChar: uni1E56
Encoding: 7766 7766 404
Width: 1166
Flags: W
LayerCount: 2
Fore
SplineSet
556 1576 m 1
 556 1756 l 1
 709 1756 l 1
 709 1576 l 1
 556 1576 l 1
616 744 m 0
 840 744 908 840 908 1020 c 0
 908 1182 796 1253 625 1253 c 2
 358 1253 l 1
 358 746 l 1
 358 746 553 744 616 744 c 0
179 0 m 1
 179 1390 l 1
 629 1390 l 2
 892 1390 1087 1268 1087 1023 c 0
 1087 770 952 613 608 613 c 0
 535 613 428 612 358 616 c 1
 358 0 l 1
 179 0 l 1
EndSplineSet
EndChar

StartChar: uni1E57
Encoding: 7767 7767 405
Width: 1185
Flags: W
LayerCount: 2
Fore
SplineSet
540 1182 m 1
 540 1362 l 1
 693 1362 l 1
 693 1182 l 1
 540 1182 l 1
621 107 m 0
 812 107 908 261 908 500 c 0
 908 734 816 890 622 890 c 0
 416 890 326 746 326 516 c 0
 326 257 434 107 621 107 c 0
151 998 m 1
 309 998 l 1
 326 835 l 1
 383 956 517 1019 654 1019 c 0
 933 1019 1083 800 1083 494 c 0
 1083 196 915 -21 645 -21 c 0
 513 -21 377 48 321 154 c 1
 325 88 326 7 326 -55 c 2
 326 -423 l 1
 151 -433 l 1
 151 998 l 1
EndSplineSet
EndChar

StartChar: uni1E60
Encoding: 7776 7776 406
Width: 1229
Flags: W
LayerCount: 2
Fore
SplineSet
524 1576 m 1
 524 1756 l 1
 677 1756 l 1
 677 1576 l 1
 524 1576 l 1
606 -18 m 0
 380 -18 219 59 140 110 c 1
 195 238 l 1
 307 172 440 120 606 120 c 0
 786 120 906 204 906 369 c 0
 906 492 831 565 663 624 c 2
 434 704 l 1
 258 760 142 871 142 1051 c 0
 142 1316 360 1413 617 1413 c 0
 776 1413 918 1356 1006 1298 c 1
 951 1173 l 1
 887 1212 764 1275 623 1275 c 0
 451 1275 301 1215 301 1062 c 0
 301 956 368 886 491 848 c 1
 708 772 l 1
 905 711 1061 612 1061 376 c 0
 1061 105 867 -18 606 -18 c 0
EndSplineSet
EndChar

StartChar: uni1E61
Encoding: 7777 7777 407
Width: 894
Flags: W
LayerCount: 2
Fore
SplineSet
379 1182 m 1
 379 1362 l 1
 532 1362 l 1
 532 1182 l 1
 379 1182 l 1
442 -21 m 0
 299 -21 190 5 124 48 c 1
 156 168 l 1
 222 133 315 98 434 98 c 0
 573 98 653 154 653 254 c 0
 653 342 613 373 430 439 c 1
 362 465 l 1
 185 530 118 620 117 745 c 1
 117 896 234 1019 460 1019 c 0
 578 1019 668 996 757 954 c 1
 719 845 l 1
 642 877 563 899 467 899 c 0
 341 899 268 836 268 751 c 0
 268 672 309 649 452 593 c 2
 516 568 l 2
 714 491 795 420 795 269 c 1
 792 82 660 -21 442 -21 c 0
EndSplineSet
EndChar

StartChar: uni1E6A
Encoding: 7786 7786 408
Width: 1088
Flags: W
LayerCount: 2
Fore
SplineSet
468 1576 m 1
 468 1756 l 1
 621 1756 l 1
 621 1576 l 1
 468 1576 l 1
1050 1390 m 1
 1050 1251 l 1
 634 1251 l 1
 634 0 l 1
 455 0 l 1
 455 1251 l 1
 40 1251 l 1
 40 1390 l 1
 1050 1390 l 1
EndSplineSet
EndChar

StartChar: uni1E6B
Encoding: 7787 7787 409
Width: 863
Flags: W
LayerCount: 2
Fore
SplineSet
350 1393 m 1
 350 1573 l 1
 503 1573 l 1
 503 1393 l 1
 350 1393 l 1
553 -18 m 0
 353 -18 256 104 256 313 c 2
 256 885 l 1
 108 885 l 1
 114 986 l 1
 255 998 l 1
 307 1227 l 1
 431 1230 l 1
 431 998 l 1
 722 998 l 1
 722 885 l 1
 431 885 l 1
 431 313 l 2
 431 160 471 114 582 114 c 0
 617 114 673 122 718 139 c 1
 745 13 l 1
 683 -13 592 -18 553 -18 c 0
EndSplineSet
EndChar

StartChar: Wgrave
Encoding: 7808 7808 410
Width: 2002
Flags: W
LayerCount: 2
Fore
SplineSet
950 1576 m 1
 656 1929 l 1
 884 1929 l 1
 1052 1576 l 1
 950 1576 l 1
911 1365 m 1
 1093 1365 l 1
 1423 221 l 1
 1759 1390 l 1
 1936 1390 l 1
 1521 0 l 1
 1336 0 l 1
 1009 1160 l 1
 660 0 l 1
 478 0 l 1
 66 1390 l 1
 244 1390 l 1
 573 222 l 1
 911 1365 l 1
EndSplineSet
EndChar

StartChar: wgrave
Encoding: 7809 7809 411
Width: 1498
Flags: W
LayerCount: 2
Fore
SplineSet
698 1182 m 1
 404 1535 l 1
 632 1535 l 1
 800 1182 l 1
 698 1182 l 1
51 998 m 1
 214 998 l 1
 422 190 l 1
 660 998 l 1
 843 998 l 1
 1089 193 l 1
 1287 998 l 1
 1447 998 l 1
 1172 0 l 1
 1013 0 l 1
 752 855 l 1
 499 0 l 1
 332 0 l 1
 51 998 l 1
EndSplineSet
EndChar

StartChar: Wacute
Encoding: 7810 7810 412
Width: 2002
Flags: W
LayerCount: 2
Fore
SplineSet
949 1576 m 1
 1119 1929 l 1
 1349 1929 l 1
 1053 1576 l 1
 949 1576 l 1
911 1365 m 1
 1093 1365 l 1
 1423 221 l 1
 1759 1390 l 1
 1936 1390 l 1
 1521 0 l 1
 1336 0 l 1
 1009 1160 l 1
 660 0 l 1
 478 0 l 1
 66 1390 l 1
 244 1390 l 1
 573 222 l 1
 911 1365 l 1
EndSplineSet
EndChar

StartChar: wacute
Encoding: 7811 7811 413
Width: 1498
Flags: W
LayerCount: 2
Fore
SplineSet
697 1182 m 1
 867 1535 l 1
 1097 1535 l 1
 801 1182 l 1
 697 1182 l 1
51 998 m 1
 214 998 l 1
 422 190 l 1
 660 998 l 1
 843 998 l 1
 1089 193 l 1
 1287 998 l 1
 1447 998 l 1
 1172 0 l 1
 1013 0 l 1
 752 855 l 1
 499 0 l 1
 332 0 l 1
 51 998 l 1
EndSplineSet
EndChar

StartChar: Wdieresis
Encoding: 7812 7812 414
Width: 2002
Flags: W
LayerCount: 2
Fore
SplineSet
1108 1576 m 1
 1108 1769 l 1
 1249 1769 l 1
 1249 1576 l 1
 1108 1576 l 1
753 1576 m 1
 753 1769 l 1
 894 1769 l 1
 894 1576 l 1
 753 1576 l 1
911 1365 m 1
 1093 1365 l 1
 1423 221 l 1
 1759 1390 l 1
 1936 1390 l 1
 1521 0 l 1
 1336 0 l 1
 1009 1160 l 1
 660 0 l 1
 478 0 l 1
 66 1390 l 1
 244 1390 l 1
 573 222 l 1
 911 1365 l 1
EndSplineSet
EndChar

StartChar: wdieresis
Encoding: 7813 7813 415
Width: 1498
Flags: W
LayerCount: 2
Fore
SplineSet
856 1182 m 1
 856 1375 l 1
 997 1375 l 1
 997 1182 l 1
 856 1182 l 1
501 1182 m 1
 501 1375 l 1
 642 1375 l 1
 642 1182 l 1
 501 1182 l 1
51 998 m 1
 214 998 l 1
 422 190 l 1
 660 998 l 1
 843 998 l 1
 1089 193 l 1
 1287 998 l 1
 1447 998 l 1
 1172 0 l 1
 1013 0 l 1
 752 855 l 1
 499 0 l 1
 332 0 l 1
 51 998 l 1
EndSplineSet
EndChar

StartChar: Ygrave
Encoding: 7922 7922 416
Width: 1181
Flags: W
LayerCount: 2
Fore
SplineSet
540 1576 m 1
 246 1929 l 1
 474 1929 l 1
 642 1576 l 1
 540 1576 l 1
605 723 m 1
 992 1390 l 1
 1170 1390 l 1
 695 577 l 1
 695 0 l 1
 517 0 l 1
 517 573 l 1
 13 1390 l 1
 191 1390 l 1
 605 723 l 1
EndSplineSet
EndChar

StartChar: ygrave
Encoding: 7923 7923 417
Width: 1045
Flags: W
LayerCount: 2
Fore
SplineSet
474 1182 m 1
 180 1535 l 1
 408 1535 l 1
 576 1182 l 1
 474 1182 l 1
104 -412 m 1
 98 -281 l 1
 107 -284 218 -294 243 -294 c 0
 337 -294 400 -268 446 -124 c 0
 459 -84 482 33 482 33 c 1
 44 998 l 1
 232 998 l 1
 563 199 l 1
 817 998 l 1
 1005 998 l 1
 1005 998 608 -127 595 -161 c 0
 518 -365 427 -429 264 -429 c 0
 233 -429 124 -417 104 -412 c 1
EndSplineSet
EndChar

StartChar: Euro
Encoding: 8364 8364 418
Width: 1125
Flags: W
LayerCount: 2
Fore
SplineSet
725 -20 m 0
 408 -20 260 261 221 528 c 1
 111 528 l 1
 126 622 l 1
 210 622 l 1
 209 637 208 650 208 665 c 0
 208 700 211 735 213 769 c 1
 110 769 l 1
 127 871 l 1
 228 871 l 1
 274 1172 441 1387 739 1387 c 0
 852 1387 936 1359 1005 1300 c 1
 1004 1137 l 1
 943 1203 858 1246 759 1246 c 0
 552 1246 438 1095 401 871 c 1
 909 871 l 1
 894 769 l 1
 385 769 l 1
 380 724 382 623 380 622 c 1
 880 622 l 1
 871 528 l 1
 396 528 l 1
 421 314 528 123 743 123 c 0
 830 123 918 154 1005 222 c 1
 1004 63 l 1
 924 5 833 -20 725 -20 c 0
EndSplineSet
EndChar

StartChar: uniFB01
Encoding: 64257 64257 419
Width: 1091
Flags: W
LayerCount: 2
Fore
SplineSet
803 1181 m 1
 803 1361 l 1
 956 1361 l 1
 956 1181 l 1
 803 1181 l 1
104 892 m 1
 104 999 l 1
 250 999 l 1
 250 1036 l 1
 256 1326 338 1398 576 1398 c 2
 642 1398 l 1
 661 1281 l 1
 575 1281 l 2
 418 1281 404 1219 403 1034 c 1
 403 999 l 1
 956 999 l 1
 956 0 l 1
 803 0 l 1
 803 892 l 1
 403 892 l 1
 403 0 l 1
 250 0 l 1
 250 892 l 1
 104 892 l 1
EndSplineSet
EndChar

StartChar: uniFB02
Encoding: 64258 64258 420
Width: 1287
Flags: W
LayerCount: 2
Fore
SplineSet
1081 -11 m 0
 833 -11 821 112 821 443 c 2
 821 1252 l 1
 725 1258 670 1260 638 1260 c 0
 606 1260 597 1259 592 1259 c 0
 444 1259 403 1185 403 999 c 1
 630 999 l 1
 630 892 l 1
 403 892 l 1
 403 0 l 1
 250 0 l 1
 250 892 l 1
 104 892 l 1
 104 999 l 1
 250 999 l 1
 250 1026 l 1
 257 1299 379 1376 586 1376 c 0
 604 1376 623 1376 974 1356 c 1
 974 410 l 2
 974 193 974 116 1117 116 c 0
 1140 116 1137 116 1184 120 c 1
 1194 1 l 1
 1106 -9 1096 -11 1081 -11 c 0
EndSplineSet
EndChar

StartChar: uni0307
Encoding: 775 775 421
Width: 349
Flags: W
LayerCount: 2
Fore
SplineSet
97 1181 m 1
 97 1361 l 1
 250 1361 l 1
 250 1181 l 1
 97 1181 l 1
EndSplineSet
EndChar

StartChar: uni0326
Encoding: 806 806 422
Width: 369
Flags: W
LayerCount: 2
Fore
SplineSet
57 -612 m 1
 143 -158 l 1
 294 -158 l 1
 164 -612 l 1
 57 -612 l 1
EndSplineSet
EndChar

StartChar: uni2074
Encoding: 8308 8308 423
Width: 713
Flags: W
LayerCount: 2
Fore
SplineSet
406 1218 m 1
 215 890 l 1
 405 890 l 1
 406 1218 l 1
397 1382 m 1
 505 1382 l 1
 505 890 l 1
 591 890 l 1
 600 787 l 1
 503 787 l 1
 503 602 l 1
 406 602 l 1
 406 787 l 1
 105 787 l 1
 105 877 l 1
 397 1382 l 1
EndSplineSet
EndChar

StartChar: Tbar
Encoding: 358 358 424
Width: 1131
Flags: W
LayerCount: 2
Fore
SplineSet
484 595 m 1
 484 1220 l 1
 77 1220 l 1
 77 1361 l 1
 1053 1361 l 1
 1053 1220 l 1
 645 1220 l 1
 645 595 l 1
 793 595 l 1
 793 483 l 1
 645 483 l 1
 645 0 l 1
 484 0 l 1
 484 483 l 1
 330 483 l 1
 330 595 l 1
 484 595 l 1
EndSplineSet
EndChar

StartChar: tbar
Encoding: 359 359 425
Width: 815
Flags: W
LayerCount: 2
Fore
SplineSet
528 -18 m 0
 285 -18 266 101 266 405 c 2
 266 581 l 1
 125 581 l 1
 125 695 l 1
 266 695 l 1
 266 892 l 1
 114 892 l 1
 126 999 l 1
 266 999 l 1
 306 1225 l 1
 419 1233 l 1
 419 999 l 1
 683 999 l 1
 683 892 l 1
 419 892 l 1
 419 695 l 1
 609 695 l 1
 609 581 l 1
 419 581 l 1
 419 334 l 2
 419 147 441 107 563 107 c 0
 580 107 617 112 687 117 c 1
 701 -6 l 1
 587 -16 559 -18 528 -18 c 0
EndSplineSet
EndChar

StartChar: eng
Encoding: 331 331 426
Width: 1096
Flags: W
LayerCount: 2
Fore
SplineSet
653 -275 m 2
 589 -275 l 1
 578 -128 l 1
 617 -128 l 2
 774 -128 790 -100 790 95 c 2
 790 623 l 2
 790 788 754 889 601 889 c 0
 439 889 363 801 333 686 c 1
 327 643 324 597 324 546 c 2
 324 0 l 1
 149 0 l 1
 149 998 l 1
 298 998 l 1
 317 855 l 1
 389 963 492 1019 635 1019 c 0
 865 1019 965 880 965 612 c 2
 965 144 l 2
 965 -134 923 -275 653 -275 c 2
EndSplineSet
EndChar

StartChar: Eng
Encoding: 330 330 427
Width: 1292
Flags: W
LayerCount: 2
Fore
SplineSet
769 -298 m 0
 744 -298 698 -297 587 -286 c 1
 566 -151 l 1
 690 -158 709 -159 728 -159 c 0
 980 -159 1001 -92 1001 156 c 2
 1001 913 l 2
 1001 1155 934 1236 737 1236 c 0
 539 1236 384 1121 298 991 c 1
 298 0 l 1
 138 0 l 1
 136 1361 l 1
 282 1361 l 1
 298 1168 l 1
 463 1346 627 1383 785 1383 c 0
 1032 1383 1160 1220 1160 918 c 2
 1160 150 l 2
 1160 -130 1098 -298 769 -298 c 0
EndSplineSet
EndChar

StartChar: Alpha
Encoding: 913 913 429
Width: 1344
Flags: W
LayerCount: 2
Fore
SplineSet
1090 0 m 1
 935 430 l 1
 421 430 l 1
 264 0 l 1
 90 0 l 1
 574 1346 l 1
 772 1346 l 1
 1255 0 l 1
 1090 0 l 1
474 561 m 1
 885 561 l 1
 885 561 692 1117 672 1186 c 1
 654 1126 474 561 474 561 c 1
EndSplineSet
EndChar

StartChar: Alphatonos
Encoding: 902 902 430
Width: 451
Flags: W
LayerCount: 2
Fore
SplineSet
223 484 m 0
 143 484 102 544 102 604 c 0
 102 664 143 724 223 724 c 0
 304 724 344 664 344 604 c 0
 344 544 304 484 223 484 c 0
EndSplineSet
EndChar

StartChar: Beta
Encoding: 914 914 432
Width: 1201
Flags: W
LayerCount: 2
Fore
SplineSet
294 1213 m 1
 294 767 l 1
 582 767 l 2
 756 767 867 814 867 991 c 0
 867 1168 741 1213 514 1213 c 2
 294 1213 l 1
294 641 m 1
 294 129 l 1
 575 129 l 2
 801 129 917 209 917 389 c 0
 917 581 787 641 537 641 c 2
 294 641 l 1
136 0 m 1
 136 1346 l 1
 522 1346 l 2
 863 1346 1032 1249 1032 1015 c 0
 1032 949 1015 779 806 713 c 1
 993 678 1082 544 1082 383 c 0
 1082 145 927 0 606 0 c 2
 136 0 l 1
EndSplineSet
EndChar

StartChar: Chi
Encoding: 935 935 433
Width: 1279
Flags: W
LayerCount: 2
Fore
SplineSet
733 679 m 1
 1181 0 l 1
 999 0 l 1
 642 542 l 1
 286 0 l 1
 104 0 l 1
 551 679 l 1
 104 1346 l 1
 286 1346 l 1
 642 816 l 1
 999 1346 l 1
 1181 1346 l 1
 733 679 l 1
EndSplineSet
EndChar

StartChar: Dcroat
Encoding: 272 272 434
Width: 1490
Flags: W
LayerCount: 2
Fore
SplineSet
223 757 m 1
 223 1361 l 1
 561 1361 l 2
 1031 1361 1374 1197 1374 672 c 0
 1374 219 1084 0 654 0 c 2
 223 0 l 1
 223 634 l 1
 116 634 l 1
 116 757 l 1
 223 757 l 1
384 634 m 1
 384 141 l 1
 671 141 l 2
 1004 141 1202 316 1202 668 c 0
 1202 1097 953 1220 581 1220 c 2
 384 1220 l 1
 384 757 l 1
 604 757 l 1
 604 634 l 1
 384 634 l 1
EndSplineSet
EndChar

StartChar: Epsilon
Encoding: 917 917 435
Width: 1074
Flags: W
LayerCount: 2
Fore
SplineSet
311 1207 m 1
 311 766 l 1
 894 766 l 1
 894 629 l 1
 311 629 l 1
 311 139 l 1
 952 139 l 1
 945 0 l 1
 136 0 l 1
 136 1346 l 1
 952 1346 l 1
 945 1207 l 1
 311 1207 l 1
EndSplineSet
EndChar

StartChar: Epsilontonos
Encoding: 904 904 436
Width: 451
Flags: W
LayerCount: 2
Fore
SplineSet
223 484 m 0
 143 484 102 544 102 604 c 0
 102 664 143 724 223 724 c 0
 304 724 344 664 344 604 c 0
 344 544 304 484 223 484 c 0
EndSplineSet
EndChar

StartChar: Eta
Encoding: 919 919 437
Width: 1320
Flags: W
LayerCount: 2
Fore
SplineSet
1010 768 m 1
 1010 1346 l 1
 1185 1346 l 1
 1185 0 l 1
 1010 0 l 1
 1010 630 l 1
 311 630 l 1
 311 0 l 1
 136 0 l 1
 136 1346 l 1
 311 1346 l 1
 311 768 l 1
 1010 768 l 1
EndSplineSet
EndChar

StartChar: Etatonos
Encoding: 905 905 438
Width: 451
Flags: W
LayerCount: 2
Fore
SplineSet
223 484 m 0
 143 484 102 544 102 604 c 0
 102 664 143 724 223 724 c 0
 304 724 344 664 344 604 c 0
 344 544 304 484 223 484 c 0
EndSplineSet
EndChar

StartChar: Gamma
Encoding: 915 915 439
Width: 1005
Flags: W
LayerCount: 2
Fore
SplineSet
298 1220 m 1
 298 0 l 1
 136 0 l 1
 136 1361 l 1
 930 1361 l 1
 916 1220 l 1
 298 1220 l 1
EndSplineSet
EndChar

StartChar: Iota
Encoding: 921 921 441
Width: 446
Flags: W
LayerCount: 2
Fore
SplineSet
136 0 m 1
 136 1346 l 1
 311 1346 l 1
 311 0 l 1
 136 0 l 1
EndSplineSet
EndChar

StartChar: Iotadieresis
Encoding: 938 938 442
Width: 446
Flags: W
LayerCount: 2
Fore
SplineSet
331 1576 m 1
 331 1769 l 1
 472 1769 l 1
 472 1576 l 1
 331 1576 l 1
-24 1576 m 1
 -24 1769 l 1
 117 1769 l 1
 117 1576 l 1
 -24 1576 l 1
137 0 m 1
 137 1346 l 1
 312 1346 l 1
 312 0 l 1
 137 0 l 1
EndSplineSet
EndChar

StartChar: Iotatonos
Encoding: 906 906 443
Width: 451
Flags: W
LayerCount: 2
Fore
SplineSet
223 484 m 0
 143 484 102 544 102 604 c 0
 102 664 143 724 223 724 c 0
 304 724 344 664 344 604 c 0
 344 544 304 484 223 484 c 0
EndSplineSet
EndChar

StartChar: Kappa
Encoding: 922 922 444
Width: 1220
Flags: W
LayerCount: 2
Fore
SplineSet
878 1346 m 1
 1098 1346 l 1
 553 743 l 1
 1127 0 l 1
 908 0 l 1
 415 646 l 1
 311 543 l 1
 311 0 l 1
 136 0 l 1
 136 1346 l 1
 311 1346 l 1
 311 732 l 1
 878 1346 l 1
EndSplineSet
EndChar

StartChar: Lambda
Encoding: 923 923 445
Width: 1347
Flags: W
LayerCount: 2
Fore
SplineSet
1094 0 m 1
 674 1188 l 1
 260 0 l 1
 90 0 l 1
 590 1361 l 1
 758 1361 l 1
 1259 0 l 1
 1094 0 l 1
EndSplineSet
EndChar

StartChar: Mu
Encoding: 924 924 446
Width: 1611
Flags: W
LayerCount: 2
Fore
SplineSet
1278 1346 m 1
 1476 1346 l 1
 1476 0 l 1
 1323 0 l 1
 1323 810 l 1
 1330 1132 l 1
 1296 1040 l 1
 885 83 l 1
 731 83 l 1
 312 1044 l 1
 278 1136 l 1
 289 806 l 1
 289 0 l 1
 136 0 l 1
 136 1346 l 1
 340 1346 l 1
 807 274 l 1
 1278 1346 l 1
EndSplineSet
EndChar

StartChar: Nu
Encoding: 925 925 447
Width: 1378
Flags: W
LayerCount: 2
Fore
SplineSet
1096 219 m 1
 1096 219 1090 509 1090 555 c 2
 1090 1346 l 1
 1243 1346 l 1
 1243 0 l 1
 1065 0 l 1
 806 377 540 747 284 1127 c 1
 284 1127 289 894 289 786 c 2
 289 0 l 1
 136 0 l 1
 136 1346 l 1
 312 1346 l 1
 572 970 838 598 1096 219 c 1
EndSplineSet
EndChar

StartChar: Omegatonos
Encoding: 911 911 449
Width: 451
Flags: W
LayerCount: 2
Fore
SplineSet
223 484 m 0
 143 484 102 544 102 604 c 0
 102 664 143 724 223 724 c 0
 304 724 344 664 344 604 c 0
 344 544 304 484 223 484 c 0
EndSplineSet
EndChar

StartChar: Omicron
Encoding: 927 927 450
Width: 1511
Flags: W
LayerCount: 2
Fore
SplineSet
754 118 m 0
 1072 118 1220 349 1220 667 c 0
 1220 997 1066 1228 755 1228 c 0
 444 1228 288 998 288 667 c 0
 288 349 436 118 754 118 c 0
754 -20 m 0
 339 -20 114 251 114 668 c 0
 114 1095 347 1366 755 1366 c 0
 1156 1366 1395 1092 1395 667 c 0
 1395 257 1164 -20 754 -20 c 0
EndSplineSet
EndChar

StartChar: Omicrontonos
Encoding: 908 908 451
Width: 451
Flags: W
LayerCount: 2
Fore
SplineSet
223 484 m 0
 143 484 102 544 102 604 c 0
 102 664 143 724 223 724 c 0
 304 724 344 664 344 604 c 0
 344 544 304 484 223 484 c 0
EndSplineSet
EndChar

StartChar: Phi
Encoding: 934 934 453
Width: 1547
Flags: W
LayerCount: 2
Fore
SplineSet
851 1097 m 1
 851 294 l 1
 1138 320 1264 492 1264 703 c 0
 1264 920 1128 1073 851 1097 c 1
690 294 m 1
 690 1097 l 1
 418 1072 280 921 280 703 c 0
 280 493 406 321 690 294 c 1
851 0 m 1
 690 0 l 1
 690 155 l 1
 308 183 108 410 108 703 c 0
 108 1001 320 1210 690 1236 c 1
 690 1361 l 1
 851 1361 l 1
 851 1236 l 1
 1224 1211 1436 1002 1436 703 c 0
 1436 409 1236 181 851 155 c 1
 851 0 l 1
EndSplineSet
EndChar

StartChar: Pi
Encoding: 928 928 454
Width: 1337
Flags: W
LayerCount: 2
Fore
SplineSet
1041 0 m 1
 1041 1223 l 1
 298 1223 l 1
 298 0 l 1
 136 0 l 1
 136 1361 l 1
 1202 1361 l 1
 1202 0 l 1
 1041 0 l 1
EndSplineSet
EndChar

StartChar: Psi
Encoding: 936 936 455
Width: 451
Flags: W
LayerCount: 2
Fore
SplineSet
223 484 m 0
 143 484 102 544 102 604 c 0
 102 664 143 724 223 724 c 0
 304 724 344 664 344 604 c 0
 344 544 304 484 223 484 c 0
EndSplineSet
EndChar

StartChar: Rho
Encoding: 929 929 456
Width: 1120
Flags: W
LayerCount: 2
Fore
SplineSet
533 700 m 0
 753 700 835 796 835 976 c 0
 835 1138 710 1201 542 1201 c 2
 311 1201 l 1
 311 710 l 1
 311 710 471 700 533 700 c 0
136 0 m 1
 136 1346 l 1
 546 1346 l 2
 804 1346 1010 1224 1010 979 c 0
 1010 726 862 569 525 569 c 0
 469 569 380 575 311 581 c 1
 311 0 l 1
 136 0 l 1
EndSplineSet
EndChar

StartChar: Sigma
Encoding: 931 931 457
Width: 1074
Flags: W
LayerCount: 2
Fore
SplineSet
311 1207 m 1
 311 766 l 1
 894 766 l 1
 894 629 l 1
 311 629 l 1
 311 139 l 1
 952 139 l 1
 945 0 l 1
 136 0 l 1
 136 1346 l 1
 952 1346 l 1
 945 1207 l 1
 311 1207 l 1
EndSplineSet
EndChar

StartChar: Tau
Encoding: 932 932 458
Width: 1147
Flags: W
LayerCount: 2
Fore
SplineSet
1067 1346 m 1
 1067 1207 l 1
 660 1207 l 1
 660 0 l 1
 485 0 l 1
 485 1207 l 1
 77 1207 l 1
 77 1346 l 1
 1067 1346 l 1
EndSplineSet
EndChar

StartChar: Theta
Encoding: 920 920 459
Width: 451
Flags: W
LayerCount: 2
Fore
SplineSet
223 484 m 0
 143 484 102 544 102 604 c 0
 102 664 143 724 223 724 c 0
 304 724 344 664 344 604 c 0
 344 544 304 484 223 484 c 0
EndSplineSet
EndChar

StartChar: Upsilon
Encoding: 933 933 461
Width: 1248
Flags: W
LayerCount: 2
Fore
SplineSet
623 683 m 1
 1002 1346 l 1
 1177 1346 l 1
 711 537 l 1
 711 0 l 1
 536 0 l 1
 536 533 l 1
 70 1346 l 1
 245 1346 l 1
 623 683 l 1
EndSplineSet
EndChar

StartChar: Upsilondieresis
Encoding: 939 939 462
Width: 1248
Flags: W
LayerCount: 2
Fore
SplineSet
731 1576 m 1
 731 1769 l 1
 872 1769 l 1
 872 1576 l 1
 731 1576 l 1
376 1576 m 1
 376 1769 l 1
 517 1769 l 1
 517 1576 l 1
 376 1576 l 1
624 683 m 1
 1003 1346 l 1
 1178 1346 l 1
 712 537 l 1
 712 0 l 1
 537 0 l 1
 537 533 l 1
 71 1346 l 1
 246 1346 l 1
 624 683 l 1
EndSplineSet
EndChar

StartChar: Upsilontonos
Encoding: 910 910 463
Width: 451
Flags: W
LayerCount: 2
Fore
SplineSet
223 484 m 0
 143 484 102 544 102 604 c 0
 102 664 143 724 223 724 c 0
 304 724 344 664 344 604 c 0
 344 544 304 484 223 484 c 0
EndSplineSet
EndChar

StartChar: Xi
Encoding: 926 926 464
Width: 451
Flags: W
LayerCount: 2
Fore
SplineSet
223 484 m 0
 143 484 102 544 102 604 c 0
 102 664 143 724 223 724 c 0
 304 724 344 664 344 604 c 0
 344 544 304 484 223 484 c 0
EndSplineSet
EndChar

StartChar: Zeta
Encoding: 918 918 465
Width: 1159
Flags: W
LayerCount: 2
Fore
SplineSet
137 1346 m 1
 1044 1346 l 1
 1044 1228 l 1
 308 140 l 1
 1050 140 l 1
 1045 0 l 1
 111 0 l 1
 111 124 l 1
 843 1206 l 1
 137 1206 l 1
 137 1346 l 1
EndSplineSet
EndChar

StartChar: afii10017
Encoding: 1040 1040 467
Width: 1224
Flags: W
LayerCount: 2
Fore
SplineSet
37 0 m 1
 541 1390 l 1
 743 1390 l 1
 1246 0 l 1
 1078 0 l 1
 919 430 l 1
 375 430 l 1
 215 0 l 1
 37 0 l 1
426 561 m 1
 870 561 l 1
 641 1223 l 1
 426 561 l 1
37 0 m 1
 541 1390 l 1
 743 1390 l 1
 1246 0 l 1
 1078 0 l 1
 919 430 l 1
 375 430 l 1
 215 0 l 1
 37 0 l 1
426 561 m 1
 870 561 l 1
 641 1223 l 1
 426 561 l 1
37 0 m 1
 541 1390 l 1
 743 1390 l 1
 1246 0 l 1
 1078 0 l 1
 919 430 l 1
 375 430 l 1
 215 0 l 1
 37 0 l 1
426 561 m 1
 870 561 l 1
 641 1223 l 1
 426 561 l 1
37 0 m 1
 541 1390 l 1
 743 1390 l 1
 1246 0 l 1
 1078 0 l 1
 919 430 l 1
 375 430 l 1
 215 0 l 1
 37 0 l 1
426 561 m 1
 870 561 l 1
 641 1223 l 1
 426 561 l 1
37 0 m 1
 541 1390 l 1
 743 1390 l 1
 1246 0 l 1
 1078 0 l 1
 919 430 l 1
 375 430 l 1
 215 0 l 1
 37 0 l 1
426 561 m 1
 870 561 l 1
 641 1223 l 1
 426 561 l 1
37 0 m 1
 541 1390 l 1
 743 1390 l 1
 1246 0 l 1
 1078 0 l 1
 919 430 l 1
 375 430 l 1
 215 0 l 1
 37 0 l 1
426 561 m 1
 870 561 l 1
 641 1223 l 1
 426 561 l 1
37 0 m 1
 541 1390 l 1
 743 1390 l 1
 1246 0 l 1
 1078 0 l 1
 919 430 l 1
 375 430 l 1
 215 0 l 1
 37 0 l 1
426 561 m 1
 870 561 l 1
 641 1223 l 1
 426 561 l 1
37 0 m 1
 541 1390 l 1
 743 1390 l 1
 1246 0 l 1
 1078 0 l 1
 919 430 l 1
 375 430 l 1
 215 0 l 1
 37 0 l 1
426 561 m 1
 870 561 l 1
 641 1223 l 1
 426 561 l 1
37 0 m 1
 541 1390 l 1
 743 1390 l 1
 1246 0 l 1
 1078 0 l 1
 919 430 l 1
 375 430 l 1
 215 0 l 1
 37 0 l 1
426 561 m 1
 870 561 l 1
 641 1223 l 1
 426 561 l 1
37 0 m 1
 541 1390 l 1
 743 1390 l 1
 1246 0 l 1
 1078 0 l 1
 919 430 l 1
 375 430 l 1
 215 0 l 1
 37 0 l 1
426 561 m 1
 870 561 l 1
 641 1223 l 1
 426 561 l 1
37 0 m 1
 541 1390 l 1
 743 1390 l 1
 1246 0 l 1
 1078 0 l 1
 919 430 l 1
 375 430 l 1
 215 0 l 1
 37 0 l 1
426 561 m 1
 870 561 l 1
 641 1223 l 1
 426 561 l 1
37 0 m 1
 541 1390 l 1
 743 1390 l 1
 1246 0 l 1
 1078 0 l 1
 919 430 l 1
 375 430 l 1
 215 0 l 1
 37 0 l 1
426 561 m 1
 870 561 l 1
 641 1223 l 1
 426 561 l 1
37 0 m 1
 541 1390 l 1
 743 1390 l 1
 1246 0 l 1
 1078 0 l 1
 919 430 l 1
 375 430 l 1
 215 0 l 1
 37 0 l 1
426 561 m 1
 870 561 l 1
 641 1223 l 1
 426 561 l 1
EndSplineSet
EndChar

StartChar: afii10018
Encoding: 1041 1041 468
Width: 1174
Flags: W
LayerCount: 2
Fore
SplineSet
1088 393 m 0
 1088 155 960 0 630 0 c 2
 160 0 l 1
 160 1346 l 1
 974 1346 l 1
 974 1213 l 1
 334 1213 l 1
 334 779 l 1
 636 779 l 2
 960 779 1088 628 1088 393 c 0
334 653 m 1
 334 129 l 1
 639 129 l 2
 825 129 914 212 914 392 c 0
 914 573 823 653 631 653 c 2
 334 653 l 1
EndSplineSet
EndChar

StartChar: afii10019
Encoding: 1042 1042 469
Width: 1194
Flags: W
LayerCount: 2
Fore
SplineSet
339 797 m 1
 632 797 l 2
 809 797 923 854 923 1031 c 0
 923 1208 795 1257 563 1257 c 2
 339 1257 l 1
 339 797 l 1
339 129 m 1
 625 129 l 2
 856 129 974 239 974 419 c 0
 974 611 842 671 587 671 c 2
 339 671 l 1
 339 129 l 1
178 0 m 1
 178 1390 l 1
 571 1390 l 2
 919 1390 1091 1289 1091 1055 c 0
 1091 989 1074 809 861 743 c 1
 1052 708 1142 574 1142 413 c 0
 1142 175 984 0 657 0 c 2
 178 0 l 1
339 797 m 1
 632 797 l 2
 809 797 923 854 923 1031 c 0
 923 1208 795 1257 563 1257 c 2
 339 1257 l 1
 339 797 l 1
339 129 m 1
 625 129 l 2
 856 129 974 239 974 419 c 0
 974 611 842 671 587 671 c 2
 339 671 l 1
 339 129 l 1
178 0 m 1
 178 1390 l 1
 571 1390 l 2
 919 1390 1091 1289 1091 1055 c 0
 1091 989 1074 809 861 743 c 1
 1052 708 1142 574 1142 413 c 0
 1142 175 984 0 657 0 c 2
 178 0 l 1
339 797 m 1
 632 797 l 2
 809 797 923 854 923 1031 c 0
 923 1208 795 1257 563 1257 c 2
 339 1257 l 1
 339 797 l 1
339 129 m 1
 625 129 l 2
 856 129 974 239 974 419 c 0
 974 611 842 671 587 671 c 2
 339 671 l 1
 339 129 l 1
178 0 m 1
 178 1390 l 1
 571 1390 l 2
 919 1390 1091 1289 1091 1055 c 0
 1091 989 1074 809 861 743 c 1
 1052 708 1142 574 1142 413 c 0
 1142 175 984 0 657 0 c 2
 178 0 l 1
339 797 m 1
 632 797 l 2
 809 797 923 854 923 1031 c 0
 923 1208 795 1257 563 1257 c 2
 339 1257 l 1
 339 797 l 1
339 129 m 1
 625 129 l 2
 856 129 974 239 974 419 c 0
 974 611 842 671 587 671 c 2
 339 671 l 1
 339 129 l 1
178 0 m 1
 178 1390 l 1
 571 1390 l 2
 919 1390 1091 1289 1091 1055 c 0
 1091 989 1074 809 861 743 c 1
 1052 708 1142 574 1142 413 c 0
 1142 175 984 0 657 0 c 2
 178 0 l 1
339 797 m 1
 632 797 l 2
 809 797 923 854 923 1031 c 0
 923 1208 795 1257 563 1257 c 2
 339 1257 l 1
 339 797 l 1
339 129 m 1
 625 129 l 2
 856 129 974 239 974 419 c 0
 974 611 842 671 587 671 c 2
 339 671 l 1
 339 129 l 1
178 0 m 1
 178 1390 l 1
 571 1390 l 2
 919 1390 1091 1289 1091 1055 c 0
 1091 989 1074 809 861 743 c 1
 1052 708 1142 574 1142 413 c 0
 1142 175 984 0 657 0 c 2
 178 0 l 1
339 797 m 1
 632 797 l 2
 809 797 923 854 923 1031 c 0
 923 1208 795 1257 563 1257 c 2
 339 1257 l 1
 339 797 l 1
339 129 m 1
 625 129 l 2
 856 129 974 239 974 419 c 0
 974 611 842 671 587 671 c 2
 339 671 l 1
 339 129 l 1
178 0 m 1
 178 1390 l 1
 571 1390 l 2
 919 1390 1091 1289 1091 1055 c 0
 1091 989 1074 809 861 743 c 1
 1052 708 1142 574 1142 413 c 0
 1142 175 984 0 657 0 c 2
 178 0 l 1
339 797 m 1
 632 797 l 2
 809 797 923 854 923 1031 c 0
 923 1208 795 1257 563 1257 c 2
 339 1257 l 1
 339 797 l 1
339 129 m 1
 625 129 l 2
 856 129 974 239 974 419 c 0
 974 611 842 671 587 671 c 2
 339 671 l 1
 339 129 l 1
178 0 m 1
 178 1390 l 1
 571 1390 l 2
 919 1390 1091 1289 1091 1055 c 0
 1091 989 1074 809 861 743 c 1
 1052 708 1142 574 1142 413 c 0
 1142 175 984 0 657 0 c 2
 178 0 l 1
339 797 m 1
 632 797 l 2
 809 797 923 854 923 1031 c 0
 923 1208 795 1257 563 1257 c 2
 339 1257 l 1
 339 797 l 1
339 129 m 1
 625 129 l 2
 856 129 974 239 974 419 c 0
 974 611 842 671 587 671 c 2
 339 671 l 1
 339 129 l 1
178 0 m 1
 178 1390 l 1
 571 1390 l 2
 919 1390 1091 1289 1091 1055 c 0
 1091 989 1074 809 861 743 c 1
 1052 708 1142 574 1142 413 c 0
 1142 175 984 0 657 0 c 2
 178 0 l 1
339 797 m 1
 632 797 l 2
 809 797 923 854 923 1031 c 0
 923 1208 795 1257 563 1257 c 2
 339 1257 l 1
 339 797 l 1
339 129 m 1
 625 129 l 2
 856 129 974 239 974 419 c 0
 974 611 842 671 587 671 c 2
 339 671 l 1
 339 129 l 1
178 0 m 1
 178 1390 l 1
 571 1390 l 2
 919 1390 1091 1289 1091 1055 c 0
 1091 989 1074 809 861 743 c 1
 1052 708 1142 574 1142 413 c 0
 1142 175 984 0 657 0 c 2
 178 0 l 1
339 797 m 1
 632 797 l 2
 809 797 923 854 923 1031 c 0
 923 1208 795 1257 563 1257 c 2
 339 1257 l 1
 339 797 l 1
339 129 m 1
 625 129 l 2
 856 129 974 239 974 419 c 0
 974 611 842 671 587 671 c 2
 339 671 l 1
 339 129 l 1
178 0 m 1
 178 1390 l 1
 571 1390 l 2
 919 1390 1091 1289 1091 1055 c 0
 1091 989 1074 809 861 743 c 1
 1052 708 1142 574 1142 413 c 0
 1142 175 984 0 657 0 c 2
 178 0 l 1
339 797 m 1
 632 797 l 2
 809 797 923 854 923 1031 c 0
 923 1208 795 1257 563 1257 c 2
 339 1257 l 1
 339 797 l 1
339 129 m 1
 625 129 l 2
 856 129 974 239 974 419 c 0
 974 611 842 671 587 671 c 2
 339 671 l 1
 339 129 l 1
178 0 m 1
 178 1390 l 1
 571 1390 l 2
 919 1390 1091 1289 1091 1055 c 0
 1091 989 1074 809 861 743 c 1
 1052 708 1142 574 1142 413 c 0
 1142 175 984 0 657 0 c 2
 178 0 l 1
339 797 m 1
 632 797 l 2
 809 797 923 854 923 1031 c 0
 923 1208 795 1257 563 1257 c 2
 339 1257 l 1
 339 797 l 1
339 129 m 1
 625 129 l 2
 856 129 974 239 974 419 c 0
 974 611 842 671 587 671 c 2
 339 671 l 1
 339 129 l 1
178 0 m 1
 178 1390 l 1
 571 1390 l 2
 919 1390 1091 1289 1091 1055 c 0
 1091 989 1074 809 861 743 c 1
 1052 708 1142 574 1142 413 c 0
 1142 175 984 0 657 0 c 2
 178 0 l 1
339 797 m 1
 632 797 l 2
 809 797 923 854 923 1031 c 0
 923 1208 795 1257 563 1257 c 2
 339 1257 l 1
 339 797 l 1
339 129 m 1
 625 129 l 2
 856 129 974 239 974 419 c 0
 974 611 842 671 587 671 c 2
 339 671 l 1
 339 129 l 1
178 0 m 1
 178 1390 l 1
 571 1390 l 2
 919 1390 1091 1289 1091 1055 c 0
 1091 989 1074 809 861 743 c 1
 1052 708 1142 574 1142 413 c 0
 1142 175 984 0 657 0 c 2
 178 0 l 1
EndSplineSet
EndChar

StartChar: afii10020
Encoding: 1043 1043 470
Width: 1047
Flags: W
LayerCount: 2
Fore
SplineSet
995 1205 m 1
 334 1205 l 1
 334 0 l 1
 160 0 l 1
 160 1346 l 1
 1008 1346 l 1
 995 1205 l 1
EndSplineSet
EndChar

StartChar: afii10021
Encoding: 1044 1044 471
Width: 1368
Flags: W
LayerCount: 2
Fore
SplineSet
126 -275 m 1
 -38 -275 l 1
 -38 138 l 1
 112 138 l 1
 198 199 223 353 289 1019 c 0
 298 1109 311 1238 321 1346 c 1
 1152 1346 l 1
 1152 138 l 1
 1306 138 l 1
 1306 -275 l 1
 1145 -275 l 1
 1145 0 l 1
 126 0 l 1
 126 -275 l 1
482 1205 m 1
 482 1202 l 1
 476 1142 460 989 456 938 c 1
 410 471 391 257 317 138 c 1
 978 138 l 1
 978 1205 l 1
 482 1205 l 1
EndSplineSet
EndChar

StartChar: afii10022
Encoding: 1045 1045 472
Width: 1067
Flags: W
LayerCount: 2
Fore
SplineSet
356 1251 m 1
 356 799 l 1
 936 799 l 1
 936 662 l 1
 356 662 l 1
 356 139 l 1
 996 139 l 1
 988 0 l 1
 178 0 l 1
 178 1390 l 1
 996 1390 l 1
 989 1251 l 1
 356 1251 l 1
356 1251 m 1
 356 799 l 1
 936 799 l 1
 936 662 l 1
 356 662 l 1
 356 139 l 1
 996 139 l 1
 988 0 l 1
 178 0 l 1
 178 1390 l 1
 996 1390 l 1
 989 1251 l 1
 356 1251 l 1
356 1251 m 1
 356 799 l 1
 936 799 l 1
 936 662 l 1
 356 662 l 1
 356 139 l 1
 996 139 l 1
 988 0 l 1
 178 0 l 1
 178 1390 l 1
 996 1390 l 1
 989 1251 l 1
 356 1251 l 1
356 1251 m 1
 356 799 l 1
 936 799 l 1
 936 662 l 1
 356 662 l 1
 356 139 l 1
 996 139 l 1
 988 0 l 1
 178 0 l 1
 178 1390 l 1
 996 1390 l 1
 989 1251 l 1
 356 1251 l 1
356 1251 m 1
 356 799 l 1
 936 799 l 1
 936 662 l 1
 356 662 l 1
 356 139 l 1
 996 139 l 1
 988 0 l 1
 178 0 l 1
 178 1390 l 1
 996 1390 l 1
 989 1251 l 1
 356 1251 l 1
356 1251 m 1
 356 799 l 1
 936 799 l 1
 936 662 l 1
 356 662 l 1
 356 139 l 1
 996 139 l 1
 988 0 l 1
 178 0 l 1
 178 1390 l 1
 996 1390 l 1
 989 1251 l 1
 356 1251 l 1
356 1251 m 1
 356 799 l 1
 936 799 l 1
 936 662 l 1
 356 662 l 1
 356 139 l 1
 996 139 l 1
 988 0 l 1
 178 0 l 1
 178 1390 l 1
 996 1390 l 1
 989 1251 l 1
 356 1251 l 1
356 1251 m 1
 356 799 l 1
 936 799 l 1
 936 662 l 1
 356 662 l 1
 356 139 l 1
 996 139 l 1
 988 0 l 1
 178 0 l 1
 178 1390 l 1
 996 1390 l 1
 989 1251 l 1
 356 1251 l 1
356 1251 m 1
 356 799 l 1
 936 799 l 1
 936 662 l 1
 356 662 l 1
 356 139 l 1
 996 139 l 1
 988 0 l 1
 178 0 l 1
 178 1390 l 1
 996 1390 l 1
 989 1251 l 1
 356 1251 l 1
356 1251 m 1
 356 799 l 1
 936 799 l 1
 936 662 l 1
 356 662 l 1
 356 139 l 1
 996 139 l 1
 988 0 l 1
 178 0 l 1
 178 1390 l 1
 996 1390 l 1
 989 1251 l 1
 356 1251 l 1
356 1251 m 1
 356 799 l 1
 936 799 l 1
 936 662 l 1
 356 662 l 1
 356 139 l 1
 996 139 l 1
 988 0 l 1
 178 0 l 1
 178 1390 l 1
 996 1390 l 1
 989 1251 l 1
 356 1251 l 1
356 1251 m 1
 356 799 l 1
 936 799 l 1
 936 662 l 1
 356 662 l 1
 356 139 l 1
 996 139 l 1
 988 0 l 1
 178 0 l 1
 178 1390 l 1
 996 1390 l 1
 989 1251 l 1
 356 1251 l 1
356 1251 m 1
 356 799 l 1
 936 799 l 1
 936 662 l 1
 356 662 l 1
 356 139 l 1
 996 139 l 1
 988 0 l 1
 178 0 l 1
 178 1390 l 1
 996 1390 l 1
 989 1251 l 1
 356 1251 l 1
EndSplineSet
EndChar

StartChar: afii10023
Encoding: 1025 1025 473
Width: 1067
Flags: W
LayerCount: 2
Fore
SplineSet
694 1576 m 1
 694 1769 l 1
 835 1769 l 1
 835 1576 l 1
 694 1576 l 1
339 1576 m 1
 339 1769 l 1
 480 1769 l 1
 480 1576 l 1
 339 1576 l 1
356 1251 m 1
 356 799 l 1
 936 799 l 1
 936 662 l 1
 356 662 l 1
 356 139 l 1
 996 139 l 1
 988 0 l 1
 178 0 l 1
 178 1390 l 1
 996 1390 l 1
 989 1251 l 1
 356 1251 l 1
356 1251 m 1
 356 799 l 1
 936 799 l 1
 936 662 l 1
 356 662 l 1
 356 139 l 1
 996 139 l 1
 988 0 l 1
 178 0 l 1
 178 1390 l 1
 996 1390 l 1
 989 1251 l 1
 356 1251 l 1
356 1251 m 1
 356 799 l 1
 936 799 l 1
 936 662 l 1
 356 662 l 1
 356 139 l 1
 996 139 l 1
 988 0 l 1
 178 0 l 1
 178 1390 l 1
 996 1390 l 1
 989 1251 l 1
 356 1251 l 1
356 1251 m 1
 356 799 l 1
 936 799 l 1
 936 662 l 1
 356 662 l 1
 356 139 l 1
 996 139 l 1
 988 0 l 1
 178 0 l 1
 178 1390 l 1
 996 1390 l 1
 989 1251 l 1
 356 1251 l 1
356 1251 m 1
 356 799 l 1
 936 799 l 1
 936 662 l 1
 356 662 l 1
 356 139 l 1
 996 139 l 1
 988 0 l 1
 178 0 l 1
 178 1390 l 1
 996 1390 l 1
 989 1251 l 1
 356 1251 l 1
356 1251 m 1
 356 799 l 1
 936 799 l 1
 936 662 l 1
 356 662 l 1
 356 139 l 1
 996 139 l 1
 988 0 l 1
 178 0 l 1
 178 1390 l 1
 996 1390 l 1
 989 1251 l 1
 356 1251 l 1
356 1251 m 1
 356 799 l 1
 936 799 l 1
 936 662 l 1
 356 662 l 1
 356 139 l 1
 996 139 l 1
 988 0 l 1
 178 0 l 1
 178 1390 l 1
 996 1390 l 1
 989 1251 l 1
 356 1251 l 1
356 1251 m 1
 356 799 l 1
 936 799 l 1
 936 662 l 1
 356 662 l 1
 356 139 l 1
 996 139 l 1
 988 0 l 1
 178 0 l 1
 178 1390 l 1
 996 1390 l 1
 989 1251 l 1
 356 1251 l 1
356 1251 m 1
 356 799 l 1
 936 799 l 1
 936 662 l 1
 356 662 l 1
 356 139 l 1
 996 139 l 1
 988 0 l 1
 178 0 l 1
 178 1390 l 1
 996 1390 l 1
 989 1251 l 1
 356 1251 l 1
356 1251 m 1
 356 799 l 1
 936 799 l 1
 936 662 l 1
 356 662 l 1
 356 139 l 1
 996 139 l 1
 988 0 l 1
 178 0 l 1
 178 1390 l 1
 996 1390 l 1
 989 1251 l 1
 356 1251 l 1
356 1251 m 1
 356 799 l 1
 936 799 l 1
 936 662 l 1
 356 662 l 1
 356 139 l 1
 996 139 l 1
 988 0 l 1
 178 0 l 1
 178 1390 l 1
 996 1390 l 1
 989 1251 l 1
 356 1251 l 1
356 1251 m 1
 356 799 l 1
 936 799 l 1
 936 662 l 1
 356 662 l 1
 356 139 l 1
 996 139 l 1
 988 0 l 1
 178 0 l 1
 178 1390 l 1
 996 1390 l 1
 989 1251 l 1
 356 1251 l 1
356 1251 m 1
 356 799 l 1
 936 799 l 1
 936 662 l 1
 356 662 l 1
 356 139 l 1
 996 139 l 1
 988 0 l 1
 178 0 l 1
 178 1390 l 1
 996 1390 l 1
 989 1251 l 1
 356 1251 l 1
EndSplineSet
EndChar

StartChar: afii10024
Encoding: 1046 1046 474
Width: 1851
Flags: W
LayerCount: 2
Fore
SplineSet
832 0 m 1
 832 599 l 1
 304 0 l 1
 95 0 l 1
 692 668 l 1
 166 1346 l 1
 362 1346 l 1
 832 735 l 1
 832 1346 l 1
 1006 1346 l 1
 1006 733 l 1
 1477 1346 l 1
 1673 1346 l 1
 1147 668 l 1
 1744 0 l 1
 1535 0 l 1
 1006 600 l 1
 1006 0 l 1
 832 0 l 1
EndSplineSet
EndChar

StartChar: afii10025
Encoding: 1047 1047 475
Width: 1111
Flags: W
LayerCount: 2
Fore
SplineSet
991 363 m 0
 991 135 832 -18 540 -18 c 0
 365 -18 216 33 127 95 c 1
 183 223 l 1
 253 174 393 120 527 120 c 0
 693 120 817 203 817 377 c 0
 817 502 725 627 550 627 c 2
 425 627 l 1
 425 770 l 1
 545 770 l 2
 714 770 785 896 785 999 c 0
 785 1158 681 1228 546 1228 c 0
 431 1228 307 1187 218 1134 c 1
 159 1259 l 1
 266 1322 371 1366 556 1366 c 0
 864 1366 959 1170 959 1026 c 0
 959 865 866 750 719 706 c 1
 842 678 991 579 991 363 c 0
EndSplineSet
EndChar

StartChar: afii10026
Encoding: 1048 1048 476
Width: 1426
Flags: W
LayerCount: 2
Fore
SplineSet
308 219 m 1
 566 598 831 970 1091 1346 c 1
 1267 1346 l 1
 1267 0 l 1
 1114 0 l 1
 1114 786 l 2
 1114 894 1119 1127 1119 1127 c 1
 863 747 598 377 339 0 c 1
 160 0 l 1
 160 1346 l 1
 313 1346 l 1
 313 555 l 2
 313 509 308 219 308 219 c 1
EndSplineSet
EndChar

StartChar: afii10027
Encoding: 1049 1049 477
Width: 1426
Flags: W
LayerCount: 2
Fore
SplineSet
942 1798 m 1
 942 1641 825 1576 712 1576 c 0
 600 1576 485 1641 485 1798 c 1
 591 1798 l 1
 591 1711 646 1670 712 1670 c 0
 778 1670 836 1711 836 1798 c 1
 942 1798 l 1
308 219 m 1
 566 598 831 970 1091 1346 c 1
 1267 1346 l 1
 1267 0 l 1
 1114 0 l 1
 1114 786 l 2
 1114 894 1119 1127 1119 1127 c 1
 863 747 598 377 339 0 c 1
 160 0 l 1
 160 1346 l 1
 313 1346 l 1
 313 555 l 2
 313 509 308 219 308 219 c 1
EndSplineSet
EndChar

StartChar: afii10028
Encoding: 1050 1050 478
Width: 1243
Flags: W
LayerCount: 2
Fore
SplineSet
334 0 m 1
 160 0 l 1
 160 1346 l 1
 334 1346 l 1
 334 739 l 1
 881 1346 l 1
 1101 1346 l 1
 496 672 l 1
 1130 0 l 1
 895 0 l 1
 334 607 l 1
 334 0 l 1
EndSplineSet
EndChar

StartChar: afii10029
Encoding: 1051 1051 479
Width: 1248
Flags: W
LayerCount: 2
Fore
SplineSet
914 0 m 1
 914 1205 l 1
 391 1205 l 1
 389 1148 380 991 378 939 c 0
 337 123 323 -10 -30 -46 c 1
 -60 91 l 1
 145 144 160 94 207 1019 c 0
 212 1109 219 1238 224 1346 c 1
 1088 1346 l 1
 1088 0 l 1
 914 0 l 1
EndSplineSet
EndChar

StartChar: afii10030
Encoding: 1052 1052 480
Width: 1648
Flags: W
LayerCount: 2
Fore
SplineSet
1278 1390 m 1
 1485 1390 l 1
 1485 0 l 1
 1330 0 l 1
 1330 843 l 1
 1337 1163 l 1
 911 108 l 1
 753 108 l 1
 322 1167 l 1
 333 839 l 1
 333 0 l 1
 178 0 l 1
 178 1390 l 1
 391 1390 l 1
 832 305 l 1
 1278 1390 l 1
1278 1390 m 1
 1485 1390 l 1
 1485 0 l 1
 1330 0 l 1
 1330 843 l 1
 1337 1163 l 1
 911 108 l 1
 753 108 l 1
 322 1167 l 1
 333 839 l 1
 333 0 l 1
 178 0 l 1
 178 1390 l 1
 391 1390 l 1
 832 305 l 1
 1278 1390 l 1
1278 1390 m 1
 1485 1390 l 1
 1485 0 l 1
 1330 0 l 1
 1330 843 l 1
 1337 1163 l 1
 911 108 l 1
 753 108 l 1
 322 1167 l 1
 333 839 l 1
 333 0 l 1
 178 0 l 1
 178 1390 l 1
 391 1390 l 1
 832 305 l 1
 1278 1390 l 1
1278 1390 m 1
 1485 1390 l 1
 1485 0 l 1
 1330 0 l 1
 1330 843 l 1
 1337 1163 l 1
 911 108 l 1
 753 108 l 1
 322 1167 l 1
 333 839 l 1
 333 0 l 1
 178 0 l 1
 178 1390 l 1
 391 1390 l 1
 832 305 l 1
 1278 1390 l 1
1278 1390 m 1
 1485 1390 l 1
 1485 0 l 1
 1330 0 l 1
 1330 843 l 1
 1337 1163 l 1
 911 108 l 1
 753 108 l 1
 322 1167 l 1
 333 839 l 1
 333 0 l 1
 178 0 l 1
 178 1390 l 1
 391 1390 l 1
 832 305 l 1
 1278 1390 l 1
1278 1390 m 1
 1485 1390 l 1
 1485 0 l 1
 1330 0 l 1
 1330 843 l 1
 1337 1163 l 1
 911 108 l 1
 753 108 l 1
 322 1167 l 1
 333 839 l 1
 333 0 l 1
 178 0 l 1
 178 1390 l 1
 391 1390 l 1
 832 305 l 1
 1278 1390 l 1
1278 1390 m 1
 1485 1390 l 1
 1485 0 l 1
 1330 0 l 1
 1330 843 l 1
 1337 1163 l 1
 911 108 l 1
 753 108 l 1
 322 1167 l 1
 333 839 l 1
 333 0 l 1
 178 0 l 1
 178 1390 l 1
 391 1390 l 1
 832 305 l 1
 1278 1390 l 1
1278 1390 m 1
 1485 1390 l 1
 1485 0 l 1
 1330 0 l 1
 1330 843 l 1
 1337 1163 l 1
 911 108 l 1
 753 108 l 1
 322 1167 l 1
 333 839 l 1
 333 0 l 1
 178 0 l 1
 178 1390 l 1
 391 1390 l 1
 832 305 l 1
 1278 1390 l 1
1278 1390 m 1
 1485 1390 l 1
 1485 0 l 1
 1330 0 l 1
 1330 843 l 1
 1337 1163 l 1
 911 108 l 1
 753 108 l 1
 322 1167 l 1
 333 839 l 1
 333 0 l 1
 178 0 l 1
 178 1390 l 1
 391 1390 l 1
 832 305 l 1
 1278 1390 l 1
1278 1390 m 1
 1485 1390 l 1
 1485 0 l 1
 1330 0 l 1
 1330 843 l 1
 1337 1163 l 1
 911 108 l 1
 753 108 l 1
 322 1167 l 1
 333 839 l 1
 333 0 l 1
 178 0 l 1
 178 1390 l 1
 391 1390 l 1
 832 305 l 1
 1278 1390 l 1
1278 1390 m 1
 1485 1390 l 1
 1485 0 l 1
 1330 0 l 1
 1330 843 l 1
 1337 1163 l 1
 911 108 l 1
 753 108 l 1
 322 1167 l 1
 333 839 l 1
 333 0 l 1
 178 0 l 1
 178 1390 l 1
 391 1390 l 1
 832 305 l 1
 1278 1390 l 1
1278 1390 m 1
 1485 1390 l 1
 1485 0 l 1
 1330 0 l 1
 1330 843 l 1
 1337 1163 l 1
 911 108 l 1
 753 108 l 1
 322 1167 l 1
 333 839 l 1
 333 0 l 1
 178 0 l 1
 178 1390 l 1
 391 1390 l 1
 832 305 l 1
 1278 1390 l 1
1278 1390 m 1
 1485 1390 l 1
 1485 0 l 1
 1330 0 l 1
 1330 843 l 1
 1337 1163 l 1
 911 108 l 1
 753 108 l 1
 322 1167 l 1
 333 839 l 1
 333 0 l 1
 178 0 l 1
 178 1390 l 1
 391 1390 l 1
 832 305 l 1
 1278 1390 l 1
EndSplineSet
EndChar

StartChar: afii10031
Encoding: 1053 1053 481
Width: 1435
Flags: W
LayerCount: 2
Fore
SplineSet
356 766 m 1
 1079 766 l 1
 1079 1390 l 1
 1257 1390 l 1
 1257 0 l 1
 1079 0 l 1
 1079 634 l 1
 356 634 l 1
 356 0 l 1
 178 0 l 1
 178 1390 l 1
 356 1390 l 1
 356 766 l 1
EndSplineSet
EndChar

StartChar: afii10032
Encoding: 1054 1054 482
Width: 1507
Flags: W
LayerCount: 2
Fore
SplineSet
757 120 m 0
 1081 120 1231 379 1231 697 c 0
 1231 1027 1075 1275 758 1275 c 0
 441 1275 282 1028 282 697 c 0
 282 379 433 120 757 120 c 0
1410 697 m 0
 1410 287 1175 -18 757 -18 c 0
 334 -18 103 281 103 698 c 0
 103 1125 342 1413 758 1413 c 0
 1167 1413 1410 1122 1410 697 c 0
757 120 m 0
 1081 120 1231 379 1231 697 c 0
 1231 1027 1075 1275 758 1275 c 0
 441 1275 282 1028 282 697 c 0
 282 379 433 120 757 120 c 0
1410 697 m 0
 1410 287 1175 -18 757 -18 c 0
 334 -18 103 281 103 698 c 0
 103 1125 342 1413 758 1413 c 0
 1167 1413 1410 1122 1410 697 c 0
757 120 m 0
 1081 120 1231 379 1231 697 c 0
 1231 1027 1075 1275 758 1275 c 0
 441 1275 282 1028 282 697 c 0
 282 379 433 120 757 120 c 0
1410 697 m 0
 1410 287 1175 -18 757 -18 c 0
 334 -18 103 281 103 698 c 0
 103 1125 342 1413 758 1413 c 0
 1167 1413 1410 1122 1410 697 c 0
757 120 m 0
 1081 120 1231 379 1231 697 c 0
 1231 1027 1075 1275 758 1275 c 0
 441 1275 282 1028 282 697 c 0
 282 379 433 120 757 120 c 0
1410 697 m 0
 1410 287 1175 -18 757 -18 c 0
 334 -18 103 281 103 698 c 0
 103 1125 342 1413 758 1413 c 0
 1167 1413 1410 1122 1410 697 c 0
757 120 m 0
 1081 120 1231 379 1231 697 c 0
 1231 1027 1075 1275 758 1275 c 0
 441 1275 282 1028 282 697 c 0
 282 379 433 120 757 120 c 0
1410 697 m 0
 1410 287 1175 -18 757 -18 c 0
 334 -18 103 281 103 698 c 0
 103 1125 342 1413 758 1413 c 0
 1167 1413 1410 1122 1410 697 c 0
757 120 m 0
 1081 120 1231 379 1231 697 c 0
 1231 1027 1075 1275 758 1275 c 0
 441 1275 282 1028 282 697 c 0
 282 379 433 120 757 120 c 0
1410 697 m 0
 1410 287 1175 -18 757 -18 c 0
 334 -18 103 281 103 698 c 0
 103 1125 342 1413 758 1413 c 0
 1167 1413 1410 1122 1410 697 c 0
757 120 m 0
 1081 120 1231 379 1231 697 c 0
 1231 1027 1075 1275 758 1275 c 0
 441 1275 282 1028 282 697 c 0
 282 379 433 120 757 120 c 0
1410 697 m 0
 1410 287 1175 -18 757 -18 c 0
 334 -18 103 281 103 698 c 0
 103 1125 342 1413 758 1413 c 0
 1167 1413 1410 1122 1410 697 c 0
757 120 m 0
 1081 120 1231 379 1231 697 c 0
 1231 1027 1075 1275 758 1275 c 0
 441 1275 282 1028 282 697 c 0
 282 379 433 120 757 120 c 0
1410 697 m 0
 1410 287 1175 -18 757 -18 c 0
 334 -18 103 281 103 698 c 0
 103 1125 342 1413 758 1413 c 0
 1167 1413 1410 1122 1410 697 c 0
757 120 m 0
 1081 120 1231 379 1231 697 c 0
 1231 1027 1075 1275 758 1275 c 0
 441 1275 282 1028 282 697 c 0
 282 379 433 120 757 120 c 0
1410 697 m 0
 1410 287 1175 -18 757 -18 c 0
 334 -18 103 281 103 698 c 0
 103 1125 342 1413 758 1413 c 0
 1167 1413 1410 1122 1410 697 c 0
757 120 m 0
 1081 120 1231 379 1231 697 c 0
 1231 1027 1075 1275 758 1275 c 0
 441 1275 282 1028 282 697 c 0
 282 379 433 120 757 120 c 0
1410 697 m 0
 1410 287 1175 -18 757 -18 c 0
 334 -18 103 281 103 698 c 0
 103 1125 342 1413 758 1413 c 0
 1167 1413 1410 1122 1410 697 c 0
757 120 m 0
 1081 120 1231 379 1231 697 c 0
 1231 1027 1075 1275 758 1275 c 0
 441 1275 282 1028 282 697 c 0
 282 379 433 120 757 120 c 0
1410 697 m 0
 1410 287 1175 -18 757 -18 c 0
 334 -18 103 281 103 698 c 0
 103 1125 342 1413 758 1413 c 0
 1167 1413 1410 1122 1410 697 c 0
757 120 m 0
 1081 120 1231 379 1231 697 c 0
 1231 1027 1075 1275 758 1275 c 0
 441 1275 282 1028 282 697 c 0
 282 379 433 120 757 120 c 0
1410 697 m 0
 1410 287 1175 -18 757 -18 c 0
 334 -18 103 281 103 698 c 0
 103 1125 342 1413 758 1413 c 0
 1167 1413 1410 1122 1410 697 c 0
757 120 m 0
 1081 120 1231 379 1231 697 c 0
 1231 1027 1075 1275 758 1275 c 0
 441 1275 282 1028 282 697 c 0
 282 379 433 120 757 120 c 0
1410 697 m 0
 1410 287 1175 -18 757 -18 c 0
 334 -18 103 281 103 698 c 0
 103 1125 342 1413 758 1413 c 0
 1167 1413 1410 1122 1410 697 c 0
EndSplineSet
EndChar

StartChar: afii10033
Encoding: 1055 1055 483
Width: 1368
Flags: W
LayerCount: 2
Fore
SplineSet
334 1208 m 1
 334 0 l 1
 160 0 l 1
 160 1346 l 1
 1208 1346 l 1
 1208 0 l 1
 1034 0 l 1
 1034 1208 l 1
 334 1208 l 1
EndSplineSet
EndChar

StartChar: afii10034
Encoding: 1056 1056 484
Width: 1166
Flags: W
LayerCount: 2
Fore
SplineSet
615 744 m 0
 839 744 907 840 907 1020 c 0
 907 1182 795 1253 624 1253 c 2
 357 1253 l 1
 357 746 l 1
 357 746 552 744 615 744 c 0
178 0 m 1
 178 1390 l 1
 628 1390 l 2
 891 1390 1086 1268 1086 1023 c 0
 1086 770 951 613 607 613 c 0
 534 613 427 612 357 616 c 1
 357 0 l 1
 178 0 l 1
EndSplineSet
EndChar

StartChar: afii10035
Encoding: 1057 1057 485
Width: 1183
Flags: W
LayerCount: 2
Fore
SplineSet
743 -18 m 1
 349 -12 103 310 103 725 c 0
 103 1130 349 1413 761 1413 c 0
 923 1413 1050 1377 1151 1313 c 1
 1097 1189 l 1
 1006 1243 885 1275 763 1275 c 0
 446 1275 275 1038 275 719 c 0
 275 401 441 120 779 120 c 0
 896 120 1006 149 1105 196 c 1
 1131 68 l 1
 1066 28 914 -18 743 -18 c 1
743 -18 m 1
 349 -12 103 310 103 725 c 0
 103 1130 349 1413 761 1413 c 0
 923 1413 1050 1377 1151 1313 c 1
 1097 1189 l 1
 1006 1243 885 1275 763 1275 c 0
 446 1275 275 1038 275 719 c 0
 275 401 441 120 779 120 c 0
 896 120 1006 149 1105 196 c 1
 1131 68 l 1
 1066 28 914 -18 743 -18 c 1
743 -18 m 1
 349 -12 103 310 103 725 c 0
 103 1130 349 1413 761 1413 c 0
 923 1413 1050 1377 1151 1313 c 1
 1097 1189 l 1
 1006 1243 885 1275 763 1275 c 0
 446 1275 275 1038 275 719 c 0
 275 401 441 120 779 120 c 0
 896 120 1006 149 1105 196 c 1
 1131 68 l 1
 1066 28 914 -18 743 -18 c 1
743 -18 m 1
 349 -12 103 310 103 725 c 0
 103 1130 349 1413 761 1413 c 0
 923 1413 1050 1377 1151 1313 c 1
 1097 1189 l 1
 1006 1243 885 1275 763 1275 c 0
 446 1275 275 1038 275 719 c 0
 275 401 441 120 779 120 c 0
 896 120 1006 149 1105 196 c 1
 1131 68 l 1
 1066 28 914 -18 743 -18 c 1
743 -18 m 1
 349 -12 103 310 103 725 c 0
 103 1130 349 1413 761 1413 c 0
 923 1413 1050 1377 1151 1313 c 1
 1097 1189 l 1
 1006 1243 885 1275 763 1275 c 0
 446 1275 275 1038 275 719 c 0
 275 401 441 120 779 120 c 0
 896 120 1006 149 1105 196 c 1
 1131 68 l 1
 1066 28 914 -18 743 -18 c 1
743 -18 m 1
 349 -12 103 310 103 725 c 0
 103 1130 349 1413 761 1413 c 0
 923 1413 1050 1377 1151 1313 c 1
 1097 1189 l 1
 1006 1243 885 1275 763 1275 c 0
 446 1275 275 1038 275 719 c 0
 275 401 441 120 779 120 c 0
 896 120 1006 149 1105 196 c 1
 1131 68 l 1
 1066 28 914 -18 743 -18 c 1
743 -18 m 1
 349 -12 103 310 103 725 c 0
 103 1130 349 1413 761 1413 c 0
 923 1413 1050 1377 1151 1313 c 1
 1097 1189 l 1
 1006 1243 885 1275 763 1275 c 0
 446 1275 275 1038 275 719 c 0
 275 401 441 120 779 120 c 0
 896 120 1006 149 1105 196 c 1
 1131 68 l 1
 1066 28 914 -18 743 -18 c 1
743 -18 m 1
 349 -12 103 310 103 725 c 0
 103 1130 349 1413 761 1413 c 0
 923 1413 1050 1377 1151 1313 c 1
 1097 1189 l 1
 1006 1243 885 1275 763 1275 c 0
 446 1275 275 1038 275 719 c 0
 275 401 441 120 779 120 c 0
 896 120 1006 149 1105 196 c 1
 1131 68 l 1
 1066 28 914 -18 743 -18 c 1
743 -18 m 1
 349 -12 103 310 103 725 c 0
 103 1130 349 1413 761 1413 c 0
 923 1413 1050 1377 1151 1313 c 1
 1097 1189 l 1
 1006 1243 885 1275 763 1275 c 0
 446 1275 275 1038 275 719 c 0
 275 401 441 120 779 120 c 0
 896 120 1006 149 1105 196 c 1
 1131 68 l 1
 1066 28 914 -18 743 -18 c 1
743 -18 m 1
 349 -12 103 310 103 725 c 0
 103 1130 349 1413 761 1413 c 0
 923 1413 1050 1377 1151 1313 c 1
 1097 1189 l 1
 1006 1243 885 1275 763 1275 c 0
 446 1275 275 1038 275 719 c 0
 275 401 441 120 779 120 c 0
 896 120 1006 149 1105 196 c 1
 1131 68 l 1
 1066 28 914 -18 743 -18 c 1
743 -18 m 1
 349 -12 103 310 103 725 c 0
 103 1130 349 1413 761 1413 c 0
 923 1413 1050 1377 1151 1313 c 1
 1097 1189 l 1
 1006 1243 885 1275 763 1275 c 0
 446 1275 275 1038 275 719 c 0
 275 401 441 120 779 120 c 0
 896 120 1006 149 1105 196 c 1
 1131 68 l 1
 1066 28 914 -18 743 -18 c 1
743 -18 m 1
 349 -12 103 310 103 725 c 0
 103 1130 349 1413 761 1413 c 0
 923 1413 1050 1377 1151 1313 c 1
 1097 1189 l 1
 1006 1243 885 1275 763 1275 c 0
 446 1275 275 1038 275 719 c 0
 275 401 441 120 779 120 c 0
 896 120 1006 149 1105 196 c 1
 1131 68 l 1
 1066 28 914 -18 743 -18 c 1
EndSplineSet
EndChar

StartChar: afii10036
Encoding: 1058 1058 486
Width: 1088
Flags: W
LayerCount: 2
Fore
SplineSet
1049 1390 m 1
 1049 1251 l 1
 633 1251 l 1
 633 0 l 1
 454 0 l 1
 454 1251 l 1
 39 1251 l 1
 39 1390 l 1
 1049 1390 l 1
1049 1390 m 1
 1049 1251 l 1
 633 1251 l 1
 633 0 l 1
 454 0 l 1
 454 1251 l 1
 39 1251 l 1
 39 1390 l 1
 1049 1390 l 1
EndSplineSet
EndChar

StartChar: afii10037
Encoding: 1059 1059 487
Width: 1248
Flags: W
LayerCount: 2
Fore
SplineSet
255 1346 m 1
 670 580 l 1
 1029 1346 l 1
 1217 1346 l 1
 577 0 l 1
 390 0 l 1
 567 424 l 1
 64 1346 l 1
 255 1346 l 1
EndSplineSet
EndChar

StartChar: afii10038
Encoding: 1060 1060 488
Width: 1566
Flags: W
LayerCount: 2
Fore
SplineSet
850 1098 m 1
 850 258 l 1
 1165 287 1305 445 1305 678 c 0
 1305 911 1165 1069 850 1098 c 1
702 259 m 1
 702 1097 l 1
 401 1065 261 910 261 678 c 0
 261 445 401 291 702 259 c 1
850 0 m 1
 702 0 l 1
 702 116 l 1
 309 150 89 356 89 678 c 0
 89 1000 309 1205 702 1239 c 1
 702 1361 l 1
 850 1361 l 1
 850 1241 l 1
 1238 1215 1477 1019 1477 678 c 0
 1477 337 1238 141 850 115 c 1
 850 0 l 1
EndSplineSet
EndChar

StartChar: afii10039
Encoding: 1061 1061 489
Width: 1196
Flags: W
LayerCount: 2
Fore
SplineSet
696 709 m 1
 1161 0 l 1
 975 0 l 1
 603 572 l 1
 232 0 l 1
 46 0 l 1
 510 709 l 1
 46 1390 l 1
 232 1390 l 1
 603 846 l 1
 975 1390 l 1
 1161 1390 l 1
 696 709 l 1
EndSplineSet
EndChar

StartChar: afii10040
Encoding: 1062 1062 490
Width: 1386
Flags: W
LayerCount: 2
Fore
SplineSet
1280 -275 m 1
 1120 -275 l 1
 1120 0 l 1
 160 0 l 1
 160 1346 l 1
 334 1346 l 1
 334 138 l 1
 967 138 l 1
 967 1346 l 1
 1141 1346 l 1
 1141 141 l 1
 1280 141 l 1
 1280 -275 l 1
EndSplineSet
EndChar

StartChar: afii10041
Encoding: 1063 1063 491
Width: 1139
Flags: W
LayerCount: 2
Fore
SplineSet
1017 0 m 1
 843 0 l 1
 843 461 l 1
 500 461 l 2
 247 461 109 595 109 834 c 2
 109 1346 l 1
 283 1346 l 1
 283 866 l 2
 283 649 365 612 533 612 c 2
 843 612 l 1
 843 1346 l 1
 1017 1346 l 1
 1017 0 l 1
EndSplineSet
EndChar

StartChar: afii10042
Encoding: 1064 1064 492
Width: 1525
Flags: W
LayerCount: 2
Fore
SplineSet
682 141 m 1
 682 1346 l 1
 843 1346 l 1
 843 141 l 1
 1228 141 l 1
 1228 1346 l 1
 1390 1346 l 1
 1390 0 l 1
 136 0 l 1
 136 1346 l 1
 298 1346 l 1
 298 141 l 1
 682 141 l 1
EndSplineSet
EndChar

StartChar: afii10043
Encoding: 1065 1065 493
Width: 1591
Flags: W
LayerCount: 2
Fore
SplineSet
706 141 m 1
 706 1346 l 1
 867 1346 l 1
 867 141 l 1
 1252 141 l 1
 1252 1346 l 1
 1414 1346 l 1
 1414 141 l 1
 1515 141 l 1
 1515 -275 l 1
 1356 -275 l 1
 1356 0 l 1
 160 0 l 1
 160 1346 l 1
 322 1346 l 1
 322 141 l 1
 706 141 l 1
EndSplineSet
EndChar

StartChar: afii10044
Encoding: 1066 1066 494
Width: 1395
Flags: W
LayerCount: 2
Fore
SplineSet
623 633 m 1
 623 142 l 1
 836 142 l 2
 1076 142 1137 232 1137 392 c 0
 1137 539 1062 633 833 633 c 2
 623 633 l 1
623 1346 m 1
 623 773 l 1
 814 773 l 2
 1128 773 1312 652 1312 389 c 0
 1312 126 1145 0 817 0 c 2
 448 0 l 1
 448 1205 l 1
 128 1205 l 1
 128 1346 l 1
 623 1346 l 1
EndSplineSet
EndChar

StartChar: afii10045
Encoding: 1067 1067 495
Width: 1032
Flags: W
LayerCount: 2
Fore
SplineSet
324 633 m 1
 324 141 l 1
 459 141 l 2
 689 141 774 223 774 383 c 0
 774 537 692 633 453 633 c 2
 324 633 l 1
324 1346 m 1
 324 773 l 1
 454 773 l 2
 776 773 949 634 949 387 c 0
 949 149 781 0 441 0 c 2
 149 0 l 1
 149 1346 l 1
 324 1346 l 1
EndSplineSet
EndChar

StartChar: afii10046
Encoding: 1068 1068 496
Width: 1431
Flags: W
LayerCount: 2
Fore
SplineSet
149 1346 m 1
 324 1346 l 1
 324 0 l 1
 149 0 l 1
 149 1346 l 1
723 633 m 1
 723 141 l 1
 871 141 l 2
 1111 141 1173 232 1173 392 c 0
 1173 546 1104 633 874 633 c 2
 723 633 l 1
723 1346 m 1
 723 773 l 1
 862 773 l 2
 1181 773 1348 643 1348 396 c 0
 1348 158 1187 0 864 0 c 2
 548 0 l 1
 548 1346 l 1
 723 1346 l 1
EndSplineSet
EndChar

StartChar: afii10047
Encoding: 1069 1069 497
Width: 1275
Flags: W
LayerCount: 2
Fore
SplineSet
519 -21 m 0
 340 -21 205 27 111 103 c 1
 169 226 l 1
 245 168 372 117 511 117 c 0
 802 117 958 336 984 604 c 1
 357 604 l 1
 357 744 l 1
 986 744 l 1
 970 1011 835 1249 500 1249 c 0
 364 1249 243 1198 168 1138 c 1
 116 1269 l 1
 208 1349 341 1388 521 1388 c 0
 943 1388 1159 1074 1159 689 c 0
 1159 287 939 -21 519 -21 c 0
EndSplineSet
EndChar

StartChar: afii10048
Encoding: 1070 1070 498
Width: 1885
Flags: W
LayerCount: 2
Fore
SplineSet
1178 117 m 0
 1459 117 1597 378 1597 681 c 0
 1597 969 1458 1249 1169 1249 c 0
 889 1249 753 977 753 679 c 0
 753 382 896 117 1178 117 c 0
1176 -21 m 0
 816 -21 608 268 582 624 c 1
 298 624 l 1
 298 0 l 1
 136 0 l 1
 136 1360 l 1
 298 1360 l 1
 298 762 l 1
 585 762 l 1
 614 1129 816 1388 1168 1388 c 0
 1549 1388 1769 1082 1769 675 c 0
 1769 293 1558 -21 1176 -21 c 0
EndSplineSet
EndChar

StartChar: afii10049
Encoding: 1071 1071 499
Width: 1262
Flags: W
LayerCount: 2
Fore
SplineSet
978 706 m 1
 978 1205 l 1
 693 1205 l 2
 463 1205 366 1121 366 961 c 0
 366 807 437 706 693 706 c 2
 978 706 l 1
328 0 m 1
 133 0 l 1
 183 106 382 486 440 602 c 1
 286 660 192 779 192 954 c 0
 192 1217 374 1346 710 1346 c 2
 1152 1346 l 1
 1152 0 l 1
 978 0 l 1
 978 566 l 1
 823 566 l 2
 685 566 637 569 602 572 c 1
 507 375 423 197 328 0 c 1
EndSplineSet
EndChar

StartChar: afii10051
Encoding: 1026 1026 500
Width: 1088
Flags: W
LayerCount: 2
Fore
SplineSet
1049 1390 m 1
 1049 1251 l 1
 633 1251 l 1
 633 0 l 1
 454 0 l 1
 454 1251 l 1
 39 1251 l 1
 39 1390 l 1
 1049 1390 l 1
1049 1390 m 1
 1049 1251 l 1
 633 1251 l 1
 633 0 l 1
 454 0 l 1
 454 1251 l 1
 39 1251 l 1
 39 1390 l 1
 1049 1390 l 1
EndSplineSet
EndChar

StartChar: afii10052
Encoding: 1027 1027 501
Width: 1047
Flags: W
LayerCount: 2
Fore
SplineSet
995 1205 m 1
 334 1205 l 1
 334 0 l 1
 160 0 l 1
 160 1346 l 1
 1008 1346 l 1
 995 1205 l 1
EndSplineSet
EndChar

StartChar: afii10053
Encoding: 1028 1028 502
Width: 1268
Flags: W
LayerCount: 2
Fore
SplineSet
754 -21 m 0
 334 -21 114 287 114 689 c 0
 114 1074 332 1388 760 1388 c 0
 937 1388 1068 1349 1158 1269 c 1
 1105 1138 l 1
 1030 1198 909 1249 773 1249 c 0
 438 1249 304 1011 288 744 c 1
 916 744 l 1
 916 604 l 1
 289 604 l 1
 315 336 472 117 763 117 c 0
 902 117 1028 168 1104 226 c 1
 1162 103 l 1
 1068 27 933 -21 754 -21 c 0
EndSplineSet
EndChar

StartChar: afii10054
Encoding: 1029 1029 503
Width: 1200
Flags: W
LayerCount: 2
Fore
SplineSet
607 -20 m 0
 370 -20 202 40 119 91 c 1
 167 222 l 1
 289 162 443 118 617 118 c 0
 810 118 915 204 915 388 c 0
 915 497 868 570 695 614 c 2
 428 682 l 2
 241 729 121 829 121 1009 c 0
 121 1274 320 1366 618 1366 c 0
 785 1366 932 1336 1025 1278 c 1
 979 1155 l 1
 884 1201 770 1228 623 1228 c 0
 406 1228 288 1173 288 1020 c 0
 288 914 356 856 487 824 c 2
 743 763 l 2
 947 714 1082 615 1082 393 c 0
 1082 110 885 -20 607 -20 c 0
EndSplineSet
EndChar

StartChar: afii10055
Encoding: 1030 1030 504
Width: 432
Flags: W
LayerCount: 2
Fore
SplineSet
136 0 m 1
 136 1362 l 1
 297 1362 l 1
 297 0 l 1
 136 0 l 1
EndSplineSet
EndChar

StartChar: afii10056
Encoding: 1031 1031 505
Width: 432
Flags: W
LayerCount: 2
Fore
SplineSet
324 1576 m 1
 324 1769 l 1
 465 1769 l 1
 465 1576 l 1
 324 1576 l 1
-31 1576 m 1
 -31 1769 l 1
 110 1769 l 1
 110 1576 l 1
 -31 1576 l 1
137 0 m 1
 137 1362 l 1
 298 1362 l 1
 298 0 l 1
 137 0 l 1
EndSplineSet
EndChar

StartChar: afii10057
Encoding: 1032 1032 506
Width: 632
Flags: W
LayerCount: 2
Fore
SplineSet
100 -195 m 1
 81 -45 l 1
 148 -45 l 2
 314 -45 323 51 323 186 c 2
 323 1346 l 1
 498 1346 l 1
 498 219 l 2
 498 -61 452 -195 132 -195 c 2
 100 -195 l 1
EndSplineSet
EndChar

StartChar: afii10058
Encoding: 1033 1033 507
Width: 1755
Flags: W
LayerCount: 2
Fore
SplineSet
992 652 m 1
 992 141 l 1
 1227 141 l 2
 1377 141 1479 232 1479 392 c 0
 1479 552 1381 652 1227 652 c 2
 992 652 l 1
78 -24 m 1
 78 119 l 1
 120 119 l 2
 285 119 294 214 294 349 c 2
 294 1346 l 1
 992 1346 l 1
 992 793 l 1
 1227 793 l 2
 1478 793 1653 676 1653 389 c 0
 1653 126 1485 0 1227 0 c 2
 818 0 l 1
 818 1205 l 1
 468 1205 l 1
 468 394 l 2
 468 114 424 -24 104 -24 c 2
 78 -24 l 1
EndSplineSet
EndChar

StartChar: afii10059
Encoding: 1034 1034 508
Width: 1853
Flags: W
LayerCount: 2
Fore
SplineSet
334 630 m 1
 334 0 l 1
 160 0 l 1
 160 1346 l 1
 334 1346 l 1
 334 768 l 1
 946 768 l 1
 946 1346 l 1
 1120 1346 l 1
 1120 779 l 1
 1340 779 l 2
 1664 779 1792 628 1792 393 c 0
 1792 155 1664 0 1334 0 c 2
 946 0 l 1
 946 630 l 1
 334 630 l 1
1335 653 m 2
 1120 653 l 1
 1120 129 l 1
 1343 129 l 2
 1529 129 1627 212 1627 392 c 0
 1627 573 1527 653 1335 653 c 2
EndSplineSet
EndChar

StartChar: afii10060
Encoding: 1035 1035 509
Width: 1088
Flags: W
LayerCount: 2
Fore
SplineSet
1049 1390 m 1
 1049 1251 l 1
 633 1251 l 1
 633 0 l 1
 454 0 l 1
 454 1251 l 1
 39 1251 l 1
 39 1390 l 1
 1049 1390 l 1
1049 1390 m 1
 1049 1251 l 1
 633 1251 l 1
 633 0 l 1
 454 0 l 1
 454 1251 l 1
 39 1251 l 1
 39 1390 l 1
 1049 1390 l 1
EndSplineSet
EndChar

StartChar: afii10061
Encoding: 1036 1036 510
Width: 1243
Flags: W
LayerCount: 2
Fore
SplineSet
593 1576 m 1
 763 1929 l 1
 993 1929 l 1
 697 1576 l 1
 593 1576 l 1
334 0 m 1
 160 0 l 1
 160 1346 l 1
 334 1346 l 1
 334 739 l 1
 881 1346 l 1
 1101 1346 l 1
 496 672 l 1
 1130 0 l 1
 895 0 l 1
 334 607 l 1
 334 0 l 1
EndSplineSet
EndChar

StartChar: afii10062
Encoding: 1038 1038 511
Width: 1248
Flags: W
LayerCount: 2
Fore
SplineSet
869 1798 m 1
 869 1641 752 1576 639 1576 c 0
 527 1576 412 1641 412 1798 c 1
 518 1798 l 1
 518 1711 573 1670 639 1670 c 0
 705 1670 763 1711 763 1798 c 1
 869 1798 l 1
255 1346 m 1
 670 580 l 1
 1029 1346 l 1
 1217 1346 l 1
 577 0 l 1
 390 0 l 1
 567 424 l 1
 64 1346 l 1
 255 1346 l 1
EndSplineSet
EndChar

StartChar: afii10065
Encoding: 1072 1072 512
Width: 1054
Flags: W
LayerCount: 2
Fore
SplineSet
461 102 m 2
 460 102 l 2
 581 102 735 165 767 251 c 1
 767 490 l 1
 767 490 674 481 651 478 c 0
 390 447 301 402 301 262 c 0
 301 152 378 102 461 102 c 2
437 -21 m 2
 436 -21 l 2
 260 -21 125 79 125 263 c 0
 125 478 305 562 590 583 c 0
 636 587 765 597 765 597 c 1
 765 685 l 2
 765 823 695 886 552 886 c 0
 456 886 319 858 225 812 c 1
 217 831 185 916 178 935 c 1
 264 983 419 1019 548 1019 c 0
 792 1019 940 927 940 661 c 2
 940 0 l 1
 799 0 l 1
 772 112 l 1
 711 22 571 -21 437 -21 c 2
459 102 m 2
 458 102 l 2
 579 102 733 165 765 251 c 1
 765 490 l 1
 765 490 672 481 649 478 c 0
 388 447 299 402 299 262 c 0
 299 152 376 102 459 102 c 2
435 -21 m 2
 434 -21 l 2
 258 -21 123 79 123 263 c 0
 123 478 303 562 588 583 c 0
 634 587 763 597 763 597 c 1
 763 685 l 2
 763 823 693 886 550 886 c 0
 454 886 317 858 223 812 c 1
 215 831 183 916 176 935 c 1
 262 983 417 1019 546 1019 c 0
 790 1019 938 927 938 661 c 2
 938 0 l 1
 797 0 l 1
 770 112 l 1
 709 22 569 -21 435 -21 c 2
457 102 m 2
 456 102 l 2
 577 102 731 165 763 251 c 1
 763 490 l 1
 763 490 670 481 647 478 c 0
 386 447 297 402 297 262 c 0
 297 152 374 102 457 102 c 2
433 -21 m 2
 432 -21 l 2
 256 -21 121 79 121 263 c 0
 121 478 301 562 586 583 c 0
 632 587 761 597 761 597 c 1
 761 685 l 2
 761 823 691 886 548 886 c 0
 452 886 315 858 221 812 c 1
 213 831 181 916 174 935 c 1
 260 983 415 1019 544 1019 c 0
 788 1019 936 927 936 661 c 2
 936 0 l 1
 795 0 l 1
 768 112 l 1
 707 22 567 -21 433 -21 c 2
455 102 m 2
 454 102 l 2
 575 102 729 165 761 251 c 1
 761 490 l 1
 761 490 668 481 645 478 c 0
 384 447 295 402 295 262 c 0
 295 152 372 102 455 102 c 2
431 -21 m 2
 430 -21 l 2
 254 -21 119 79 119 263 c 0
 119 478 299 562 584 583 c 0
 630 587 759 597 759 597 c 1
 759 685 l 2
 759 823 689 886 546 886 c 0
 450 886 313 858 219 812 c 1
 211 831 179 916 172 935 c 1
 258 983 413 1019 542 1019 c 0
 786 1019 934 927 934 661 c 2
 934 0 l 1
 793 0 l 1
 766 112 l 1
 705 22 565 -21 431 -21 c 2
453 102 m 2
 452 102 l 2
 573 102 727 165 759 251 c 1
 759 490 l 1
 759 490 666 481 643 478 c 0
 382 447 293 402 293 262 c 0
 293 152 370 102 453 102 c 2
429 -21 m 2
 428 -21 l 2
 252 -21 117 79 117 263 c 0
 117 478 297 562 582 583 c 0
 628 587 757 597 757 597 c 1
 757 685 l 2
 757 823 687 886 544 886 c 0
 448 886 311 858 217 812 c 1
 209 831 177 916 170 935 c 1
 256 983 411 1019 540 1019 c 0
 784 1019 932 927 932 661 c 2
 932 0 l 1
 791 0 l 1
 764 112 l 1
 703 22 563 -21 429 -21 c 2
451 102 m 2
 450 102 l 2
 571 102 725 165 757 251 c 1
 757 490 l 1
 757 490 664 481 641 478 c 0
 380 447 291 402 291 262 c 0
 291 152 368 102 451 102 c 2
427 -21 m 2
 426 -21 l 2
 250 -21 115 79 115 263 c 0
 115 478 295 562 580 583 c 0
 626 587 755 597 755 597 c 1
 755 685 l 2
 755 823 685 886 542 886 c 0
 446 886 309 858 215 812 c 1
 207 831 175 916 168 935 c 1
 254 983 409 1019 538 1019 c 0
 782 1019 930 927 930 661 c 2
 930 0 l 1
 789 0 l 1
 762 112 l 1
 701 22 561 -21 427 -21 c 2
449 102 m 2
 448 102 l 2
 569 102 723 165 755 251 c 1
 755 490 l 1
 755 490 662 481 639 478 c 0
 378 447 289 402 289 262 c 0
 289 152 366 102 449 102 c 2
425 -21 m 2
 424 -21 l 2
 248 -21 113 79 113 263 c 0
 113 478 293 562 578 583 c 0
 624 587 753 597 753 597 c 1
 753 685 l 2
 753 823 683 886 540 886 c 0
 444 886 307 858 213 812 c 1
 205 831 173 916 166 935 c 1
 252 983 407 1019 536 1019 c 0
 780 1019 928 927 928 661 c 2
 928 0 l 1
 787 0 l 1
 760 112 l 1
 699 22 559 -21 425 -21 c 2
447 102 m 2
 446 102 l 2
 567 102 721 165 753 251 c 1
 753 490 l 1
 753 490 660 481 637 478 c 0
 376 447 287 402 287 262 c 0
 287 152 364 102 447 102 c 2
423 -21 m 2
 422 -21 l 2
 246 -21 111 79 111 263 c 0
 111 478 291 562 576 583 c 0
 622 587 751 597 751 597 c 1
 751 685 l 2
 751 823 681 886 538 886 c 0
 442 886 305 858 211 812 c 1
 203 831 171 916 164 935 c 1
 250 983 405 1019 534 1019 c 0
 778 1019 926 927 926 661 c 2
 926 0 l 1
 785 0 l 1
 758 112 l 1
 697 22 557 -21 423 -21 c 2
445 102 m 2
 444 102 l 2
 565 102 719 165 751 251 c 1
 751 490 l 1
 751 490 658 481 635 478 c 0
 374 447 285 402 285 262 c 0
 285 152 362 102 445 102 c 2
421 -21 m 2
 420 -21 l 2
 244 -21 109 79 109 263 c 0
 109 478 289 562 574 583 c 0
 620 587 749 597 749 597 c 1
 749 685 l 2
 749 823 679 886 536 886 c 0
 440 886 303 858 209 812 c 1
 201 831 169 916 162 935 c 1
 248 983 403 1019 532 1019 c 0
 776 1019 924 927 924 661 c 2
 924 0 l 1
 783 0 l 1
 756 112 l 1
 695 22 555 -21 421 -21 c 2
443 102 m 2
 442 102 l 2
 563 102 717 165 749 251 c 1
 749 490 l 1
 749 490 656 481 633 478 c 0
 372 447 283 402 283 262 c 0
 283 152 360 102 443 102 c 2
419 -21 m 2
 418 -21 l 2
 242 -21 107 79 107 263 c 0
 107 478 287 562 572 583 c 0
 618 587 747 597 747 597 c 1
 747 685 l 2
 747 823 677 886 534 886 c 0
 438 886 301 858 207 812 c 1
 199 831 167 916 160 935 c 1
 246 983 401 1019 530 1019 c 0
 774 1019 922 927 922 661 c 2
 922 0 l 1
 781 0 l 1
 754 112 l 1
 693 22 553 -21 419 -21 c 2
441 102 m 2
 440 102 l 2
 561 102 715 165 747 251 c 1
 747 490 l 1
 747 490 654 481 631 478 c 0
 370 447 281 402 281 262 c 0
 281 152 358 102 441 102 c 2
417 -21 m 2
 416 -21 l 2
 240 -21 105 79 105 263 c 0
 105 478 285 562 570 583 c 0
 616 587 745 597 745 597 c 1
 745 685 l 2
 745 823 675 886 532 886 c 0
 436 886 299 858 205 812 c 1
 197 831 165 916 158 935 c 1
 244 983 399 1019 528 1019 c 0
 772 1019 920 927 920 661 c 2
 920 0 l 1
 779 0 l 1
 752 112 l 1
 691 22 551 -21 417 -21 c 2
439 102 m 2
 438 102 l 2
 559 102 713 165 745 251 c 1
 745 490 l 1
 745 490 652 481 629 478 c 0
 368 447 279 402 279 262 c 0
 279 152 356 102 439 102 c 2
415 -21 m 2
 414 -21 l 2
 238 -21 103 79 103 263 c 0
 103 478 283 562 568 583 c 0
 614 587 743 597 743 597 c 1
 743 685 l 2
 743 823 673 886 530 886 c 0
 434 886 297 858 203 812 c 1
 195 831 163 916 156 935 c 1
 242 983 397 1019 526 1019 c 0
 770 1019 918 927 918 661 c 2
 918 0 l 1
 777 0 l 1
 750 112 l 1
 689 22 549 -21 415 -21 c 2
437 102 m 2
 436 102 l 2
 557 102 711 165 743 251 c 1
 743 490 l 1
 743 490 650 481 627 478 c 0
 366 447 277 402 277 262 c 0
 277 152 354 102 437 102 c 2
413 -21 m 2
 412 -21 l 2
 236 -21 101 79 101 263 c 0
 101 478 281 562 566 583 c 0
 612 587 741 597 741 597 c 1
 741 685 l 2
 741 823 671 886 528 886 c 0
 432 886 295 858 201 812 c 1
 193 831 161 916 154 935 c 1
 240 983 395 1019 524 1019 c 0
 768 1019 916 927 916 661 c 2
 916 0 l 1
 775 0 l 1
 748 112 l 1
 687 22 547 -21 413 -21 c 2
EndSplineSet
EndChar

StartChar: afii10065.copy_1
Encoding: 65537 -1 513
Width: 1054
Flags: W
LayerCount: 2
Fore
SplineSet
461 102 m 2
 460 102 l 2
 581 102 735 165 767 251 c 1
 767 490 l 1
 767 490 674 481 651 478 c 0
 390 447 301 402 301 262 c 0
 301 152 378 102 461 102 c 2
437 -21 m 2
 436 -21 l 2
 260 -21 125 79 125 263 c 0
 125 478 305 562 590 583 c 0
 636 587 765 597 765 597 c 1
 765 685 l 2
 765 823 695 886 552 886 c 0
 456 886 319 858 225 812 c 1
 217 831 185 916 178 935 c 1
 264 983 419 1019 548 1019 c 0
 792 1019 940 927 940 661 c 2
 940 0 l 1
 799 0 l 1
 772 112 l 1
 711 22 571 -21 437 -21 c 2
459 102 m 2
 458 102 l 2
 579 102 733 165 765 251 c 1
 765 490 l 1
 765 490 672 481 649 478 c 0
 388 447 299 402 299 262 c 0
 299 152 376 102 459 102 c 2
435 -21 m 2
 434 -21 l 2
 258 -21 123 79 123 263 c 0
 123 478 303 562 588 583 c 0
 634 587 763 597 763 597 c 1
 763 685 l 2
 763 823 693 886 550 886 c 0
 454 886 317 858 223 812 c 1
 215 831 183 916 176 935 c 1
 262 983 417 1019 546 1019 c 0
 790 1019 938 927 938 661 c 2
 938 0 l 1
 797 0 l 1
 770 112 l 1
 709 22 569 -21 435 -21 c 2
457 102 m 2
 456 102 l 2
 577 102 731 165 763 251 c 1
 763 490 l 1
 763 490 670 481 647 478 c 0
 386 447 297 402 297 262 c 0
 297 152 374 102 457 102 c 2
433 -21 m 2
 432 -21 l 2
 256 -21 121 79 121 263 c 0
 121 478 301 562 586 583 c 0
 632 587 761 597 761 597 c 1
 761 685 l 2
 761 823 691 886 548 886 c 0
 452 886 315 858 221 812 c 1
 213 831 181 916 174 935 c 1
 260 983 415 1019 544 1019 c 0
 788 1019 936 927 936 661 c 2
 936 0 l 1
 795 0 l 1
 768 112 l 1
 707 22 567 -21 433 -21 c 2
455 102 m 2
 454 102 l 2
 575 102 729 165 761 251 c 1
 761 490 l 1
 761 490 668 481 645 478 c 0
 384 447 295 402 295 262 c 0
 295 152 372 102 455 102 c 2
431 -21 m 2
 430 -21 l 2
 254 -21 119 79 119 263 c 0
 119 478 299 562 584 583 c 0
 630 587 759 597 759 597 c 1
 759 685 l 2
 759 823 689 886 546 886 c 0
 450 886 313 858 219 812 c 1
 211 831 179 916 172 935 c 1
 258 983 413 1019 542 1019 c 0
 786 1019 934 927 934 661 c 2
 934 0 l 1
 793 0 l 1
 766 112 l 1
 705 22 565 -21 431 -21 c 2
453 102 m 2
 452 102 l 2
 573 102 727 165 759 251 c 1
 759 490 l 1
 759 490 666 481 643 478 c 0
 382 447 293 402 293 262 c 0
 293 152 370 102 453 102 c 2
429 -21 m 2
 428 -21 l 2
 252 -21 117 79 117 263 c 0
 117 478 297 562 582 583 c 0
 628 587 757 597 757 597 c 1
 757 685 l 2
 757 823 687 886 544 886 c 0
 448 886 311 858 217 812 c 1
 209 831 177 916 170 935 c 1
 256 983 411 1019 540 1019 c 0
 784 1019 932 927 932 661 c 2
 932 0 l 1
 791 0 l 1
 764 112 l 1
 703 22 563 -21 429 -21 c 2
451 102 m 2
 450 102 l 2
 571 102 725 165 757 251 c 1
 757 490 l 1
 757 490 664 481 641 478 c 0
 380 447 291 402 291 262 c 0
 291 152 368 102 451 102 c 2
427 -21 m 2
 426 -21 l 2
 250 -21 115 79 115 263 c 0
 115 478 295 562 580 583 c 0
 626 587 755 597 755 597 c 1
 755 685 l 2
 755 823 685 886 542 886 c 0
 446 886 309 858 215 812 c 1
 207 831 175 916 168 935 c 1
 254 983 409 1019 538 1019 c 0
 782 1019 930 927 930 661 c 2
 930 0 l 1
 789 0 l 1
 762 112 l 1
 701 22 561 -21 427 -21 c 2
449 102 m 2
 448 102 l 2
 569 102 723 165 755 251 c 1
 755 490 l 1
 755 490 662 481 639 478 c 0
 378 447 289 402 289 262 c 0
 289 152 366 102 449 102 c 2
425 -21 m 2
 424 -21 l 2
 248 -21 113 79 113 263 c 0
 113 478 293 562 578 583 c 0
 624 587 753 597 753 597 c 1
 753 685 l 2
 753 823 683 886 540 886 c 0
 444 886 307 858 213 812 c 1
 205 831 173 916 166 935 c 1
 252 983 407 1019 536 1019 c 0
 780 1019 928 927 928 661 c 2
 928 0 l 1
 787 0 l 1
 760 112 l 1
 699 22 559 -21 425 -21 c 2
447 102 m 2
 446 102 l 2
 567 102 721 165 753 251 c 1
 753 490 l 1
 753 490 660 481 637 478 c 0
 376 447 287 402 287 262 c 0
 287 152 364 102 447 102 c 2
423 -21 m 2
 422 -21 l 2
 246 -21 111 79 111 263 c 0
 111 478 291 562 576 583 c 0
 622 587 751 597 751 597 c 1
 751 685 l 2
 751 823 681 886 538 886 c 0
 442 886 305 858 211 812 c 1
 203 831 171 916 164 935 c 1
 250 983 405 1019 534 1019 c 0
 778 1019 926 927 926 661 c 2
 926 0 l 1
 785 0 l 1
 758 112 l 1
 697 22 557 -21 423 -21 c 2
445 102 m 2
 444 102 l 2
 565 102 719 165 751 251 c 1
 751 490 l 1
 751 490 658 481 635 478 c 0
 374 447 285 402 285 262 c 0
 285 152 362 102 445 102 c 2
421 -21 m 2
 420 -21 l 2
 244 -21 109 79 109 263 c 0
 109 478 289 562 574 583 c 0
 620 587 749 597 749 597 c 1
 749 685 l 2
 749 823 679 886 536 886 c 0
 440 886 303 858 209 812 c 1
 201 831 169 916 162 935 c 1
 248 983 403 1019 532 1019 c 0
 776 1019 924 927 924 661 c 2
 924 0 l 1
 783 0 l 1
 756 112 l 1
 695 22 555 -21 421 -21 c 2
443 102 m 2
 442 102 l 2
 563 102 717 165 749 251 c 1
 749 490 l 1
 749 490 656 481 633 478 c 0
 372 447 283 402 283 262 c 0
 283 152 360 102 443 102 c 2
419 -21 m 2
 418 -21 l 2
 242 -21 107 79 107 263 c 0
 107 478 287 562 572 583 c 0
 618 587 747 597 747 597 c 1
 747 685 l 2
 747 823 677 886 534 886 c 0
 438 886 301 858 207 812 c 1
 199 831 167 916 160 935 c 1
 246 983 401 1019 530 1019 c 0
 774 1019 922 927 922 661 c 2
 922 0 l 1
 781 0 l 1
 754 112 l 1
 693 22 553 -21 419 -21 c 2
441 102 m 2
 440 102 l 2
 561 102 715 165 747 251 c 1
 747 490 l 1
 747 490 654 481 631 478 c 0
 370 447 281 402 281 262 c 0
 281 152 358 102 441 102 c 2
417 -21 m 2
 416 -21 l 2
 240 -21 105 79 105 263 c 0
 105 478 285 562 570 583 c 0
 616 587 745 597 745 597 c 1
 745 685 l 2
 745 823 675 886 532 886 c 0
 436 886 299 858 205 812 c 1
 197 831 165 916 158 935 c 1
 244 983 399 1019 528 1019 c 0
 772 1019 920 927 920 661 c 2
 920 0 l 1
 779 0 l 1
 752 112 l 1
 691 22 551 -21 417 -21 c 2
439 102 m 2
 438 102 l 2
 559 102 713 165 745 251 c 1
 745 490 l 1
 745 490 652 481 629 478 c 0
 368 447 279 402 279 262 c 0
 279 152 356 102 439 102 c 2
415 -21 m 2
 414 -21 l 2
 238 -21 103 79 103 263 c 0
 103 478 283 562 568 583 c 0
 614 587 743 597 743 597 c 1
 743 685 l 2
 743 823 673 886 530 886 c 0
 434 886 297 858 203 812 c 1
 195 831 163 916 156 935 c 1
 242 983 397 1019 526 1019 c 0
 770 1019 918 927 918 661 c 2
 918 0 l 1
 777 0 l 1
 750 112 l 1
 689 22 549 -21 415 -21 c 2
437 102 m 2
 436 102 l 2
 557 102 711 165 743 251 c 1
 743 490 l 1
 743 490 650 481 627 478 c 0
 366 447 277 402 277 262 c 0
 277 152 354 102 437 102 c 2
413 -21 m 2
 412 -21 l 2
 236 -21 101 79 101 263 c 0
 101 478 281 562 566 583 c 0
 612 587 741 597 741 597 c 1
 741 685 l 2
 741 823 671 886 528 886 c 0
 432 886 295 858 201 812 c 1
 193 831 161 916 154 935 c 1
 240 983 395 1019 524 1019 c 0
 768 1019 916 927 916 661 c 2
 916 0 l 1
 775 0 l 1
 748 112 l 1
 687 22 547 -21 413 -21 c 2
EndSplineSet
EndChar

StartChar: afii10066
Encoding: 1073 1073 514
Width: 983
Flags: W
LayerCount: 2
Fore
SplineSet
516 112 m 0
 695 112 776 208 776 399 c 0
 776 550 681 653 547 653 c 0
 489 653 358 625 264 528 c 1
 261 502 260 478 260 455 c 0
 260 220 384 112 516 112 c 0
521 -18 m 0
 137 -18 89 354 89 484 c 0
 89 886 300 1145 803 1165 c 1
 824 1036 l 1
 526 1027 322 915 274 680 c 1
 364 733 450 778 562 778 c 0
 794 778 924 583 924 396 c 0
 924 163 766 -18 521 -18 c 0
EndSplineSet
EndChar

StartChar: afii10067
Encoding: 1074 1074 515
Width: 1041
Flags: W
LayerCount: 2
Fore
SplineSet
324 870 m 1
 324 580 l 1
 599 580 l 2
 720 580 753 654 753 724 c 0
 753 807 708 870 587 870 c 2
 324 870 l 1
324 455 m 1
 324 122 l 1
 590 122 l 2
 748 122 785 189 785 293 c 0
 785 369 760 455 605 455 c 2
 324 455 l 1
149 0 m 1
 149 999 l 1
 595 999 l 2
 831 999 928 883 928 748 c 0
 928 645 883 574 756 533 c 1
 908 497 960 376 960 288 c 0
 960 137 861 0 595 0 c 2
 149 0 l 1
EndSplineSet
EndChar

StartChar: afii10068
Encoding: 1075 1075 516
Width: 846
Flags: W
LayerCount: 2
Fore
SplineSet
779 878 m 1
 324 878 l 1
 324 0 l 1
 149 0 l 1
 149 999 l 1
 790 999 l 1
 779 878 l 1
EndSplineSet
EndChar

StartChar: afii10069
Encoding: 1076 1076 517
Width: 1119
Flags: W
LayerCount: 2
Fore
SplineSet
795 878 m 1
 489 878 l 1
 434 478 l 2
 408 292 357 153 322 120 c 1
 795 120 l 1
 795 878 l 1
45 -275 m 1
 45 120 l 1
 133 120 l 1
 202 175 238 306 259 451 c 2
 337 999 l 1
 970 999 l 1
 970 120 l 1
 1049 120 l 1
 1049 -275 l 1
 901 -275 l 1
 901 0 l 1
 189 0 l 1
 189 -275 l 1
 45 -275 l 1
EndSplineSet
EndChar

StartChar: afii10069.copy_1
Encoding: 65538 -1 518
Width: 1108
Flags: W
LayerCount: 2
Fore
SplineSet
795 878 m 1
 483 878 l 1
 428 478 l 2
 402 292 351 153 316 120 c 1
 795 120 l 1
 795 878 l 1
39 -275 m 1
 39 120 l 1
 127 120 l 1
 196 175 232 306 253 451 c 2
 331 999 l 1
 970 999 l 1
 970 120 l 1
 1049 120 l 1
 1049 -275 l 1
 901 -275 l 1
 901 0 l 1
 183 0 l 1
 183 -275 l 1
 39 -275 l 1
EndSplineSet
EndChar

StartChar: afii10070
Encoding: 1077 1077 519
Width: 1108
Flags: W
LayerCount: 2
Fore
SplineSet
597 -21 m 0
 308 -21 103 176 103 496 c 0
 103 805 315 1019 578 1019 c 0
 835 1019 978 832 978 553 c 0
 978 530 972 469 972 469 c 1
 275 469 l 1
 279 240 432 112 622 112 c 0
 747 112 844 151 932 197 c 1
 956 65 l 1
 860 7 746 -21 597 -21 c 0
279 582 m 1
 814 582 l 1
 809 779 744 888 583 888 c 0
 427 888 296 772 279 582 c 1
597 -21 m 0
 308 -21 103 176 103 496 c 0
 103 805 315 1019 578 1019 c 0
 835 1019 978 832 978 553 c 0
 978 530 972 469 972 469 c 1
 275 469 l 1
 279 240 432 112 622 112 c 0
 747 112 844 151 932 197 c 1
 956 65 l 1
 860 7 746 -21 597 -21 c 0
279 582 m 1
 814 582 l 1
 809 779 744 888 583 888 c 0
 427 888 296 772 279 582 c 1
EndSplineSet
EndChar

StartChar: afii10070.copy_1
Encoding: 65539 -1 520
Width: 1108
Flags: W
LayerCount: 2
Fore
SplineSet
597 -21 m 0
 308 -21 103 176 103 496 c 0
 103 805 315 1019 578 1019 c 0
 835 1019 978 832 978 553 c 0
 978 530 972 469 972 469 c 1
 275 469 l 1
 279 240 432 112 622 112 c 0
 747 112 844 151 932 197 c 1
 956 65 l 1
 860 7 746 -21 597 -21 c 0
279 582 m 1
 814 582 l 1
 809 779 744 888 583 888 c 0
 427 888 296 772 279 582 c 1
597 -21 m 0
 308 -21 103 176 103 496 c 0
 103 805 315 1019 578 1019 c 0
 835 1019 978 832 978 553 c 0
 978 530 972 469 972 469 c 1
 275 469 l 1
 279 240 432 112 622 112 c 0
 747 112 844 151 932 197 c 1
 956 65 l 1
 860 7 746 -21 597 -21 c 0
279 582 m 1
 814 582 l 1
 809 779 744 888 583 888 c 0
 427 888 296 772 279 582 c 1
EndSplineSet
EndChar

StartChar: afii10071
Encoding: 1105 1105 521
Width: 1108
Flags: W
LayerCount: 2
Fore
SplineSet
641 1182 m 1
 641 1375 l 1
 782 1375 l 1
 782 1182 l 1
 641 1182 l 1
286 1182 m 1
 286 1375 l 1
 427 1375 l 1
 427 1182 l 1
 286 1182 l 1
598 -21 m 0
 309 -21 104 176 104 496 c 0
 104 805 316 1019 579 1019 c 0
 836 1019 979 832 979 553 c 0
 979 530 973 469 973 469 c 1
 276 469 l 1
 280 240 433 112 623 112 c 0
 748 112 845 151 933 197 c 1
 957 65 l 1
 861 7 747 -21 598 -21 c 0
280 582 m 1
 815 582 l 1
 810 779 745 888 584 888 c 0
 428 888 297 772 280 582 c 1
598 -21 m 0
 309 -21 104 176 104 496 c 0
 104 805 316 1019 579 1019 c 0
 836 1019 979 832 979 553 c 0
 979 530 973 469 973 469 c 1
 276 469 l 1
 280 240 433 112 623 112 c 0
 748 112 845 151 933 197 c 1
 957 65 l 1
 861 7 747 -21 598 -21 c 0
280 582 m 1
 815 582 l 1
 810 779 745 888 584 888 c 0
 428 888 297 772 280 582 c 1
EndSplineSet
EndChar

StartChar: afii10072
Encoding: 1078 1078 522
Width: 1415
Flags: W
LayerCount: 2
Fore
SplineSet
623 550 m 1
 623 999 l 1
 791 999 l 1
 791 550 l 1
 1188 999 l 1
 1369 999 l 1
 921 511 l 1
 1378 0 l 1
 1193 0 l 1
 791 460 l 1
 791 0 l 1
 623 0 l 1
 623 460 l 1
 222 0 l 1
 37 0 l 1
 494 511 l 1
 46 999 l 1
 228 999 l 1
 623 550 l 1
EndSplineSet
EndChar

StartChar: afii10073
Encoding: 1079 1079 523
Width: 865
Flags: W
LayerCount: 2
Fore
SplineSet
780 270 m 0
 780 112 627 -18 401 -18 c 0
 293 -18 182 3 98 70 c 1
 133 193 l 1
 190 149 301 112 401 112 c 0
 529 112 611 183 611 283 c 0
 611 371 555 457 395 457 c 2
 268 457 l 1
 268 576 l 1
 395 576 l 2
 529 576 591 648 591 726 c 0
 591 825 524 886 386 886 c 0
 288 886 193 851 132 807 c 1
 132 807 101 893 88 925 c 1
 172 995 295 1019 402 1019 c 0
 653 1019 748 884 748 745 c 0
 748 660 723 566 597 522 c 1
 722 480 780 379 780 270 c 0
EndSplineSet
EndChar

StartChar: afii10074
Encoding: 1080 1080 524
Width: 1066
Flags: W
LayerCount: 2
Fore
SplineSet
283 238 m 1
 784 905 l 1
 784 999 l 1
 937 999 l 1
 937 0 l 1
 784 0 l 1
 784 679 l 1
 274 0 l 1
 130 0 l 1
 130 999 l 1
 283 999 l 1
 283 238 l 1
EndSplineSet
EndChar

StartChar: afii10075
Encoding: 1081 1081 525
Width: 1066
Flags: W
LayerCount: 2
Fore
SplineSet
762 1363 m 1
 762 1206 645 1141 532 1141 c 0
 420 1141 305 1206 305 1363 c 1
 411 1363 l 1
 411 1276 466 1235 532 1235 c 0
 598 1235 656 1276 656 1363 c 1
 762 1363 l 1
283 238 m 1
 784 905 l 1
 784 999 l 1
 937 999 l 1
 937 0 l 1
 784 0 l 1
 784 679 l 1
 274 0 l 1
 130 0 l 1
 130 999 l 1
 283 999 l 1
 283 238 l 1
762 1363 m 1
 762 1206 645 1141 532 1141 c 0
 420 1141 305 1206 305 1363 c 1
 411 1363 l 1
 411 1276 466 1235 532 1235 c 0
 598 1235 656 1276 656 1363 c 1
 762 1363 l 1
283 238 m 1
 784 905 l 1
 784 999 l 1
 937 999 l 1
 937 0 l 1
 784 0 l 1
 784 679 l 1
 274 0 l 1
 130 0 l 1
 130 999 l 1
 283 999 l 1
 283 238 l 1
EndSplineSet
EndChar

StartChar: afii10076
Encoding: 1082 1082 526
Width: 1064
Flags: W
LayerCount: 2
Fore
SplineSet
149 999 m 1
 324 999 l 1
 324 560 l 1
 725 998 l 1
 940 998 l 1
 473 502 l 1
 990 0 l 1
 774 0 l 1
 324 439 l 1
 324 0 l 1
 149 0 l 1
 149 999 l 1
EndSplineSet
EndChar

StartChar: afii10077
Encoding: 1083 1083 527
Width: 1128
Flags: W
LayerCount: 2
Fore
SplineSet
804 0 m 1
 804 870 l 1
 493 870 l 1
 434 454 l 2
 393 167 333 -14 62 -14 c 1
 48 118 l 1
 192 118 227 187 268 480 c 2
 341 999 l 1
 979 999 l 1
 979 0 l 1
 804 0 l 1
EndSplineSet
EndChar

StartChar: afii10077.copy_1
Encoding: 65540 -1 528
Width: 1128
Flags: W
LayerCount: 2
Fore
SplineSet
804 0 m 1
 804 870 l 1
 493 870 l 1
 434 454 l 2
 393 167 333 -14 62 -14 c 1
 48 118 l 1
 192 118 227 187 268 480 c 2
 341 999 l 1
 979 999 l 1
 979 0 l 1
 804 0 l 1
EndSplineSet
EndChar

StartChar: afii10078
Encoding: 1084 1084 529
Width: 1171
Flags: W
LayerCount: 2
Fore
SplineSet
870 999 m 1
 1022 999 l 1
 1022 0 l 1
 869 0 l 1
 869 711 l 1
 640 205 l 1
 543 205 l 1
 302 711 l 1
 302 0 l 1
 149 0 l 1
 149 999 l 1
 302 999 l 1
 585 385 l 1
 870 999 l 1
EndSplineSet
EndChar

StartChar: afii10078.copy_1
Encoding: 65541 -1 530
Width: 1171
Flags: W
LayerCount: 2
Fore
SplineSet
870 999 m 1
 1022 999 l 1
 1022 0 l 1
 869 0 l 1
 869 711 l 1
 640 205 l 1
 543 205 l 1
 302 711 l 1
 302 0 l 1
 149 0 l 1
 149 999 l 1
 302 999 l 1
 585 385 l 1
 870 999 l 1
EndSplineSet
EndChar

StartChar: afii10079
Encoding: 1085 1085 531
Width: 1143
Flags: W
LayerCount: 2
Fore
SplineSet
819 594 m 1
 819 999 l 1
 994 999 l 1
 994 0 l 1
 819 0 l 1
 819 471 l 1
 324 471 l 1
 324 0 l 1
 149 0 l 1
 149 999 l 1
 324 999 l 1
 324 594 l 1
 819 594 l 1
EndSplineSet
EndChar

StartChar: afii10079.copy_1
Encoding: 65542 -1 532
Width: 1104
Flags: W
LayerCount: 2
Fore
SplineSet
800 594 m 1
 800 999 l 1
 975 999 l 1
 975 0 l 1
 800 0 l 1
 800 471 l 1
 305 471 l 1
 305 0 l 1
 130 0 l 1
 130 999 l 1
 305 999 l 1
 305 594 l 1
 800 594 l 1
EndSplineSet
EndChar

StartChar: afii10080
Encoding: 1086 1086 533
Width: 1138
Flags: W
LayerCount: 2
Fore
SplineSet
569 112 m 0
 776 112 860 279 860 497 c 0
 860 719 775 886 569 886 c 0
 363 886 277 719 277 497 c 0
 277 279 362 112 569 112 c 0
569 -21 m 0
 284 -21 103 200 103 499 c 0
 103 804 274 1019 569 1019 c 0
 864 1019 1035 804 1035 499 c 0
 1035 200 854 -21 569 -21 c 0
569 112 m 0
 776 112 860 279 860 497 c 0
 860 719 775 886 569 886 c 0
 363 886 277 719 277 497 c 0
 277 279 362 112 569 112 c 0
569 -21 m 0
 284 -21 103 200 103 499 c 0
 103 804 274 1019 569 1019 c 0
 864 1019 1035 804 1035 499 c 0
 1035 200 854 -21 569 -21 c 0
EndSplineSet
EndChar

StartChar: afii10080.copy_1
Encoding: 65543 -1 534
Width: 1138
Flags: W
LayerCount: 2
Fore
SplineSet
569 112 m 0
 776 112 860 279 860 497 c 0
 860 719 775 886 569 886 c 0
 363 886 277 719 277 497 c 0
 277 279 362 112 569 112 c 0
569 -21 m 0
 284 -21 103 200 103 499 c 0
 103 804 274 1019 569 1019 c 0
 864 1019 1035 804 1035 499 c 0
 1035 200 854 -21 569 -21 c 0
569 112 m 0
 776 112 860 279 860 497 c 0
 860 719 775 886 569 886 c 0
 363 886 277 719 277 497 c 0
 277 279 362 112 569 112 c 0
569 -21 m 0
 284 -21 103 200 103 499 c 0
 103 804 274 1019 569 1019 c 0
 864 1019 1035 804 1035 499 c 0
 1035 200 854 -21 569 -21 c 0
EndSplineSet
EndChar

StartChar: afii10081
Encoding: 1087 1087 535
Width: 1066
Flags: W
LayerCount: 2
Fore
SplineSet
784 0 m 1
 784 870 l 1
 283 870 l 1
 283 0 l 1
 130 0 l 1
 130 999 l 1
 937 999 l 1
 937 0 l 1
 784 0 l 1
EndSplineSet
EndChar

StartChar: afii10082
Encoding: 1088 1088 536
Width: 1177
Flags: W
LayerCount: 2
Fore
SplineSet
599 107 m 0
 790 107 890 261 890 500 c 0
 890 734 794 890 600 890 c 0
 394 890 308 746 308 516 c 0
 308 257 384 107 599 107 c 0
133 998 m 1
 291 998 l 1
 308 835 l 1
 363 953 489 1019 626 1019 c 0
 905 1019 1065 800 1065 494 c 0
 1065 196 887 -21 627 -21 c 0
 495 -21 369 43 303 136 c 1
 307 70 308 7 308 -55 c 2
 308 -423 l 1
 133 -433 l 1
 133 998 l 1
EndSplineSet
EndChar

StartChar: afii10083
Encoding: 1089 1089 537
Width: 945
Flags: W
LayerCount: 2
Fore
SplineSet
581 -21 m 0
 300 -21 103 195 103 496 c 0
 103 810 307 1019 587 1019 c 0
 692 1019 803 990 858 950 c 1
 816 832 l 1
 745 870 676 886 610 886 c 0
 400 886 277 733 277 495 c 0
 277 265 396 112 610 112 c 0
 696 112 757 138 829 175 c 1
 852 51 l 1
 786 3 681 -21 581 -21 c 0
581 -21 m 0
 300 -21 103 195 103 496 c 0
 103 810 307 1019 587 1019 c 0
 692 1019 803 990 858 950 c 1
 816 832 l 1
 745 870 676 886 610 886 c 0
 400 886 277 733 277 495 c 0
 277 265 396 112 610 112 c 0
 696 112 757 138 829 175 c 1
 852 51 l 1
 786 3 681 -21 581 -21 c 0
EndSplineSet
EndChar

StartChar: afii10084
Encoding: 1090 1090 538
Width: 883
Flags: W
LayerCount: 2
Fore
SplineSet
809 999 m 1
 809 870 l 1
 529 870 l 1
 529 0 l 1
 354 0 l 1
 354 870 l 1
 74 870 l 1
 74 999 l 1
 809 999 l 1
EndSplineSet
EndChar

StartChar: afii10085
Encoding: 1091 1091 539
Width: 1013
Flags: W
LayerCount: 2
Fore
SplineSet
92 -292 m 1
 86 -153 l 1
 105 -155 122 -155 139 -155 c 0
 421 -155 467 48 491 111 c 1
 52 998 l 1
 240 998 l 1
 565 277 l 1
 808 998 l 1
 992 998 l 1
 628 40 l 2
 569 -117 448 -293 138 -293 c 0
 123 -293 108 -293 92 -292 c 1
EndSplineSet
EndChar

StartChar: afii10086
Encoding: 1092 1092 540
Width: 1345
Flags: W
LayerCount: 2
Fore
SplineSet
885 153 m 0
 1013 153 1088 327 1088 506 c 0
 1088 687 1016 850 888 850 c 0
 847 850 782 844 736 821 c 1
 736 180 l 1
 780 157 846 153 885 153 c 0
426 153 m 0
 465 153 532 158 576 178 c 1
 576 824 l 1
 530 847 462 850 423 850 c 0
 294 850 224 687 224 506 c 0
 224 327 297 153 426 153 c 0
736 -280 m 1
 576 -280 l 1
 576 52 l 1
 533 35 462 29 421 29 c 0
 209 29 64 249 64 508 c 0
 64 768 206 974 423 974 c 0
 462 974 533 962 576 945 c 1
 576 1194 l 1
 736 1194 l 1
 736 945 l 1
 779 962 847 974 888 974 c 0
 1104 974 1248 768 1248 508 c 0
 1248 250 1102 29 889 29 c 0
 848 29 779 35 736 52 c 1
 736 -280 l 1
EndSplineSet
EndChar

StartChar: afii10087
Encoding: 1093 1093 541
Width: 1021
Flags: W
LayerCount: 2
Fore
SplineSet
509 623 m 1
 776 998 l 1
 968 998 l 1
 607 506 l 1
 977 0 l 1
 791 0 l 1
 509 396 l 1
 228 0 l 1
 44 0 l 1
 410 508 l 1
 58 998 l 1
 242 998 l 1
 509 623 l 1
509 623 m 1
 776 998 l 1
 968 998 l 1
 607 506 l 1
 977 0 l 1
 791 0 l 1
 509 396 l 1
 228 0 l 1
 44 0 l 1
 410 508 l 1
 58 998 l 1
 242 998 l 1
 509 623 l 1
EndSplineSet
EndChar

StartChar: afii10088
Encoding: 1094 1094 542
Width: 1094
Flags: W
LayerCount: 2
Fore
SplineSet
1046 -275 m 1
 871 -275 l 1
 871 0 l 1
 150 0 l 1
 150 999 l 1
 324 999 l 1
 324 120 l 1
 774 120 l 1
 774 999 l 1
 948 999 l 1
 948 121 l 1
 1046 121 l 1
 1046 -275 l 1
EndSplineSet
EndChar

StartChar: afii10089
Encoding: 1095 1095 543
Width: 1013
Flags: W
LayerCount: 2
Fore
SplineSet
864 0 m 1
 689 0 l 1
 689 368 l 1
 689 368 586 359 470 359 c 0
 238 359 113 499 113 750 c 2
 113 999 l 1
 288 999 l 1
 288 766 l 2
 288 548 347 490 498 490 c 0
 601 490 689 498 689 498 c 1
 689 999 l 1
 864 999 l 1
 864 0 l 1
EndSplineSet
EndChar

StartChar: afii10090
Encoding: 1096 1096 544
Width: 1354
Flags: W
LayerCount: 2
Fore
SplineSet
621 120 m 1
 621 999 l 1
 787 999 l 1
 787 120 l 1
 1050 120 l 1
 1050 999 l 1
 1216 999 l 1
 1216 0 l 1
 192 0 l 1
 192 999 l 1
 358 999 l 1
 358 120 l 1
 621 120 l 1
EndSplineSet
EndChar

StartChar: afii10091
Encoding: 1097 1097 545
Width: 1354
Flags: W
LayerCount: 2
Fore
SplineSet
1127 -275 m 1
 1127 0 l 1
 150 0 l 1
 150 999 l 1
 324 999 l 1
 324 120 l 1
 606 120 l 1
 606 999 l 1
 780 999 l 1
 780 120 l 1
 1030 120 l 1
 1030 999 l 1
 1204 999 l 1
 1204 120 l 1
 1302 120 l 1
 1302 -275 l 1
 1127 -275 l 1
EndSplineSet
EndChar

StartChar: afii10092
Encoding: 1098 1098 546
Width: 996
Flags: W
LayerCount: 2
Fore
SplineSet
377 122 m 1
 587 122 l 2
 707 122 750 239 750 329 c 0
 750 419 701 511 581 511 c 2
 377 511 l 1
 377 122 l 1
203 0 m 1
 203 878 l 1
 43 878 l 1
 43 999 l 1
 377 999 l 1
 377 635 l 1
 579 635 l 2
 823 635 924 490 924 326 c 0
 924 162 829 0 585 0 c 2
 203 0 l 1
EndSplineSet
EndChar

StartChar: afii10093
Encoding: 1099 1099 547
Width: 1397
Flags: W
LayerCount: 2
Fore
SplineSet
323 511 m 1
 323 122 l 1
 533 122 l 2
 653 122 696 239 696 329 c 0
 696 419 647 511 527 511 c 2
 323 511 l 1
323 999 m 1
 323 635 l 1
 525 635 l 2
 769 635 870 490 870 326 c 0
 870 162 775 0 531 0 c 2
 149 0 l 1
 149 999 l 1
 323 999 l 1
1074 0 m 1
 1074 998 l 1
 1248 998 l 1
 1248 0 l 1
 1074 0 l 1
EndSplineSet
EndChar

StartChar: afii10094
Encoding: 1100 1100 548
Width: 942
Flags: W
LayerCount: 2
Fore
SplineSet
323 511 m 1
 323 122 l 1
 533 122 l 2
 653 122 696 239 696 329 c 0
 696 419 647 511 527 511 c 2
 323 511 l 1
323 999 m 1
 323 635 l 1
 525 635 l 2
 769 635 870 490 870 326 c 0
 870 162 775 0 531 0 c 2
 149 0 l 1
 149 999 l 1
 323 999 l 1
EndSplineSet
EndChar

StartChar: afii10094.copy_1
Encoding: 65544 -1 549
Width: 940
Flags: W
LayerCount: 2
Fore
SplineSet
302 511 m 1
 302 122 l 1
 512 122 l 2
 632 122 675 239 675 329 c 0
 675 419 626 511 506 511 c 2
 302 511 l 1
302 999 m 1
 302 635 l 1
 504 635 l 2
 748 635 849 490 849 326 c 0
 849 162 754 0 510 0 c 2
 128 0 l 1
 128 999 l 1
 302 999 l 1
EndSplineSet
EndChar

StartChar: afii10095
Encoding: 1101 1101 550
Width: 1010
Flags: W
LayerCount: 2
Fore
SplineSet
411 -23 m 0
 285 -23 178 10 116 64 c 1
 157 177 l 1
 241 126 322 103 402 103 c 0
 591 103 716 234 737 434 c 1
 316 434 l 1
 316 563 l 1
 737 563 l 1
 717 764 608 897 401 897 c 0
 303 897 218 860 157 821 c 1
 115 932 l 1
 186 993 302 1023 409 1023 c 0
 741 1023 898 776 898 496 c 0
 898 227 735 -23 411 -23 c 0
EndSplineSet
EndChar

StartChar: afii10096
Encoding: 1102 1102 551
Width: 1395
Flags: W
LayerCount: 2
Fore
SplineSet
868 103 m 0
 1065 103 1124 294 1124 498 c 0
 1124 710 1072 897 865 897 c 0
 668 897 598 699 598 495 c 0
 598 294 668 103 868 103 c 0
865 -23 m 0
 586 -23 459 177 442 435 c 1
 283 435 l 1
 283 0 l 1
 130 0 l 1
 130 999 l 1
 283 999 l 1
 283 562 l 1
 442 562 l 1
 460 819 589 1023 868 1023 c 0
 1174 1023 1282 788 1282 500 c 0
 1282 223 1164 -23 865 -23 c 0
EndSplineSet
EndChar

StartChar: afii10097
Encoding: 1103 1103 552
Width: 1055
Flags: W
LayerCount: 2
Fore
SplineSet
444 527 m 2
 733 527 l 1
 733 870 l 1
 444 870 l 2
 323 870 280 776 280 693 c 0
 280 617 323 527 444 527 c 2
107 0 m 1
 315 418 l 1
 174 462 106 577 106 693 c 0
 106 849 209 999 454 999 c 2
 906 999 l 1
 906 0 l 1
 733 0 l 1
 733 399 l 1
 485 399 l 1
 302 0 l 1
 107 0 l 1
EndSplineSet
EndChar

StartChar: afii10099
Encoding: 1106 1106 553
Width: 1130
Flags: W
LayerCount: 2
Fore
SplineSet
655 -258 m 1
 644 -128 l 1
 683 -128 l 2
 840 -128 858 -100 858 95 c 2
 858 335 l 2
 858 561 828 672 658 672 c 0
 502 672 376 545 351 450 c 1
 351 0 l 1
 198 0 l 1
 198 999 l 1
 113 999 l 1
 113 1105 l 1
 198 1105 l 1
 198 1374 l 1
 351 1374 l 1
 351 1105 l 1
 729 1105 l 1
 729 999 l 1
 351 999 l 1
 351 649 l 1
 431 750 536 812 672 812 c 0
 906 812 1011 667 1011 405 c 2
 1011 144 l 2
 1011 -134 990 -258 720 -258 c 2
 655 -258 l 1
EndSplineSet
EndChar

StartChar: afii10100
Encoding: 1107 1107 554
Width: 846
Flags: W
LayerCount: 2
Fore
SplineSet
418 1182 m 1
 588 1535 l 1
 818 1535 l 1
 522 1182 l 1
 418 1182 l 1
780 878 m 1
 325 878 l 1
 325 0 l 1
 150 0 l 1
 150 999 l 1
 791 999 l 1
 780 878 l 1
EndSplineSet
EndChar

StartChar: afii10101
Encoding: 1108 1108 555
Width: 1004
Flags: W
LayerCount: 2
Fore
SplineSet
595 -23 m 0
 271 -23 108 227 108 496 c 0
 108 776 266 1023 598 1023 c 0
 705 1023 821 993 892 932 c 1
 850 821 l 1
 789 860 703 897 605 897 c 0
 398 897 289 764 269 563 c 1
 691 563 l 1
 691 434 l 1
 269 434 l 1
 290 234 415 103 604 103 c 0
 684 103 765 126 849 177 c 1
 891 64 l 1
 829 10 721 -23 595 -23 c 0
EndSplineSet
EndChar

StartChar: afii10102
Encoding: 1109 1109 556
Width: 814
Flags: W
LayerCount: 2
Fore
SplineSet
441 -21 m 0
 298 -21 189 5 123 48 c 1
 155 168 l 1
 221 133 314 98 433 98 c 0
 572 98 652 154 652 254 c 0
 652 342 612 373 429 439 c 1
 361 465 l 1
 184 530 117 620 116 745 c 1
 116 896 233 1019 459 1019 c 0
 577 1019 667 996 756 954 c 1
 718 845 l 1
 641 877 562 899 466 899 c 0
 340 899 267 836 267 751 c 0
 267 672 308 649 451 593 c 2
 515 568 l 2
 713 491 794 420 794 269 c 1
 791 82 659 -21 441 -21 c 0
441 -21 m 0
 298 -21 189 5 123 48 c 1
 155 168 l 1
 221 133 314 98 433 98 c 0
 572 98 652 154 652 254 c 0
 652 342 612 373 429 439 c 1
 361 465 l 1
 184 530 117 620 116 745 c 1
 116 896 233 1019 459 1019 c 0
 577 1019 667 996 756 954 c 1
 718 845 l 1
 641 877 562 899 466 899 c 0
 340 899 267 836 267 751 c 0
 267 672 308 649 451 593 c 2
 515 568 l 2
 713 491 794 420 794 269 c 1
 791 82 659 -21 441 -21 c 0
441 -21 m 0
 298 -21 189 5 123 48 c 1
 155 168 l 1
 221 133 314 98 433 98 c 0
 572 98 652 154 652 254 c 0
 652 342 612 373 429 439 c 1
 361 465 l 1
 184 530 117 620 116 745 c 1
 116 896 233 1019 459 1019 c 0
 577 1019 667 996 756 954 c 1
 718 845 l 1
 641 877 562 899 466 899 c 0
 340 899 267 836 267 751 c 0
 267 672 308 649 451 593 c 2
 515 568 l 2
 713 491 794 420 794 269 c 1
 791 82 659 -21 441 -21 c 0
441 -21 m 0
 298 -21 189 5 123 48 c 1
 155 168 l 1
 221 133 314 98 433 98 c 0
 572 98 652 154 652 254 c 0
 652 342 612 373 429 439 c 1
 361 465 l 1
 184 530 117 620 116 745 c 1
 116 896 233 1019 459 1019 c 0
 577 1019 667 996 756 954 c 1
 718 845 l 1
 641 877 562 899 466 899 c 0
 340 899 267 836 267 751 c 0
 267 672 308 649 451 593 c 2
 515 568 l 2
 713 491 794 420 794 269 c 1
 791 82 659 -21 441 -21 c 0
441 -21 m 0
 298 -21 189 5 123 48 c 1
 155 168 l 1
 221 133 314 98 433 98 c 0
 572 98 652 154 652 254 c 0
 652 342 612 373 429 439 c 1
 361 465 l 1
 184 530 117 620 116 745 c 1
 116 896 233 1019 459 1019 c 0
 577 1019 667 996 756 954 c 1
 718 845 l 1
 641 877 562 899 466 899 c 0
 340 899 267 836 267 751 c 0
 267 672 308 649 451 593 c 2
 515 568 l 2
 713 491 794 420 794 269 c 1
 791 82 659 -21 441 -21 c 0
441 -21 m 0
 298 -21 189 5 123 48 c 1
 155 168 l 1
 221 133 314 98 433 98 c 0
 572 98 652 154 652 254 c 0
 652 342 612 373 429 439 c 1
 361 465 l 1
 184 530 117 620 116 745 c 1
 116 896 233 1019 459 1019 c 0
 577 1019 667 996 756 954 c 1
 718 845 l 1
 641 877 562 899 466 899 c 0
 340 899 267 836 267 751 c 0
 267 672 308 649 451 593 c 2
 515 568 l 2
 713 491 794 420 794 269 c 1
 791 82 659 -21 441 -21 c 0
441 -21 m 0
 298 -21 189 5 123 48 c 1
 155 168 l 1
 221 133 314 98 433 98 c 0
 572 98 652 154 652 254 c 0
 652 342 612 373 429 439 c 1
 361 465 l 1
 184 530 117 620 116 745 c 1
 116 896 233 1019 459 1019 c 0
 577 1019 667 996 756 954 c 1
 718 845 l 1
 641 877 562 899 466 899 c 0
 340 899 267 836 267 751 c 0
 267 672 308 649 451 593 c 2
 515 568 l 2
 713 491 794 420 794 269 c 1
 791 82 659 -21 441 -21 c 0
441 -21 m 0
 298 -21 189 5 123 48 c 1
 155 168 l 1
 221 133 314 98 433 98 c 0
 572 98 652 154 652 254 c 0
 652 342 612 373 429 439 c 1
 361 465 l 1
 184 530 117 620 116 745 c 1
 116 896 233 1019 459 1019 c 0
 577 1019 667 996 756 954 c 1
 718 845 l 1
 641 877 562 899 466 899 c 0
 340 899 267 836 267 751 c 0
 267 672 308 649 451 593 c 2
 515 568 l 2
 713 491 794 420 794 269 c 1
 791 82 659 -21 441 -21 c 0
441 -21 m 0
 298 -21 189 5 123 48 c 1
 155 168 l 1
 221 133 314 98 433 98 c 0
 572 98 652 154 652 254 c 0
 652 342 612 373 429 439 c 1
 361 465 l 1
 184 530 117 620 116 745 c 1
 116 896 233 1019 459 1019 c 0
 577 1019 667 996 756 954 c 1
 718 845 l 1
 641 877 562 899 466 899 c 0
 340 899 267 836 267 751 c 0
 267 672 308 649 451 593 c 2
 515 568 l 2
 713 491 794 420 794 269 c 1
 791 82 659 -21 441 -21 c 0
441 -21 m 0
 298 -21 189 5 123 48 c 1
 155 168 l 1
 221 133 314 98 433 98 c 0
 572 98 652 154 652 254 c 0
 652 342 612 373 429 439 c 1
 361 465 l 1
 184 530 117 620 116 745 c 1
 116 896 233 1019 459 1019 c 0
 577 1019 667 996 756 954 c 1
 718 845 l 1
 641 877 562 899 466 899 c 0
 340 899 267 836 267 751 c 0
 267 672 308 649 451 593 c 2
 515 568 l 2
 713 491 794 420 794 269 c 1
 791 82 659 -21 441 -21 c 0
441 -21 m 0
 298 -21 189 5 123 48 c 1
 155 168 l 1
 221 133 314 98 433 98 c 0
 572 98 652 154 652 254 c 0
 652 342 612 373 429 439 c 1
 361 465 l 1
 184 530 117 620 116 745 c 1
 116 896 233 1019 459 1019 c 0
 577 1019 667 996 756 954 c 1
 718 845 l 1
 641 877 562 899 466 899 c 0
 340 899 267 836 267 751 c 0
 267 672 308 649 451 593 c 2
 515 568 l 2
 713 491 794 420 794 269 c 1
 791 82 659 -21 441 -21 c 0
441 -21 m 0
 298 -21 189 5 123 48 c 1
 155 168 l 1
 221 133 314 98 433 98 c 0
 572 98 652 154 652 254 c 0
 652 342 612 373 429 439 c 1
 361 465 l 1
 184 530 117 620 116 745 c 1
 116 896 233 1019 459 1019 c 0
 577 1019 667 996 756 954 c 1
 718 845 l 1
 641 877 562 899 466 899 c 0
 340 899 267 836 267 751 c 0
 267 672 308 649 451 593 c 2
 515 568 l 2
 713 491 794 420 794 269 c 1
 791 82 659 -21 441 -21 c 0
441 -21 m 0
 298 -21 189 5 123 48 c 1
 155 168 l 1
 221 133 314 98 433 98 c 0
 572 98 652 154 652 254 c 0
 652 342 612 373 429 439 c 1
 361 465 l 1
 184 530 117 620 116 745 c 1
 116 896 233 1019 459 1019 c 0
 577 1019 667 996 756 954 c 1
 718 845 l 1
 641 877 562 899 466 899 c 0
 340 899 267 836 267 751 c 0
 267 672 308 649 451 593 c 2
 515 568 l 2
 713 491 794 420 794 269 c 1
 791 82 659 -21 441 -21 c 0
EndSplineSet
EndChar

StartChar: afii10103
Encoding: 1110 1110 557
Width: 522
Flags: W
LayerCount: 2
Fore
SplineSet
178 1181 m 1
 178 1361 l 1
 352 1361 l 1
 352 1181 l 1
 178 1181 l 1
178 0 m 1
 178 998 l 1
 352 998 l 1
 352 0 l 1
 178 0 l 1
178 1181 m 1
 178 1361 l 1
 352 1361 l 1
 352 1181 l 1
 178 1181 l 1
178 0 m 1
 178 998 l 1
 352 998 l 1
 352 0 l 1
 178 0 l 1
178 1181 m 1
 178 1361 l 1
 352 1361 l 1
 352 1181 l 1
 178 1181 l 1
178 0 m 1
 178 998 l 1
 352 998 l 1
 352 0 l 1
 178 0 l 1
178 1181 m 1
 178 1361 l 1
 352 1361 l 1
 352 1181 l 1
 178 1181 l 1
178 0 m 1
 178 998 l 1
 352 998 l 1
 352 0 l 1
 178 0 l 1
178 1181 m 1
 178 1361 l 1
 352 1361 l 1
 352 1181 l 1
 178 1181 l 1
178 0 m 1
 178 998 l 1
 352 998 l 1
 352 0 l 1
 178 0 l 1
178 1181 m 1
 178 1361 l 1
 352 1361 l 1
 352 1181 l 1
 178 1181 l 1
178 0 m 1
 178 998 l 1
 352 998 l 1
 352 0 l 1
 178 0 l 1
178 1181 m 1
 178 1361 l 1
 352 1361 l 1
 352 1181 l 1
 178 1181 l 1
178 0 m 1
 178 998 l 1
 352 998 l 1
 352 0 l 1
 178 0 l 1
178 1181 m 1
 178 1361 l 1
 352 1361 l 1
 352 1181 l 1
 178 1181 l 1
178 0 m 1
 178 998 l 1
 352 998 l 1
 352 0 l 1
 178 0 l 1
178 1181 m 1
 178 1361 l 1
 352 1361 l 1
 352 1181 l 1
 178 1181 l 1
178 0 m 1
 178 998 l 1
 352 998 l 1
 352 0 l 1
 178 0 l 1
178 1181 m 1
 178 1361 l 1
 352 1361 l 1
 352 1181 l 1
 178 1181 l 1
178 0 m 1
 178 998 l 1
 352 998 l 1
 352 0 l 1
 178 0 l 1
178 1181 m 1
 178 1361 l 1
 352 1361 l 1
 352 1181 l 1
 178 1181 l 1
178 0 m 1
 178 998 l 1
 352 998 l 1
 352 0 l 1
 178 0 l 1
178 1181 m 1
 178 1361 l 1
 352 1361 l 1
 352 1181 l 1
 178 1181 l 1
178 0 m 1
 178 998 l 1
 352 998 l 1
 352 0 l 1
 178 0 l 1
178 1181 m 1
 178 1361 l 1
 352 1361 l 1
 352 1181 l 1
 178 1181 l 1
178 0 m 1
 178 998 l 1
 352 998 l 1
 352 0 l 1
 178 0 l 1
EndSplineSet
EndChar

StartChar: afii10104
Encoding: 1111 1111 558
Width: 413
Flags: W
LayerCount: 2
Fore
SplineSet
314 1182 m 1
 314 1375 l 1
 455 1375 l 1
 455 1182 l 1
 314 1182 l 1
-41 1182 m 1
 -41 1375 l 1
 100 1375 l 1
 100 1182 l 1
 -41 1182 l 1
130 0 m 1
 130 999 l 1
 284 999 l 1
 284 0 l 1
 130 0 l 1
EndSplineSet
EndChar

StartChar: afii10105
Encoding: 1112 1112 559
Width: 484
Flags: W
LayerCount: 2
Fore
SplineSet
48 -398 m 1
 28 -257 l 1
 76 -257 l 2
 211 -257 225 -215 225 -127 c 2
 224 998 l 1
 399 998 l 1
 399 -68 l 2
 399 -312 344 -398 96 -398 c 2
 48 -398 l 1
224 1181 m 1
 224 1361 l 1
 399 1361 l 1
 399 1181 l 1
 224 1181 l 1
48 -398 m 1
 28 -257 l 1
 76 -257 l 2
 211 -257 225 -215 225 -127 c 2
 224 998 l 1
 399 998 l 1
 399 -68 l 2
 399 -312 344 -398 96 -398 c 2
 48 -398 l 1
224 1181 m 1
 224 1361 l 1
 399 1361 l 1
 399 1181 l 1
 224 1181 l 1
48 -398 m 1
 28 -257 l 1
 76 -257 l 2
 211 -257 225 -215 225 -127 c 2
 224 998 l 1
 399 998 l 1
 399 -68 l 2
 399 -312 344 -398 96 -398 c 2
 48 -398 l 1
224 1181 m 1
 224 1361 l 1
 399 1361 l 1
 399 1181 l 1
 224 1181 l 1
48 -398 m 1
 28 -257 l 1
 76 -257 l 2
 211 -257 225 -215 225 -127 c 2
 224 998 l 1
 399 998 l 1
 399 -68 l 2
 399 -312 344 -398 96 -398 c 2
 48 -398 l 1
224 1181 m 1
 224 1361 l 1
 399 1361 l 1
 399 1181 l 1
 224 1181 l 1
48 -398 m 1
 28 -257 l 1
 76 -257 l 2
 211 -257 225 -215 225 -127 c 2
 224 998 l 1
 399 998 l 1
 399 -68 l 2
 399 -312 344 -398 96 -398 c 2
 48 -398 l 1
224 1181 m 1
 224 1361 l 1
 399 1361 l 1
 399 1181 l 1
 224 1181 l 1
48 -398 m 1
 28 -257 l 1
 76 -257 l 2
 211 -257 225 -215 225 -127 c 2
 224 998 l 1
 399 998 l 1
 399 -68 l 2
 399 -312 344 -398 96 -398 c 2
 48 -398 l 1
224 1181 m 1
 224 1361 l 1
 399 1361 l 1
 399 1181 l 1
 224 1181 l 1
48 -398 m 1
 28 -257 l 1
 76 -257 l 2
 211 -257 225 -215 225 -127 c 2
 224 998 l 1
 399 998 l 1
 399 -68 l 2
 399 -312 344 -398 96 -398 c 2
 48 -398 l 1
224 1181 m 1
 224 1361 l 1
 399 1361 l 1
 399 1181 l 1
 224 1181 l 1
48 -398 m 1
 28 -257 l 1
 76 -257 l 2
 211 -257 225 -215 225 -127 c 2
 224 998 l 1
 399 998 l 1
 399 -68 l 2
 399 -312 344 -398 96 -398 c 2
 48 -398 l 1
224 1181 m 1
 224 1361 l 1
 399 1361 l 1
 399 1181 l 1
 224 1181 l 1
48 -398 m 1
 28 -257 l 1
 76 -257 l 2
 211 -257 225 -215 225 -127 c 2
 224 998 l 1
 399 998 l 1
 399 -68 l 2
 399 -312 344 -398 96 -398 c 2
 48 -398 l 1
224 1181 m 1
 224 1361 l 1
 399 1361 l 1
 399 1181 l 1
 224 1181 l 1
48 -398 m 1
 28 -257 l 1
 76 -257 l 2
 211 -257 225 -215 225 -127 c 2
 224 998 l 1
 399 998 l 1
 399 -68 l 2
 399 -312 344 -398 96 -398 c 2
 48 -398 l 1
224 1181 m 1
 224 1361 l 1
 399 1361 l 1
 399 1181 l 1
 224 1181 l 1
48 -398 m 1
 28 -257 l 1
 76 -257 l 2
 211 -257 225 -215 225 -127 c 2
 224 998 l 1
 399 998 l 1
 399 -68 l 2
 399 -312 344 -398 96 -398 c 2
 48 -398 l 1
224 1181 m 1
 224 1361 l 1
 399 1361 l 1
 399 1181 l 1
 224 1181 l 1
48 -398 m 1
 28 -257 l 1
 76 -257 l 2
 211 -257 225 -215 225 -127 c 2
 224 998 l 1
 399 998 l 1
 399 -68 l 2
 399 -312 344 -398 96 -398 c 2
 48 -398 l 1
224 1181 m 1
 224 1361 l 1
 399 1361 l 1
 399 1181 l 1
 224 1181 l 1
48 -398 m 1
 28 -257 l 1
 76 -257 l 2
 211 -257 225 -215 225 -127 c 2
 224 998 l 1
 399 998 l 1
 399 -68 l 2
 399 -312 344 -398 96 -398 c 2
 48 -398 l 1
224 1181 m 1
 224 1361 l 1
 399 1361 l 1
 399 1181 l 1
 224 1181 l 1
EndSplineSet
EndChar

StartChar: afii10106
Encoding: 1113 1113 560
Width: 1648
Flags: W
LayerCount: 2
Fore
SplineSet
1004 511 m 1
 1004 120 l 1
 1224 120 l 2
 1344 120 1393 239 1393 329 c 0
 1393 419 1338 511 1218 511 c 2
 1004 511 l 1
107 -23 m 1
 98 116 l 1
 141 116 l 2
 267 116 269 168 269 372 c 2
 269 999 l 1
 1004 999 l 1
 1004 635 l 1
 1196 635 l 2
 1440 635 1541 490 1541 326 c 0
 1541 162 1446 0 1202 0 c 2
 851 0 l 1
 851 870 l 1
 422 870 l 1
 422 381 l 2
 422 83 419 -23 141 -23 c 2
 107 -23 l 1
EndSplineSet
EndChar

StartChar: afii10107
Encoding: 1114 1114 561
Width: 1515
Flags: W
LayerCount: 2
Fore
SplineSet
875 511 m 1
 875 120 l 1
 1091 120 l 2
 1211 120 1260 239 1260 329 c 0
 1260 419 1205 511 1085 511 c 2
 875 511 l 1
722 594 m 1
 722 999 l 1
 875 999 l 1
 875 635 l 1
 1063 635 l 2
 1307 635 1408 490 1408 326 c 0
 1408 162 1313 0 1069 0 c 2
 722 0 l 1
 722 471 l 1
 283 471 l 1
 283 0 l 1
 130 0 l 1
 130 999 l 1
 283 999 l 1
 283 594 l 1
 722 594 l 1
EndSplineSet
EndChar

StartChar: afii10108
Encoding: 1115 1115 562
Width: 1128
Flags: W
LayerCount: 2
Fore
SplineSet
366 0 m 1
 192 0 l 1
 192 954 l 1
 64 954 l 1
 64 1060 l 1
 192 1060 l 1
 192 1347 l 1
 345 1347 l 1
 345 1060 l 1
 704 1060 l 1
 704 954 l 1
 366 954 l 1
 366 630 l 1
 398 633 473 650 598 650 c 0
 830 650 928 520 928 269 c 2
 928 0 l 1
 754 0 l 1
 754 233 l 2
 754 451 727 519 576 519 c 0
 470 519 395 504 366 502 c 1
 366 0 l 1
EndSplineSet
EndChar

StartChar: afii10108.copy_1
Encoding: 65545 -1 563
Width: 1128
Flags: W
LayerCount: 2
Fore
SplineSet
366 0 m 1
 192 0 l 1
 192 954 l 1
 64 954 l 1
 64 1060 l 1
 192 1060 l 1
 192 1347 l 1
 345 1347 l 1
 345 1060 l 1
 704 1060 l 1
 704 954 l 1
 366 954 l 1
 366 630 l 1
 398 633 473 650 598 650 c 0
 830 650 928 520 928 269 c 2
 928 0 l 1
 754 0 l 1
 754 233 l 2
 754 451 727 519 576 519 c 0
 470 519 395 504 366 502 c 1
 366 0 l 1
EndSplineSet
EndChar

StartChar: afii10109
Encoding: 1116 1116 564
Width: 1064
Flags: W
LayerCount: 2
Fore
SplineSet
518 1182 m 1
 688 1535 l 1
 918 1535 l 1
 622 1182 l 1
 518 1182 l 1
149 999 m 1
 324 999 l 1
 324 560 l 1
 725 998 l 1
 940 998 l 1
 473 502 l 1
 990 0 l 1
 774 0 l 1
 324 439 l 1
 324 0 l 1
 149 0 l 1
 149 999 l 1
EndSplineSet
EndChar

StartChar: afii10110
Encoding: 1118 1118 565
Width: 1013
Flags: W
LayerCount: 2
Fore
SplineSet
751 1404 m 1
 751 1247 634 1182 521 1182 c 0
 409 1182 294 1247 294 1404 c 1
 400 1404 l 1
 400 1317 455 1276 521 1276 c 0
 587 1276 645 1317 645 1404 c 1
 751 1404 l 1
92 -292 m 1
 86 -153 l 1
 105 -155 122 -155 139 -155 c 0
 421 -155 467 48 491 111 c 1
 52 998 l 1
 240 998 l 1
 565 277 l 1
 808 998 l 1
 992 998 l 1
 628 40 l 2
 569 -117 448 -293 138 -293 c 0
 123 -293 108 -293 92 -292 c 1
EndSplineSet
EndChar

StartChar: afii10145
Encoding: 1039 1039 566
Width: 1327
Flags: W
LayerCount: 2
Fore
SplineSet
760 0 m 1
 760 -275 l 1
 601 -275 l 1
 601 0 l 1
 160 0 l 1
 160 1346 l 1
 334 1346 l 1
 334 138 l 1
 993 138 l 1
 993 1346 l 1
 1167 1346 l 1
 1167 0 l 1
 760 0 l 1
EndSplineSet
EndChar

StartChar: afii10193
Encoding: 1119 1119 567
Width: 1025
Flags: W
LayerCount: 2
Fore
SplineSet
283 999 m 1
 283 120 l 1
 743 120 l 1
 743 999 l 1
 896 999 l 1
 896 0 l 1
 604 0 l 1
 598 -253 l 1
 474 -253 l 1
 470 0 l 1
 130 0 l 1
 130 999 l 1
 283 999 l 1
EndSplineSet
EndChar

StartChar: afii57929
Encoding: 700 700 568
Width: 458
Flags: W
LayerCount: 2
Fore
SplineSet
121 1003 m 1
 206 1432 l 1
 349 1432 l 1
 227 1003 l 1
 121 1003 l 1
EndSplineSet
EndChar

StartChar: afii61352
Encoding: 8470 8470 569
Width: 2577
Flags: W
LayerCount: 2
Fore
SplineSet
2042 112 m 0
 2249 112 2333 279 2333 497 c 0
 2333 719 2248 886 2042 886 c 0
 1836 886 1750 719 1750 497 c 0
 1750 279 1835 112 2042 112 c 0
2042 -21 m 0
 1757 -21 1576 200 1576 499 c 0
 1576 804 1747 1019 2042 1019 c 0
 2337 1019 2508 804 2508 499 c 0
 2508 200 2327 -21 2042 -21 c 0
1156 208 m 1
 1151 555 l 1
 1151 1390 l 1
 1307 1390 l 1
 1307 0 l 1
 1124 0 l 1
 329 1181 l 1
 334 830 l 1
 334 0 l 1
 178 0 l 1
 178 1390 l 1
 357 1390 l 1
 1156 208 l 1
EndSplineSet
EndChar

StartChar: alpha
Encoding: 945 945 570
Width: 451
Flags: W
LayerCount: 2
Fore
SplineSet
223 484 m 0
 143 484 102 544 102 604 c 0
 102 664 143 724 223 724 c 0
 304 724 344 664 344 604 c 0
 344 544 304 484 223 484 c 0
EndSplineSet
EndChar

StartChar: alphatonos
Encoding: 940 940 571
Width: 451
Flags: W
LayerCount: 2
Fore
SplineSet
223 484 m 0
 143 484 102 544 102 604 c 0
 102 664 143 724 223 724 c 0
 304 724 344 664 344 604 c 0
 344 544 304 484 223 484 c 0
EndSplineSet
EndChar

StartChar: beta
Encoding: 946 946 573
Width: 451
Flags: W
LayerCount: 2
Fore
SplineSet
223 484 m 0
 143 484 102 544 102 604 c 0
 102 664 143 724 223 724 c 0
 304 724 344 664 344 604 c 0
 344 544 304 484 223 484 c 0
EndSplineSet
EndChar

StartChar: chi
Encoding: 967 967 574
Width: 1147
Flags: W
LayerCount: 2
Fore
SplineSet
572 623 m 1
 840 998 l 1
 1032 998 l 1
 671 506 l 1
 1041 0 l 1
 854 0 l 1
 573 396 l 1
 292 0 l 1
 108 0 l 1
 474 508 l 1
 122 998 l 1
 306 998 l 1
 572 623 l 1
EndSplineSet
EndChar

StartChar: delta
Encoding: 948 948 575
Width: 451
Flags: W
LayerCount: 2
Fore
SplineSet
223 484 m 0
 143 484 102 544 102 604 c 0
 102 664 143 724 223 724 c 0
 304 724 344 664 344 604 c 0
 344 544 304 484 223 484 c 0
EndSplineSet
EndChar

StartChar: dieresistonos
Encoding: 901 901 576
Width: 425
Flags: W
LayerCount: 2
Fore
SplineSet
216 484 m 0
 136 484 95 544 95 604 c 0
 95 664 136 724 216 724 c 0
 297 724 337 664 337 604 c 0
 337 544 297 484 216 484 c 0
EndSplineSet
EndChar

StartChar: epsilon
Encoding: 949 949 577
Width: 451
Flags: W
LayerCount: 2
Fore
SplineSet
223 484 m 0
 143 484 102 544 102 604 c 0
 102 664 143 724 223 724 c 0
 304 724 344 664 344 604 c 0
 344 544 304 484 223 484 c 0
EndSplineSet
EndChar

StartChar: epsilontonos
Encoding: 941 941 578
Width: 451
Flags: W
LayerCount: 2
Fore
SplineSet
223 484 m 0
 143 484 102 544 102 604 c 0
 102 664 143 724 223 724 c 0
 304 724 344 664 344 604 c 0
 344 544 304 484 223 484 c 0
EndSplineSet
EndChar

StartChar: eta
Encoding: 951 951 579
Width: 451
Flags: W
LayerCount: 2
Fore
SplineSet
223 484 m 0
 143 484 102 544 102 604 c 0
 102 664 143 724 223 724 c 0
 304 724 344 664 344 604 c 0
 344 544 304 484 223 484 c 0
EndSplineSet
EndChar

StartChar: etatonos
Encoding: 942 942 580
Width: 451
Flags: W
LayerCount: 2
Fore
SplineSet
223 484 m 0
 143 484 102 544 102 604 c 0
 102 664 143 724 223 724 c 0
 304 724 344 664 344 604 c 0
 344 544 304 484 223 484 c 0
EndSplineSet
EndChar

StartChar: gamma
Encoding: 947 947 581
Width: 451
Flags: W
LayerCount: 2
Fore
SplineSet
223 484 m 0
 143 484 102 544 102 604 c 0
 102 664 143 724 223 724 c 0
 304 724 344 664 344 604 c 0
 344 544 304 484 223 484 c 0
EndSplineSet
EndChar

StartChar: iota
Encoding: 953 953 583
Width: 451
Flags: W
LayerCount: 2
Fore
SplineSet
223 484 m 0
 143 484 102 544 102 604 c 0
 102 664 143 724 223 724 c 0
 304 724 344 664 344 604 c 0
 344 544 304 484 223 484 c 0
EndSplineSet
EndChar

StartChar: iotadieresis
Encoding: 970 970 584
Width: 697
Flags: W
LayerCount: 2
Fore
SplineSet
590 1334 m 1
 590 1141 l 1
 450 1141 l 1
 450 1334 l 1
 590 1334 l 1
235 1334 m 1
 235 1141 l 1
 95 1141 l 1
 95 1334 l 1
 235 1334 l 1
394 484 m 0
 314 484 273 544 273 604 c 0
 273 664 314 724 394 724 c 0
 475 724 515 664 515 604 c 0
 515 544 475 484 394 484 c 0
EndSplineSet
EndChar

StartChar: iotadieresistonos
Encoding: 912 912 585
Width: 517
Flags: W
LayerCount: 2
Fore
SplineSet
279 484 m 0
 199 484 158 544 158 604 c 0
 158 664 199 724 279 724 c 0
 360 724 400 664 400 604 c 0
 400 544 360 484 279 484 c 0
230 1134 m 0
 150 1134 109 1194 109 1254 c 0
 109 1314 150 1374 230 1374 c 0
 311 1374 351 1314 351 1254 c 0
 351 1194 311 1134 230 1134 c 0
EndSplineSet
EndChar

StartChar: iotatonos
Encoding: 943 943 586
Width: 451
Flags: W
LayerCount: 2
Fore
SplineSet
223 484 m 0
 143 484 102 544 102 604 c 0
 102 664 143 724 223 724 c 0
 304 724 344 664 344 604 c 0
 344 544 304 484 223 484 c 0
EndSplineSet
EndChar

StartChar: kappa
Encoding: 954 954 587
Width: 1047
Flags: W
LayerCount: 2
Fore
SplineSet
130 0 m 1
 130 999 l 1
 281 999 l 1
 281 520 l 1
 292 532 303 544 315 557 c 0
 431 690 589 855 724 998 c 1
 917 998 l 1
 502 555 l 1
 946 0 l 1
 757 0 l 1
 392 469 l 1
 281 373 l 1
 281 0 l 1
 130 0 l 1
EndSplineSet
EndChar

StartChar: lambda
Encoding: 955 955 588
Width: 451
Flags: W
LayerCount: 2
Fore
SplineSet
223 484 m 0
 143 484 102 544 102 604 c 0
 102 664 143 724 223 724 c 0
 304 724 344 664 344 604 c 0
 344 544 304 484 223 484 c 0
EndSplineSet
EndChar

StartChar: middot
Encoding: 65546 -1 589
Width: 372
Flags: W
LayerCount: 2
Fore
SplineSet
107 511 m 1
 107 691 l 1
 260 691 l 1
 260 511 l 1
 107 511 l 1
EndSplineSet
EndChar

StartChar: nu
Encoding: 957 957 590
Width: 451
Flags: W
LayerCount: 2
Fore
SplineSet
223 484 m 0
 143 484 102 544 102 604 c 0
 102 664 143 724 223 724 c 0
 304 724 344 664 344 604 c 0
 344 544 304 484 223 484 c 0
EndSplineSet
EndChar

StartChar: omega
Encoding: 969 969 592
Width: 451
Flags: W
LayerCount: 2
Fore
SplineSet
223 484 m 0
 143 484 102 544 102 604 c 0
 102 664 143 724 223 724 c 0
 304 724 344 664 344 604 c 0
 344 544 304 484 223 484 c 0
EndSplineSet
EndChar

StartChar: omegatonos
Encoding: 974 974 593
Width: 451
Flags: W
LayerCount: 2
Fore
SplineSet
223 484 m 0
 143 484 102 544 102 604 c 0
 102 664 143 724 223 724 c 0
 304 724 344 664 344 604 c 0
 344 544 304 484 223 484 c 0
EndSplineSet
EndChar

StartChar: omicron
Encoding: 959 959 594
Width: 1152
Flags: W
LayerCount: 2
Fore
SplineSet
575 886 m 0
 369 886 284 719 284 497 c 0
 284 279 368 112 575 112 c 0
 782 112 866 279 866 497 c 0
 866 719 781 886 575 886 c 0
575 -21 m 0
 290 -21 109 200 109 499 c 0
 109 804 280 1019 575 1019 c 0
 870 1019 1041 804 1041 499 c 0
 1041 200 860 -21 575 -21 c 0
EndSplineSet
EndChar

StartChar: omicrontonos
Encoding: 972 972 595
Width: 451
Flags: W
LayerCount: 2
Fore
SplineSet
223 484 m 0
 143 484 102 544 102 604 c 0
 102 664 143 724 223 724 c 0
 304 724 344 664 344 604 c 0
 344 544 304 484 223 484 c 0
EndSplineSet
EndChar

StartChar: phi
Encoding: 966 966 597
Width: 451
Flags: W
LayerCount: 2
Fore
SplineSet
223 484 m 0
 143 484 102 544 102 604 c 0
 102 664 143 724 223 724 c 0
 304 724 344 664 344 604 c 0
 344 544 304 484 223 484 c 0
EndSplineSet
EndChar

StartChar: psi
Encoding: 968 968 598
Width: 451
Flags: W
LayerCount: 2
Fore
SplineSet
223 484 m 0
 143 484 102 544 102 604 c 0
 102 664 143 724 223 724 c 0
 304 724 344 664 344 604 c 0
 344 544 304 484 223 484 c 0
EndSplineSet
EndChar

StartChar: rho
Encoding: 961 961 599
Width: 1174
Flags: W
LayerCount: 2
Fore
SplineSet
596 107 m 0
 787 107 887 261 887 500 c 0
 887 734 791 890 597 890 c 0
 391 890 305 746 305 516 c 0
 305 257 381 107 596 107 c 0
130 998 m 1
 288 998 l 1
 305 835 l 1
 360 953 486 1019 623 1019 c 0
 902 1019 1062 800 1062 494 c 0
 1062 196 884 -21 624 -21 c 0
 492 -21 366 43 300 136 c 1
 304 70 305 7 305 -55 c 2
 305 -423 l 1
 130 -433 l 1
 130 998 l 1
EndSplineSet
EndChar

StartChar: sigma
Encoding: 963 963 600
Width: 451
Flags: W
LayerCount: 2
Fore
SplineSet
223 484 m 0
 143 484 102 544 102 604 c 0
 102 664 143 724 223 724 c 0
 304 724 344 664 344 604 c 0
 344 544 304 484 223 484 c 0
EndSplineSet
EndChar

StartChar: sigma1
Encoding: 962 962 601
Width: 451
Flags: W
LayerCount: 2
Fore
SplineSet
223 484 m 0
 143 484 102 544 102 604 c 0
 102 664 143 724 223 724 c 0
 304 724 344 664 344 604 c 0
 344 544 304 484 223 484 c 0
EndSplineSet
EndChar

StartChar: tau
Encoding: 964 964 602
Width: 451
Flags: W
LayerCount: 2
Fore
SplineSet
223 484 m 0
 143 484 102 544 102 604 c 0
 102 664 143 724 223 724 c 0
 304 724 344 664 344 604 c 0
 344 544 304 484 223 484 c 0
EndSplineSet
EndChar

StartChar: theta
Encoding: 952 952 603
Width: 451
Flags: W
LayerCount: 2
Fore
SplineSet
223 484 m 0
 143 484 102 544 102 604 c 0
 102 664 143 724 223 724 c 0
 304 724 344 664 344 604 c 0
 344 544 304 484 223 484 c 0
EndSplineSet
EndChar

StartChar: tonos
Encoding: 900 900 604
Width: 425
Flags: W
LayerCount: 2
Fore
SplineSet
216 484 m 0
 136 484 95 544 95 604 c 0
 95 664 136 724 216 724 c 0
 297 724 337 664 337 604 c 0
 337 544 297 484 216 484 c 0
EndSplineSet
EndChar

StartChar: uni018F
Encoding: 399 399 607
Width: 1398
Flags: W
LayerCount: 2
Fore
SplineSet
684 117 m 0
 924 117 1073 319 1103 574 c 1
 277 574 l 1
 290 379 359 117 684 117 c 0
681 -21 m 0
 271 -21 126 306 113 583 c 1
 113 624 119 707 119 707 c 1
 1110 707 l 1
 1105 988 968 1249 618 1249 c 0
 476 1249 370 1198 278 1138 c 1
 217 1259 l 1
 333 1345 444 1388 631 1388 c 0
 1059 1388 1282 1074 1282 689 c 0
 1282 281 1039 -21 681 -21 c 0
EndSplineSet
EndChar

StartChar: uni0259
Encoding: 601 601 653
Width: 1108
Flags: W
LayerCount: 2
Fore
SplineSet
433 1019 m 0
 722 1019 927 822 927 502 c 0
 927 193 715 -21 452 -21 c 0
 195 -21 52 166 52 445 c 0
 52 468 58 529 58 529 c 1
 755 529 l 1
 751 758 598 886 408 886 c 0
 283 886 186 847 98 801 c 1
 74 933 l 1
 170 991 284 1019 433 1019 c 0
751 416 m 1
 216 416 l 1
 221 219 286 110 447 110 c 0
 603 110 734 226 751 416 c 1
EndSplineSet
EndChar

StartChar: uni031B
Encoding: 795 795 654
Width: 437
Flags: W
LayerCount: 2
Fore
SplineSet
190 142 m 0
 164 142 134 144 106 147 c 1
 106 233 l 1
 120 233 136 231 151 231 c 0
 204 231 220 272 220 322 c 0
 220 367 207 419 193 456 c 1
 299 456 l 1
 318 411 328 364 328 319 c 0
 328 223 282 142 190 142 c 0
EndSplineSet
EndChar

StartChar: uni0400
Encoding: 1024 1024 655
Width: 1067
Flags: W
LayerCount: 2
Fore
SplineSet
536 1576 m 1
 242 1929 l 1
 470 1929 l 1
 638 1576 l 1
 536 1576 l 1
356 1251 m 1
 356 799 l 1
 936 799 l 1
 936 662 l 1
 356 662 l 1
 356 139 l 1
 996 139 l 1
 988 0 l 1
 178 0 l 1
 178 1390 l 1
 996 1390 l 1
 989 1251 l 1
 356 1251 l 1
356 1251 m 1
 356 799 l 1
 936 799 l 1
 936 662 l 1
 356 662 l 1
 356 139 l 1
 996 139 l 1
 988 0 l 1
 178 0 l 1
 178 1390 l 1
 996 1390 l 1
 989 1251 l 1
 356 1251 l 1
356 1251 m 1
 356 799 l 1
 936 799 l 1
 936 662 l 1
 356 662 l 1
 356 139 l 1
 996 139 l 1
 988 0 l 1
 178 0 l 1
 178 1390 l 1
 996 1390 l 1
 989 1251 l 1
 356 1251 l 1
356 1251 m 1
 356 799 l 1
 936 799 l 1
 936 662 l 1
 356 662 l 1
 356 139 l 1
 996 139 l 1
 988 0 l 1
 178 0 l 1
 178 1390 l 1
 996 1390 l 1
 989 1251 l 1
 356 1251 l 1
356 1251 m 1
 356 799 l 1
 936 799 l 1
 936 662 l 1
 356 662 l 1
 356 139 l 1
 996 139 l 1
 988 0 l 1
 178 0 l 1
 178 1390 l 1
 996 1390 l 1
 989 1251 l 1
 356 1251 l 1
356 1251 m 1
 356 799 l 1
 936 799 l 1
 936 662 l 1
 356 662 l 1
 356 139 l 1
 996 139 l 1
 988 0 l 1
 178 0 l 1
 178 1390 l 1
 996 1390 l 1
 989 1251 l 1
 356 1251 l 1
356 1251 m 1
 356 799 l 1
 936 799 l 1
 936 662 l 1
 356 662 l 1
 356 139 l 1
 996 139 l 1
 988 0 l 1
 178 0 l 1
 178 1390 l 1
 996 1390 l 1
 989 1251 l 1
 356 1251 l 1
356 1251 m 1
 356 799 l 1
 936 799 l 1
 936 662 l 1
 356 662 l 1
 356 139 l 1
 996 139 l 1
 988 0 l 1
 178 0 l 1
 178 1390 l 1
 996 1390 l 1
 989 1251 l 1
 356 1251 l 1
356 1251 m 1
 356 799 l 1
 936 799 l 1
 936 662 l 1
 356 662 l 1
 356 139 l 1
 996 139 l 1
 988 0 l 1
 178 0 l 1
 178 1390 l 1
 996 1390 l 1
 989 1251 l 1
 356 1251 l 1
356 1251 m 1
 356 799 l 1
 936 799 l 1
 936 662 l 1
 356 662 l 1
 356 139 l 1
 996 139 l 1
 988 0 l 1
 178 0 l 1
 178 1390 l 1
 996 1390 l 1
 989 1251 l 1
 356 1251 l 1
356 1251 m 1
 356 799 l 1
 936 799 l 1
 936 662 l 1
 356 662 l 1
 356 139 l 1
 996 139 l 1
 988 0 l 1
 178 0 l 1
 178 1390 l 1
 996 1390 l 1
 989 1251 l 1
 356 1251 l 1
356 1251 m 1
 356 799 l 1
 936 799 l 1
 936 662 l 1
 356 662 l 1
 356 139 l 1
 996 139 l 1
 988 0 l 1
 178 0 l 1
 178 1390 l 1
 996 1390 l 1
 989 1251 l 1
 356 1251 l 1
356 1251 m 1
 356 799 l 1
 936 799 l 1
 936 662 l 1
 356 662 l 1
 356 139 l 1
 996 139 l 1
 988 0 l 1
 178 0 l 1
 178 1390 l 1
 996 1390 l 1
 989 1251 l 1
 356 1251 l 1
EndSplineSet
EndChar

StartChar: uni040D
Encoding: 1037 1037 656
Width: 1426
Flags: W
LayerCount: 2
Fore
SplineSet
663 1576 m 1
 369 1929 l 1
 597 1929 l 1
 765 1576 l 1
 663 1576 l 1
308 219 m 1
 566 598 831 970 1091 1346 c 1
 1267 1346 l 1
 1267 0 l 1
 1114 0 l 1
 1114 786 l 2
 1114 894 1119 1127 1119 1127 c 1
 863 747 598 377 339 0 c 1
 160 0 l 1
 160 1346 l 1
 313 1346 l 1
 313 555 l 2
 313 509 308 219 308 219 c 1
EndSplineSet
EndChar

